<?xml version="1.0" encoding="utf-8"?>
<!-- Generator: Adobe Illustrator 25.2.1, SVG Export Plug-In . SVG Version: 6.00 Build 0)  -->
<svg version="1.1" id="Layer_1" xmlns="http://www.w3.org/2000/svg" xmlns:xlink="http://www.w3.org/1999/xlink" x="0px" y="0px"
	 viewBox="0 0 225 75" style="enable-background:new 0 0 225 75;" xml:space="preserve">
<style type="text/css">
	.st0{fill:#2EC0DD;}
</style>
<g>
	<circle class="st0" cx="112.133" cy="34.621" r="21.325"/>
</g>
<g>
	<path d="M120.743,64.513h-15.28c-0.86,0-1.56,0.611-1.56,1.362c0,0.751,0.7,1.362,1.56,1.362h15.28c0.86,0,1.56-0.611,1.56-1.362
		C122.303,65.124,121.603,64.513,120.743,64.513z"/>
	<path d="M118.851,68.686h-11.498c-0.647,0-1.174,0.611-1.174,1.362c0,0.751,0.527,1.362,1.174,1.362h11.498
		c0.647,0,1.174-0.611,1.174-1.362C120.025,69.297,119.499,68.686,118.851,68.686z"/>
	<path d="M115.442,27.553c-0.116-0.229-0.38-0.343-0.624-0.267c-0.245,0.075-0.4,0.317-0.367,0.571l0.691,5.258H106.2
		c-0.182,0-0.351,0.094-0.447,0.249c-0.096,0.155-0.105,0.348-0.023,0.511l3.711,7.422c0.091,0.182,0.276,0.29,0.47,0.29
		c0.051,0,0.103-0.007,0.154-0.023c0.245-0.076,0.4-0.317,0.367-0.572l-0.69-5.26h8.941c0.182,0,0.351-0.094,0.447-0.249
		c0.095-0.155,0.104-0.348,0.023-0.511L115.442,27.553z"/>
	<path d="M113.103,12.639c-12.352,0-22.401,10.049-22.401,22.401c0,7.966,4.261,15.347,11.145,19.358v6.33
		c0,0.991,0.807,1.798,1.798,1.798h18.916c0.991,0,1.798-0.807,1.798-1.798v-6.33c6.884-4.01,11.144-11.392,11.144-19.358
		C135.503,22.688,125.454,12.639,113.103,12.639z M123.381,53.444l-0.336,0.188v7.096c0,0.263-0.222,0.484-0.484,0.484h-18.916
		c-0.267,0-0.484-0.218-0.484-0.484v-7.096l-0.336-0.188C96.157,49.712,92.015,42.66,92.015,35.04
		c0-11.627,9.46-21.087,21.087-21.087s21.087,9.46,21.087,21.087C134.19,42.66,130.048,49.712,123.381,53.444z"/>
	<rect x="112.052" y="3.591" width="2.102" height="5.941"/>
	<rect x="132.096" y="15.134" transform="matrix(0.7071 -0.7071 0.7071 0.7071 28.4873 100.0929)" width="5.94" height="1.051"/>
	<rect x="88.168" y="59.063" transform="matrix(0.7071 -0.7071 0.7071 0.7071 -15.4415 81.8973)" width="5.94" height="1.051"/>
	<rect x="79.07" y="36.573" width="5.941" height="2.102"/>
	<rect x="141.194" y="36.573" width="5.941" height="2.102"/>
	<rect x="90.613" y="12.689" transform="matrix(0.7071 -0.7071 0.7071 0.7071 15.6209 69.0309)" width="1.051" height="5.94"/>
	<rect x="134.541" y="56.618" transform="matrix(0.7071 -0.7071 0.7071 0.7071 -2.5751 112.9594)" width="1.051" height="5.94"/>
</g>
</svg>
