<?xml version="1.0" encoding="utf-8"?>
<!-- Generator: Adobe Illustrator 25.2.1, SVG Export Plug-In . SVG Version: 6.00 Build 0)  -->
<svg version="1.1" id="Layer_1" xmlns="http://www.w3.org/2000/svg" xmlns:xlink="http://www.w3.org/1999/xlink" x="0px" y="0px"
	 viewBox="0 0 225 75" style="enable-background:new 0 0 225 75;" xml:space="preserve">
<style type="text/css">
	.st0{fill:#2EC0DD;}
</style>
<g>
	<path class="st0" d="M144.275,10.179c-0.001,0-0.001,0-0.002,0c-0.246,0-0.477,0.121-0.617,0.323l-1.509,2.182l-0.813-2.525
		c-0.075-0.235-0.262-0.417-0.498-0.488l-2.542-0.762l2.15-1.553c0.2-0.145,0.316-0.378,0.311-0.625l-0.062-2.652l2.143,1.565
		c0.198,0.146,0.457,0.186,0.69,0.103l2.504-0.878l-0.826,2.521c-0.077,0.234-0.033,0.492,0.116,0.688l1.608,2.11L144.275,10.179z"
		/>
	<g>
		<path class="st0" d="M112.65,70.278c0,0,9.775-10.722,15.484-10.722s4.933,3.603,8.369,5.431c3.436,1.829,5.986-5.875,5.986-5.875
			s2.434-4.278,2.434-8.258s-2.434-8.045-2.434-8.045s-2.716-0.823-10.227-2.042c-7.512-1.219-19.372-1.378-19.372-1.378h-0.48
			c0,0-11.86,0.158-19.372,1.378c-7.511,1.22-10.227,2.043-10.227,2.043s-2.434,4.065-2.434,8.045s2.434,8.258,2.434,8.258
			s2.549,7.704,5.986,5.875c3.436-1.829,2.66-5.431,8.369-5.431S112.65,70.278,112.65,70.278"/>
	</g>
	<g>
		<path d="M112.5,9.217c0.414,0,0.75-0.336,0.75-0.75V3.483c0-0.414-0.336-0.75-0.75-0.75s-0.75,0.336-0.75,0.75v4.985
			C111.75,8.881,112.086,9.217,112.5,9.217z"/>
		<path d="M82.783,14.787c0.141,0.204,0.373,0.323,0.617,0.323c0.036,0,0.073-0.002,0.11-0.008c0.282-0.042,0.517-0.24,0.604-0.512
			l1.158-3.597l3.619-1.085c0.273-0.082,0.477-0.312,0.524-0.593c0.047-0.282-0.069-0.566-0.301-0.733L86.052,6.37l0.087-3.777
			c0.006-0.285-0.15-0.55-0.403-0.682s-0.559-0.109-0.79,0.059l-3.05,2.228l-3.565-1.25c-0.269-0.094-0.57-0.027-0.773,0.173
			C77.354,3.32,77.281,3.619,77.37,3.89l1.177,3.59l-2.291,3.005c-0.173,0.227-0.202,0.533-0.075,0.788s0.387,0.417,0.672,0.417
			c0,0,0.001,0,0.002,0l3.778-0.01L82.783,14.787z M79.979,8.076c0.149-0.196,0.193-0.454,0.116-0.688l-0.826-2.521l2.503,0.878
			c0.233,0.082,0.491,0.044,0.69-0.103l2.142-1.565l-0.06,2.653c-0.006,0.246,0.11,0.48,0.311,0.625l2.15,1.553L84.463,9.67
			c-0.236,0.071-0.423,0.253-0.499,0.488l-0.813,2.525l-1.51-2.182c-0.14-0.203-0.371-0.323-0.617-0.323c0,0-0.001,0-0.002,0
			l-2.653,0.007L79.979,8.076z"/>
		<path d="M89.027,15.373l0.748,2.282l-1.456,1.91c-0.173,0.227-0.202,0.533-0.075,0.788s0.387,0.417,0.672,0.417
			c0,0,0.001,0,0.002,0l2.401-0.006l1.367,1.975c0.141,0.204,0.373,0.323,0.617,0.323c0.036,0,0.073-0.002,0.11-0.008
			c0.282-0.042,0.517-0.24,0.604-0.512l0.736-2.286l2.3-0.689c0.273-0.082,0.477-0.312,0.524-0.593
			c0.047-0.282-0.069-0.566-0.3-0.733l-1.947-1.406l0.056-2.401c0.006-0.285-0.149-0.55-0.403-0.682
			c-0.252-0.132-0.559-0.109-0.79,0.059l-1.939,1.416l-2.266-0.794c-0.27-0.094-0.569-0.027-0.773,0.172
			C89.011,14.804,88.939,15.102,89.027,15.373z M91.324,17.562l-0.397-1.213l1.204,0.422c0.234,0.082,0.491,0.044,0.69-0.103
			l1.03-0.752l-0.03,1.276c-0.005,0.247,0.111,0.48,0.311,0.625l1.035,0.747l-1.222,0.367c-0.236,0.071-0.423,0.253-0.499,0.488
			l-0.391,1.214l-0.726-1.049c-0.14-0.203-0.371-0.323-0.617-0.323c0,0-0.001,0-0.002,0l-1.276,0.003l0.773-1.015
			C91.357,18.054,91.4,17.796,91.324,17.562z"/>
		<path d="M81.924,31.996c-0.414,0-0.75,0.336-0.75,0.75s0.336,0.75,0.75,0.75h5.986c0.414,0,0.75-0.336,0.75-0.75
			s-0.336-0.75-0.75-0.75C87.91,31.996,81.924,31.996,81.924,31.996z"/>
		<path d="M86.912,49.68h5.376c0.414,0,0.75-0.336,0.75-0.75s-0.336-0.75-0.75-0.75h-5.376c-0.414,0-0.75,0.336-0.75,0.75
			S86.498,49.68,86.912,49.68z"/>
		<path d="M99.881,54.834h4.987c0.414,0,0.75-0.336,0.75-0.75s-0.336-0.75-0.75-0.75h-4.987c-0.414,0-0.75,0.336-0.75,0.75
			S99.467,54.834,99.881,54.834z"/>
		<path d="M149.043,10.485l-2.29-3.005l1.177-3.59c0.089-0.271,0.016-0.57-0.188-0.77c-0.204-0.2-0.504-0.267-0.773-0.172
			l-3.566,1.25l-3.052-2.228c-0.23-0.168-0.538-0.191-0.79-0.059c-0.253,0.132-0.409,0.396-0.402,0.682l0.087,3.777l-3.062,2.212
			c-0.231,0.167-0.348,0.451-0.3,0.733c0.047,0.281,0.25,0.511,0.523,0.593l3.62,1.085l1.158,3.597
			c0.088,0.271,0.321,0.47,0.604,0.512c0.036,0.006,0.073,0.008,0.109,0.008c0.244,0,0.476-0.119,0.617-0.323l2.149-3.107
			l3.778,0.01c0.299,0.013,0.547-0.16,0.674-0.417C149.245,11.018,149.215,10.712,149.043,10.485z M144.275,10.179
			c-0.001,0-0.001,0-0.002,0c-0.246,0-0.477,0.121-0.617,0.323l-1.509,2.182l-0.813-2.525c-0.075-0.235-0.262-0.417-0.498-0.488
			l-2.542-0.762l2.15-1.553c0.2-0.145,0.316-0.378,0.311-0.625l-0.062-2.652l2.143,1.565c0.198,0.146,0.457,0.186,0.69,0.103
			l2.504-0.878l-0.826,2.521c-0.077,0.234-0.033,0.492,0.116,0.688l1.608,2.11L144.275,10.179z"/>
		<path d="M128.246,19.565l2.301,0.689l0.735,2.286c0.088,0.271,0.321,0.47,0.604,0.512c0.036,0.006,0.073,0.008,0.109,0.008
			c0.244,0,0.476-0.119,0.617-0.323l1.366-1.975l2.401,0.006c0.001,0,0.001,0,0.002,0c0.285,0,0.545-0.161,0.672-0.417
			c0.127-0.256,0.098-0.561-0.075-0.788l-1.456-1.91l0.748-2.281c0.089-0.271,0.016-0.57-0.188-0.77
			c-0.204-0.2-0.504-0.266-0.773-0.172l-2.266,0.794l-1.939-1.416c-0.23-0.169-0.537-0.19-0.79-0.059
			c-0.253,0.132-0.409,0.396-0.402,0.682l0.056,2.401l-1.946,1.406c-0.231,0.167-0.348,0.451-0.3,0.733
			C127.769,19.253,127.972,19.483,128.246,19.565z M131.167,17.817c0.2-0.145,0.316-0.378,0.311-0.625l-0.029-1.276l1.03,0.752
			c0.199,0.146,0.456,0.186,0.69,0.103l1.203-0.422l-0.397,1.212c-0.077,0.235-0.033,0.492,0.116,0.688l0.773,1.015l-1.275-0.003
			c-0.211,0.006-0.479,0.12-0.619,0.323l-0.726,1.049l-0.391-1.214c-0.075-0.235-0.262-0.417-0.498-0.488l-1.223-0.367
			L131.167,17.817z"/>
		<path d="M147.31,42.906h-4.026v-1.514c0-0.312-0.193-0.592-0.485-0.702c-0.316-0.119-7.826-2.914-15.207-2.914
			c-5.235,0-8.211,0.861-9.564,1.4c-0.053-0.111-0.108-0.221-0.177-0.322c0.601-0.219,1.051-0.451,1.138-0.497
			c0.648-0.338,1.291-1.088,1.52-1.921c0.032,0.001,0.069,0.006,0.1,0.006c1.767,0,2.559-0.913,2.929-1.338
			c0.022-0.023,2.045-2.133,0.171-5.554c0.662-0.565,1.561-1.742,1.502-3.967c-0.061-2.293-1.224-3.227-2.033-3.603
			c0.026-0.159,0.044-0.328,0.052-0.508c0.102-2.354-1.647-3.759-2.469-4.287c-0.054-0.636-0.448-1.441-1.556-2.407
			c-0.949-0.829-1.985-1.177-3.083-1.036c-1.58,0.203-2.831,1.399-3.472,2.139c-0.641-0.741-1.892-1.936-3.472-2.14
			c-1.096-0.137-2.132,0.208-3.083,1.037c-1.107,0.966-1.502,1.771-1.556,2.407c-0.822,0.528-2.572,1.933-2.47,4.288
			c0.008,0.18,0.026,0.349,0.052,0.508c-0.81,0.376-1.972,1.31-2.033,3.603c-0.059,2.225,0.84,3.403,1.502,3.967
			c-1.875,3.423,0.154,5.538,0.232,5.622c0.317,0.365,1.103,1.27,2.866,1.27c0.032,0,0.07-0.006,0.103-0.006
			c0.229,0.833,0.87,1.582,1.517,1.919c0.09,0.047,0.54,0.279,1.142,0.499c-0.069,0.101-0.124,0.211-0.177,0.322
			c-1.353-0.54-4.329-1.4-9.565-1.4c-7.38,0-14.891,2.795-15.207,2.914c-0.292,0.11-0.486,0.39-0.486,0.702v1.514h-4.026
			c-0.414,0-0.75,0.336-0.75,0.75v28.219c0,0.414,0.336,0.75,0.75,0.75h34.661h34.66c0.414,0,0.75-0.336,0.75-0.75v-28.22
			C148.06,43.242,147.724,42.906,147.31,42.906z M110.459,42.696h4.382c0.529,0,0.96,0.431,0.96,0.96s-0.431,0.96-0.96,0.96h-4.382
			c-0.529,0-0.96-0.431-0.96-0.96S109.929,42.696,110.459,42.696z M111.69,47.076c0-0.529,0.431-0.96,0.96-0.96
			c0.529,0,0.959,0.431,0.959,0.96v1.71c0,0.529-0.431,0.96-0.959,0.96c-0.529,0-0.96-0.431-0.96-0.96V47.076z M141.784,41.922
			V69.63c-2.254-2.694-7.149-7.372-13.983-7.372c-6.919,0-12.077,4.459-14.401,6.925V51.117c0.988-0.319,1.709-1.237,1.709-2.331
			v-1.71c0-0.343-0.072-0.67-0.199-0.967c1.324-0.038,2.391-1.12,2.391-2.453c0-0.458-0.134-0.881-0.352-1.248
			c0.648-0.339,1.132-0.949,1.28-1.687c0.881-0.401,3.719-1.445,9.363-1.445C133.653,39.276,140.006,41.31,141.784,41.922z
			 M141.048,71.125h-27.363c1.486-1.754,6.81-7.367,14.115-7.367C134.428,63.758,139.201,68.803,141.048,71.125z M113.548,17.143
			c0.368-0.473,1.472-1.749,2.77-1.914c0.656-0.082,1.28,0.138,1.9,0.679c0.996,0.869,1.103,1.388,1.021,1.542
			c-0.177,0.329-1.232,0.62-2.267,0.33c-0.402-0.111-0.813,0.123-0.924,0.522s0.123,0.812,0.521,0.923
			c1.246,0.345,2.798,0.182,3.625-0.606c0.626,0.457,1.596,1.388,1.536,2.788c-0.029,0.657-0.239,1.097-0.644,1.345
			c-0.539,0.332-1.291,0.241-1.456,0.166c-0.502-0.228-1.041-0.551-2.047-1.39c-0.319-0.265-0.791-0.224-1.057,0.096
			c-0.266,0.318-0.223,0.791,0.096,1.056c0.984,0.82,1.653,1.27,2.387,1.603c0.266,0.121,0.674,0.207,1.135,0.207
			c0.552,0,1.179-0.124,1.725-0.458c0.344-0.211,0.727-0.557,1.001-1.099c0.548,0.293,1.295,0.997,1.34,2.677
			c0.046,1.708-0.564,2.627-1.036,3.081c-0.03-0.043-0.052-0.084-0.084-0.127c-0.791-1.089-1.746-1.676-2.84-1.744
			c-2.026-0.135-3.627,1.6-3.694,1.673c-0.282,0.302-0.267,0.774,0.035,1.058c0.302,0.284,0.777,0.267,1.06-0.032
			c0.013-0.013,1.241-1.29,2.512-1.201c0.633,0.041,1.192,0.41,1.713,1.127c2.128,2.933,0.613,4.585,0.6,4.6
			c-0.036,0.036-0.079,0.085-0.13,0.144c-0.254,0.292-0.717,0.811-1.96,0.74c-0.192-0.377-0.544-0.769-1.204-1.046
			c-1.846-0.771-3.159,0.152-3.597,0.747c-0.245,0.334-0.173,0.803,0.161,1.048c0.332,0.246,0.804,0.172,1.048-0.161
			c0.005-0.008,0.579-0.765,1.808-0.25c0.485,0.203,0.496,0.439,0.5,0.529c0.019,0.44-0.426,1.034-0.81,1.234
			c-0.393,0.208-1.604,0.747-2.475,0.747c-0.532,0-2.269-0.211-2.269-2.924V17.143z M112.889,37.776h-0.479
			c0.086-0.119,0.165-0.245,0.239-0.38C112.724,37.531,112.803,37.657,112.889,37.776z M106.198,35.796
			c0.003-0.089,0.014-0.325,0.499-0.528c1.147-0.479,1.71,0.129,1.814,0.259c0.247,0.326,0.71,0.394,1.042,0.152
			c0.334-0.245,0.406-0.714,0.161-1.048c-0.437-0.595-1.75-1.518-3.596-0.747c-0.66,0.276-1.012,0.669-1.204,1.046
			c-1.237,0.068-1.707-0.448-1.96-0.74c-0.051-0.059-0.095-0.107-0.129-0.142c-0.016-0.016-1.53-1.668,0.598-4.602
			c0.521-0.718,1.081-1.086,1.713-1.127c1.291-0.091,2.501,1.188,2.511,1.199c0.284,0.303,0.758,0.318,1.06,0.037
			c0.303-0.283,0.319-0.757,0.037-1.06c-0.069-0.074-1.691-1.796-3.695-1.673c-1.094,0.068-2.049,0.654-2.84,1.744
			c-0.031,0.043-0.053,0.084-0.083,0.126c-0.473-0.455-1.082-1.374-1.037-3.081c0.045-1.682,0.791-2.383,1.34-2.675
			c0.274,0.541,0.657,0.887,1,1.097c0.547,0.335,1.174,0.459,1.726,0.459c0.46,0,0.869-0.086,1.134-0.207
			c0.733-0.333,1.402-0.782,2.387-1.603c0.318-0.265,0.361-0.738,0.096-1.056c-0.265-0.318-0.737-0.361-1.056-0.096
			c-1.007,0.839-1.547,1.162-2.048,1.39c-0.166,0.075-0.916,0.167-1.457-0.167c-0.404-0.249-0.614-0.688-0.643-1.345
			c-0.061-1.405,0.906-2.333,1.534-2.789c0.827,0.788,2.38,0.952,3.626,0.607c0.399-0.111,0.633-0.524,0.522-0.923
			s-0.526-0.633-0.923-0.522c-1.033,0.288-2.089-0.001-2.267-0.33c-0.083-0.153,0.024-0.672,1.021-1.542
			c0.62-0.54,1.239-0.761,1.9-0.679c1.298,0.165,2.401,1.441,2.77,1.914v17.709c0,2.713-1.736,2.924-2.268,2.924
			c-0.865,0-2.081-0.539-2.478-0.749C106.624,36.83,106.179,36.235,106.198,35.796z M115.817,39.276c0.529,0,0.96,0.431,0.96,0.96
			s-0.431,0.96-0.96,0.96h-0.977h-4.382h-0.977c-0.529,0-0.96-0.431-0.96-0.96s0.431-0.96,0.96-0.96H115.817z M83.514,41.922
			c1.776-0.613,8.124-2.646,14.192-2.646c5.651,0,8.489,1.046,9.364,1.444c0.148,0.738,0.632,1.348,1.28,1.687
			c-0.218,0.367-0.352,0.791-0.352,1.248c0,1.333,1.067,2.415,2.39,2.453c-0.128,0.297-0.199,0.624-0.199,0.967v1.71
			c0,1.093,0.722,2.011,1.71,2.331v18.066c-2.323-2.466-7.482-6.925-14.401-6.925c-6.833,0-11.73,4.678-13.984,7.372
			C83.514,69.629,83.514,41.922,83.514,41.922z M111.613,71.125H84.247c1.843-2.322,6.607-7.367,13.251-7.367
			C104.787,63.758,110.122,69.37,111.613,71.125z M78.739,44.406h3.275v26.719h-3.275V44.406z M146.56,71.125h-3.276V44.406h3.276
			V71.125z"/>
		<path d="M136.639,32.746c0,0.414,0.336,0.75,0.75,0.75h5.985c0.414,0,0.75-0.336,0.75-0.75s-0.336-0.75-0.75-0.75h-5.985
			C136.975,31.996,136.639,32.332,136.639,32.746z"/>
		<path d="M133.01,49.68h5.376c0.414,0,0.75-0.336,0.75-0.75s-0.336-0.75-0.75-0.75h-5.376c-0.414,0-0.75,0.336-0.75,0.75
			S132.596,49.68,133.01,49.68z"/>
		<path d="M120.43,54.834h4.987c0.414,0,0.75-0.336,0.75-0.75s-0.336-0.75-0.75-0.75h-4.987c-0.414,0-0.75,0.336-0.75,0.75
			S120.016,54.834,120.43,54.834z"/>
	</g>
</g>
</svg>
