<?xml version="1.0" encoding="utf-8"?>
<!-- Generator: Adobe Illustrator 25.2.1, SVG Export Plug-In . SVG Version: 6.00 Build 0)  -->
<svg version="1.1" id="Layer_1" xmlns="http://www.w3.org/2000/svg" xmlns:xlink="http://www.w3.org/1999/xlink" x="0px" y="0px"
	 viewBox="0 0 50 100" style="enable-background:new 0 0 50 100;" xml:space="preserve">
<g>
	<path d="M25,18.192c-10.547,0-19.177,8.629-19.177,19.177v25.264c0,10.547,8.629,19.177,19.177,19.177s19.177-8.629,19.177-19.177
		V37.368C44.177,26.821,35.547,18.192,25,18.192z M41.177,62.632c0,8.92-7.257,16.177-16.177,16.177S8.823,71.552,8.823,62.632
		V37.368c0-8.92,7.257-16.177,16.177-16.177c8.92,0,16.177,7.257,16.177,16.177V62.632z"/>
	<path d="M20.545,13.832L25,9.377l4.455,4.455c0.439,0.439,1.015,0.659,1.591,0.659s1.151-0.22,1.591-0.659
		c0.879-0.878,0.879-2.303,0-3.182l-6.046-6.046c-0.879-0.879-2.304-0.879-3.182,0l-6.046,6.046c-0.879,0.878-0.879,2.303,0,3.182
		C18.241,14.711,19.667,14.711,20.545,13.832z"/>
	<path d="M29.455,86.168L25,90.623l-4.455-4.455c-0.878-0.879-2.304-0.879-3.182,0c-0.879,0.879-0.879,2.303,0,3.182l6.046,6.046
		c0.439,0.439,1.015,0.659,1.591,0.659s1.151-0.22,1.591-0.659l6.046-6.046c0.879-0.879,0.879-2.303,0-3.182
		S30.334,85.289,29.455,86.168z"/>
	<path d="M25,28.122c-1.243,0-2.25,1.007-2.25,2.25v8.805c0,1.243,1.007,2.25,2.25,2.25c1.242,0,2.25-1.007,2.25-2.25v-8.805
		C27.25,29.129,26.242,28.122,25,28.122z"/>
</g>
</svg>
