<?xml version="1.0" encoding="utf-8"?>
<!-- Generator: Adobe Illustrator 25.2.1, SVG Export Plug-In . SVG Version: 6.00 Build 0)  -->
<svg version="1.1" id="Isolation_Mode" xmlns="http://www.w3.org/2000/svg" xmlns:xlink="http://www.w3.org/1999/xlink" x="0px"
	 y="0px" viewBox="0 0 800 100.166" style="enable-background:new 0 0 800 100.166;" xml:space="preserve">
<style type="text/css">
	.st0{fill:#33A6CC;}
	.st1{fill:url(#SVGID_1_);}
	.st2{fill:url(#SVGID_2_);}
	.st3{fill:url(#SVGID_3_);}
	.st4{fill:url(#SVGID_4_);}
	.st5{fill:url(#SVGID_5_);}
	.st6{fill:url(#SVGID_6_);}
	.st7{fill:url(#SVGID_7_);}
	.st8{fill:url(#SVGID_8_);}
	.st9{fill:url(#SVGID_9_);}
	.st10{fill:url(#SVGID_10_);}
	.st11{fill:url(#SVGID_11_);}
	.st12{fill:url(#SVGID_12_);}
	.st13{fill:url(#SVGID_13_);}
	.st14{fill:url(#SVGID_14_);}
	.st15{fill:url(#SVGID_15_);}
	.st16{fill:url(#SVGID_16_);}
	.st17{fill:url(#SVGID_17_);}
	.st18{fill:url(#SVGID_18_);}
	.st19{fill:url(#SVGID_19_);}
	.st20{fill:url(#SVGID_20_);}
	.st21{fill:url(#SVGID_21_);}
	.st22{fill:url(#SVGID_22_);}
	.st23{fill:url(#SVGID_23_);}
	.st24{fill:url(#SVGID_24_);}
	.st25{fill:url(#SVGID_25_);}
	.st26{fill:url(#SVGID_26_);}
</style>
<polygon class="st0" points="800,69.839 179.787,69.839 66.28,54.481 0,62.014 0,0 800,0 "/>
<g>
	<path class="st0" d="M304.292,12.279c-9.626-1.532-19.31-2.691-29.019-3.543c-46.111-4.051-93.067-2.294-139.112,1.873
		c-8.647,0.783-17.162,2.213-25.613,3.965l-13.245-1.471L85.22,12.221l-16.199,1.243l-13.368,0.601l-11.221-0.882l-9.033,0.08
		l-9.093-0.802l-7.421,0.597L0,13.136v48.805l29.424-4.767l84.627-2.176l175.905,22.803L454.952,91.2l175.597-13.399l113.377-7.914
		L800,68.539V12.37v-0.73C677.966,11.798,304.292,12.279,304.292,12.279z"/>
	
		<radialGradient id="SVGID_1_" cx="-9457.2754" cy="-8914.877" r="1399.6527" gradientTransform="matrix(0.3158 0 0 0.3154 3370.8274 2744.0039)" gradientUnits="userSpaceOnUse">
		<stop  offset="0" style="stop-color:#FFFFFF"/>
		<stop  offset="0.4254" style="stop-color:#BCEDF5"/>
		<stop  offset="1" style="stop-color:#5CD4E6"/>
	</radialGradient>
	<path class="st1" d="M0,58.187c0,0.894,0,2.389,0,3.754c0,0.799,0,1.554,0,2.118c124.916-16.03,240.464,26.782,364.527,34.46
		c158.819,9.83,267.599-31.37,435.473-24.442c0-6.247,0-11.586,0-15.891C397.822,116.093,222.155,13.328,0,58.187z"/>
	<g>
		
			<linearGradient id="SVGID_2_" gradientUnits="userSpaceOnUse" x1="802.9388" y1="2001.298" x2="1.3893" y2="2000.4124" gradientTransform="matrix(1 0 0 -1 0 2013.2051)">
			<stop  offset="0" style="stop-color:#5CD4E6"/>
			<stop  offset="0.5746" style="stop-color:#BCEDF5"/>
			<stop  offset="1" style="stop-color:#FFFFFF"/>
		</linearGradient>
		<path class="st2" d="M318.349,12.556c1.598,0.055,3.191,0.134,4.815,0.138c2.787,0.008,5.574,0.039,8.36,0.064
			c3.251,0.03,6.512-0.063,9.758,0.028c3.009,0.085,5.914,0.484,8.938,0.509c1.817,0.016,3.585-0.14,5.359-0.257
			c2.438-0.161,5.133-0.235,7.607-0.245c2.851-0.012,5.665-0.202,8.501-0.29c5.334-0.164,10.534,0.464,15.91,0.156
			c3.517-0.202,7.065,0.09,10.588,0.11c4.374,0.025,8.873-0.444,13.171-0.171c1.019,0.065,2.263-0.005,3.304-0.005
			c2.32,0,4.351,0.092,6.62-0.094c0.437-0.036,0.888-0.139,1.361-0.182c0.604-0.055,1.301-0.022,1.927-0.022
			c0.522,0,1.046-0.004,1.568,0.002c-0.598,0.016-1.003-0.172-1.567-0.205c-2.848-0.172-6.022-0.039-8.92-0.04
			c-3.266-0.001-6.462-0.061-9.728-0.061c-2.296,0-4.626-0.013-6.901,0.008c-2.565,0.024-4.948-0.349-7.463-0.464
			c-5.148-0.235-10.088,0.176-15.203,0.27c-5.483,0.101-10.967-0.022-16.447-0.079c-4.998-0.052-9.939,0.283-14.922,0.356
			c-4.476,0.066-8.964-0.185-13.447-0.185c-3.261,0-6.52,0.052-9.779,0.081c-2.064,0.018-4.132,0.045-6.196,0.007
			c-2.479-0.046-4.859-0.287-7.355-0.286c-1.902,0.001-3.69,0.065-4.444,0.222c-0.136,0.028,2.639,0.738,2.958,0.753
			c1.369,0.067,2.75-0.063,4.113-0.082c1.758-0.024,3.52-0.105,5.281-0.09C316.865,12.509,317.607,12.53,318.349,12.556z"/>
		
			<linearGradient id="SVGID_3_" gradientUnits="userSpaceOnUse" x1="802.9392" y1="2001.3425" x2="1.3891" y2="2000.4569" gradientTransform="matrix(1 0 0 -1 0 2013.2051)">
			<stop  offset="0" style="stop-color:#5CD4E6"/>
			<stop  offset="0.5746" style="stop-color:#BCEDF5"/>
			<stop  offset="1" style="stop-color:#FFFFFF"/>
		</linearGradient>
		<path class="st3" d="M789.09,11.543c-9.05,0-17.907-0.061-26.957-0.061c-6.359,0-12.816-0.013-19.12,0.009
			c-7.108,0.024-13.712-0.064-20.679-0.178c-14.267-0.235-27.953,0.176-42.126,0.27c-15.192,0.101-30.387-0.022-45.572-0.079
			c-13.848-0.052-27.541-0.003-41.347,0.07c-12.401,0.066-24.837,0.101-37.261,0.101c-9.035,0-18.064,0.052-27.097,0.081
			c-5.72,0.018-11.451,0.045-17.169,0.007c-6.869-0.045-13.323-0.175-20.239-0.174c-5.269,0.001-11.284,0.371-19.939,0.155
			c-0.385-0.009,4.625,0.723,5.509,0.739c3.792,0.068,17.793-0.093,21.569-0.111c4.874-0.024,9.755-0.105,14.635-0.09
			c2.072,0.006,4.131,0.027,6.186,0.052c4.429,0.055,8.841,0.134,13.342,0.138c7.723,0.008,15.444,0.039,23.165,0.064
			c9.008,0.03,18.042-0.349,27.038-0.257c8.337,0.085,16.385,0.484,24.767,0.509c5.033,0.016,9.932-0.14,14.848-0.257
			c6.755-0.161,14.223,0.051,21.077,0.041c7.9-0.011,15.701-0.202,23.556-0.289c14.781-0.164,29.19,0.464,44.086,0.156
			c9.746-0.202,19.576-0.482,29.339-0.462c12.122,0.025,24.586-0.158,36.494,0.115c2.823,0.065,6.272,0.281,9.154,0.281
			c4.794,0,9.143,0.051,13.651,0v-0.812C796.319,11.543,792.642,11.543,789.09,11.543z"/>
		<linearGradient id="SVGID_4_" gradientUnits="userSpaceOnUse" x1="800.7822" y1="28.9699" x2="-0.7666" y2="28.0843">
			<stop  offset="0" style="stop-color:#5CD4E6"/>
			<stop  offset="0.5746" style="stop-color:#BCEDF5"/>
			<stop  offset="1" style="stop-color:#FFFFFF"/>
		</linearGradient>
		<path class="st4" d="M794.934,19.045c-0.718,0.056-1.436,0.111-2.153,0.164c-0.733,0.053-1.466,0.105-2.199,0.155
			c-0.678,0.047-1.355,0.092-2.033,0.136c-0.823,0.052-1.646,0.099-2.469,0.145c-7.239,0.41-14.457,0.614-21.624,0.512
			c-4.392-0.062-8.772-0.148-13.144-0.243c-26.819-0.587-53.319-1.602-80.284-0.63c-18.502,0.667-37.321,3.481-55.902,4.538
			c-17.064,0.972-34.085,3.036-51.121,4.923c-1.08,0.119-2.16,0.238-3.24,0.356c-0.516,0.056-1.032,0.113-1.547,0.169
			c-3.583,0.387-7.166,0.761-10.751,1.11c-0.096,0.009-0.193,0.018-0.288,0.028c-1.615,0.156-3.229,0.307-4.844,0.452
			c-3.274,0.294-6.55,0.566-9.827,0.8c-14.231,1.016-28.471,2.099-42.748,2.081c-22.865-0.029-46.126-0.021-69.169-1.661
			c0.817,0.188,1.636,0.424,2.439,0.599c1.637,0.355,4.247,0.256,5.888,0.534c6.342,1.076,11.666,3.096,18.117,3.172
			c6.835,0.08,13.644-0.796,20.482-0.574c5.283,0.172,10.341-0.693,15.59,0.311c5.367,1.026,10.571,3.082,16.119,2.853
			c6.902-0.286,13.505-3.059,20.45-3.469c6.151-0.364,12.35-2.589,18.415-3.67c1.803-0.322,4.275-0.886,5.423-0.889
			c1.149-0.003,5.556-0.167,8.313-0.41c0.963-0.085,1.926-0.178,2.888-0.276c1.4-0.141,2.767-0.453,4.155-0.668
			c0.882-0.137,1.771-0.212,2.661-0.28c12.76-0.233,25.176,1.807,37.935,1.953c6.2,0.071,12.383-0.579,18.56-1.363
			c-0.117-0.041-0.235-0.083-0.353-0.121c-0.266-0.087-0.533-0.169-0.801-0.245c-1.257-0.357-2.548-0.587-3.855-0.661
			c-0.272-0.015-1.198,0.097-1.342-0.218c-0.254-0.553,3.029-0.857,3.373-0.888c1.43-0.13,2.865-0.06,4.243,0.367
			c0.56,0.174,1.131,0.219,1.715,0.212c0.847-0.01,1.674-0.211,2.499-0.384c0.848-0.177,1.705-0.267,2.563-0.383
			c0.482-0.066,0.966-0.181,1.452-0.214c0.813-0.054,1.788-0.04,2.593,0.099c0.463,0.08,0.873,0.388,1.047,0.777
			c5.426-0.596,10.852-0.974,16.286-0.734c6.395,0.282,11.958,1.022,18.221,2.176c9.312,1.716,19.516,3.07,28.969,3.07
			c1.315,0,3.52,0,5.195-0.027c-3.083-0.223-6.155-0.559-9.225-0.916c-3.457-0.401-6.901-0.894-10.338-1.439
			c-2.676-0.425-5.295-0.947-7.636-2.376c-0.815-0.497-1.59-1.064-2.32-1.679c-0.381-0.321-1.278-0.977-1.095-1.584
			c0.192-0.636,1.668-0.92,2.21-0.947c0.924-0.045,1.868,0.006,2.794,0.007c7.237,0.007,14.188,2.276,21.531,2.067
			c7.169-0.203,14.061-1.811,21.049-3.252c9.846-2.03,26.37-2.607,31.306-2.3c2.411,0.149,4.715,0.315,7.126,0.354
			c5.468,0.086,10.918,0.046,16.387-0.061c1.581-0.031,3.163-0.055,4.745-0.055c3.517,0,7.032,0.218,10.549,0.218
			c1.215,0,2.501-0.085,3.74,0.006c1.221,0.089,4.847,0.382,8.351,0.366v-2.522C798.311,18.767,796.621,18.913,794.934,19.045z
			 M507.157,35.975c-0.077,0.023-0.163,0.026-0.24,0.038c-0.184,0.033-0.369,0.06-0.549,0.11c-0.537,0.15-1.129,0.22-1.638,0.452
			c-0.444,0.201-0.9,0.404-1.393,0.417c-0.472,0.013-0.936-0.116-1.406-0.009c-0.238,0.054-0.478,0.152-0.723,0.167
			c-0.376,0.023-0.736-0.026-1.117,0.012c-0.375,0.038-0.751,0.05-1.127,0.047c-0.771-0.007-1.541-0.083-2.303-0.19
			c-0.244-0.034-0.761,0.162-0.927-0.077c-0.262-0.378,0.401-0.463,0.605-0.5c0.096-0.017,0.192-0.04,0.286-0.066
			c0.853-0.231,1.73-0.357,2.574-0.534c0.983-0.207,1.858-0.854,2.851-0.971c0.735-0.087,1.669-0.265,2.336,0.131
			c0.533,0.317,1.122,0.527,1.72,0.679c0.212,0.053,0.426,0.105,0.64,0.142c0.167,0.029,0.401-0.049,0.527,0.079
			C507.245,35.951,507.208,35.959,507.157,35.975z M666.656,24.978c-1.771,0.259-3.374,0.298-5.149,0.159
			c-2.315-0.18-9.451,0.473-11.665-0.612c-0.135-0.066-0.86-0.4-1.084-0.68c-0.349-0.435,6.738-0.279,7.038-0.224
			c1.505,0.274,2.92-0.458,4.394-0.606c1.483-0.15,2.915,0.406,4.335,0.741c0.508,0.12,2.667,0.113,2.821,0.759
			C667.436,24.894,666.914,24.942,666.656,24.978z"/>
		
			<linearGradient id="SVGID_5_" gradientUnits="userSpaceOnUse" x1="813.4991" y1="28.5328" x2="11.9496" y2="27.6472" gradientTransform="matrix(1 -0.0064 0.0064 1 -6.6236 -2.7437)">
			<stop  offset="0" style="stop-color:#5CD4E6"/>
			<stop  offset="0.5746" style="stop-color:#BCEDF5"/>
			<stop  offset="1" style="stop-color:#FFFFFF"/>
		</linearGradient>
		<path class="st5" d="M373.151,32.681c-2.849-0.762-5.62-1.741-8.532-2.244c-9.229-1.596-18.626-0.89-27.937-1.252
			c-2.508-0.098-5.014-0.273-7.504-0.588c-0.037-0.005-0.075-0.009-0.112-0.014c-15.523-1.986-28.496-12.059-43.866-14.628
			c-16.834-2.814-34.585-1.717-51.55-0.635c-5.916,0.377-11.854,0.041-17.751-0.477c-13.151-1.152-26.197-3.672-39.433-3.587
			c-2.779,0.017-5.559-0.006-8.337,0.084c-1.022,0.034-2.044,0.086-3.064,0.159c-1.012,0.072-2.024,0.159-3.034,0.255
			c-1.015,0.096-11.061,1.625-12.079,1.694c-1.014,0.069-2.029,0.122-3.045,0.152c-1.012,0.031-2.025,0.039-3.038,0.018
			c-0.505-0.01-1.01-0.027-1.515-0.053c-0.338-0.017-0.645,0.037-0.976,0.038c-0.347,0.001-0.678-0.149-1.025-0.15
			c-0.488,0-0.986-0.032-1.469,0.049c-1.015,0.168-2.045,0.218-3.073,0.226c-0.942,0.007-2.018-0.174-2.945-0.015
			c-0.173,0.03-0.372,0.066-0.536,0.128c0.006,0.03,0.119,0.041,0.156,0.055c0.073,0.029,0.15,0.043,0.228,0.056
			c0.116,0.02,0.23,0.011,0.347,0.032c0.415,0.075,0.871,0.024,1.296,0.083c0.469,0.065,0.933,0.159,1.404,0.211
			c1.195,0.133,2.349,0.493,3.535,0.68c2.102,0.33,4.213-0.193,6.313-0.304c3.221-0.17,6.464-0.326,9.678,0.023
			c1.208,0.131,2.384,0.536,3.597,0.574c1.576,0.05,3.329-0.291,4.74-1.01c0.796-0.406,1.717-0.347,2.591-0.316
			c0.976,0.035,1.955,0.01,2.932,0.021c2.056,0.023,4.112,0.08,6.167,0.155c4.092,0.149,8.182,0.366,12.275,0.493
			c2.279,0.07,4.558,0.111,6.837,0.097c0.703-0.004,1.406,0.036,2.106,0.101c0.802,0.074,1.529,0.119,2.29,0.415
			c0.396,0.154,0.809,0.076,1.223,0.069c0.427-0.007,0.858,0.03,1.284,0.057c0.949,0.062,1.896,0.158,2.839,0.282
			c1.881,0.246,3.747,0.59,5.607,0.96c1.059,0.211,2.115,0.431,3.173,0.647c1.13,0.23,2.258,0.464,3.388,0.689
			c3.862,0.769,7.492,1.732,11.482,1.419c5.878-0.461,11.76-1.943,17.683-1.245c0.707,0.083,1.457-0.118,2.162-0.03
			c0.596,0.075,0.891,0.318,1.543,0.305c3.723-0.076,11.84,0.634,13.097,5.076c3.496-0.682,6.702,0.21,10.124,0.037
			c0.854-0.043,1.547-0.332,2.416-0.33c3.586,0.006,7.382-0.501,10.923,0.316c1.643,0.379,3.296,0.792,4.933,1.195
			c5.163,1.276,10.687-0.57,15.698,1.46c1.973,0.8,4,1.462,6.052,2.026c1.606,0.442,3.228,0.824,4.858,1.173
			c2.106,0.451,4.538,0.631,6.411,1.782c0.774,0.476,1.467,1.206,2.105,1.848c0.596,0.601,0.907,1.504,0.234,2.202
			c-0.167,0.174-0.44,0.281-0.636,0.419c1.642,0.167,3.576-0.113,5.318-0.008c1.627,0.099,3.241,0.341,4.858,0.543
			c3.072,0.383,6.168-0.324,9.238,0.094c3.766,0.512,7.492,0.533,11.282,0.419c2.038-0.061,4.285-1.26,6.326-1.253
			c3.713,0.011,7.12,1.28,10.801,1.686c4.646,0.513,8.979,2.134,13.698,2.353c7.083,0.329,14.187-0.553,21.214-1.326
			c3.655-0.402,7.334-0.539,10.994-0.884C408.762,32.598,395.413,38.638,373.151,32.681z M292.99,19.204
			c-0.322,0.23-0.94,0.238-1.556,0.177c-0.57-0.056-1.137-0.17-1.46-0.222c-2.836-0.446-5.183-2.096-8.16-1.614
			c-1.578,0.255-3.12-0.204-4.685-0.324c-1.638-0.125-3.28,0.007-4.919-0.018c-0.999-0.015-1.879-0.473-2.838-0.68
			c-0.719-0.156-1.824-0.393-2.561-0.338c0.552-0.133,1.177,0.058,1.74,0.067c0.628,0.011,1.257-0.021,1.884-0.042
			c1.996-0.066,4,0.202,5.993,0.049c1.674-0.129,3.255-0.076,4.926,0.034c1.411,0.094,2.773,0.565,4.118,0.963
			c2.142,0.632,4.447,0.647,6.616,1.258C292.442,18.611,293.54,18.811,292.99,19.204z"/>
		<linearGradient id="SVGID_6_" gradientUnits="userSpaceOnUse" x1="800.7766" y1="32.8537" x2="-0.7692" y2="31.9681">
			<stop  offset="0" style="stop-color:#5CD4E6"/>
			<stop  offset="0.5746" style="stop-color:#BCEDF5"/>
			<stop  offset="1" style="stop-color:#FFFFFF"/>
		</linearGradient>
		<path class="st6" d="M484.599,32.317c-0.497,0.091-0.964-0.151-1.451-0.2c-0.491-0.05-0.964,0.134-1.433,0.245
			c-0.167,0.04-0.881,0.038-0.932,0.251c-0.029,0.125,0.143,0.141,0.229,0.153c0.585,0.085,1.113,0.098,1.701,0.052
			c0.764-0.06,1.529,0.268,2.26-0.09c0.044-0.022,0.284-0.132,0.358-0.224C485.446,32.359,484.698,32.299,484.599,32.317z"/>
		<linearGradient id="SVGID_7_" gradientUnits="userSpaceOnUse" x1="800.7886" y1="23.016" x2="-0.7629" y2="22.1303">
			<stop  offset="0" style="stop-color:#5CD4E6"/>
			<stop  offset="0.5746" style="stop-color:#BCEDF5"/>
			<stop  offset="1" style="stop-color:#FFFFFF"/>
		</linearGradient>
		<path class="st7" d="M481.292,33.838c-0.787-0.211-1.536-0.147-2.339-0.104c-1.342,0.07-2.63-0.362-3.954-0.483
			c-0.882-0.08-1.771-0.064-2.657-0.042c-0.575,0.015-1.15,0.03-1.725,0.028c-1.655-0.007-3.313,0.032-4.968,0.006
			c-3.323-0.051-6.628-0.501-9.95-0.54c-1.355-0.022-2.715,0-4.065,0.129c-1.605,0.154-3.193,0.603-4.817,0.476
			c-1.143-0.089-2.272-0.3-3.419-0.376c-3.119-0.205-6.23-0.533-9.358-0.578c-1.958-0.028-3.916-0.32-5.871-0.265
			c-5.224,0.147-10.206-1.29-15.344-1.912c-3.693-0.447-7.41-0.635-11.118-0.903c-4.085-0.296-8.143-1.026-12.249-0.981
			c-1.865,0.021-3.749-0.729-5.556-1.171c-3.968-0.97-8.035-1.453-12.033-2.275c-4.121-0.847-8.209-1.855-12.353-2.586
			c-9.214-1.627-18.399-3.357-27.573-5.201c-0.683-0.138-1.364-0.171-2.048-0.265c-4.116-0.558-8.065-1.724-12.113-2.594
			c-2.44-0.525-4.918-0.847-7.352-1.403c-2.331-0.534-4.659-1.069-7.009-1.517c-7.203-1.373-14.394-1.918-21.676-2.632
			c-7.268-0.714-14.563-1.106-21.858-1.398c-7.32-0.294-14.645-0.488-21.964-0.807c-11.066-0.483-22.107-1.666-33.201-1.293
			c-0.743,0.025-1.486,0.047-2.23,0.067c-6.472,0.174-12.898,0.558-19.355,1.03c-8.25,0.603-16.476,1.629-24.728,2.283
			c-1.229,0.098-2.457,0.206-3.685,0.322c-2.458,0.231-4.914,0.202-7.371,0.446c-2.45,0.243-4.902,0.475-7.357,0.653
			c-2.326,0.17-4.652,0.344-6.977,0.538c-8.053,0.672-16.005,2.142-23.968,3.387c-6.678,1.045-13.393,1.989-19.979,3.532
			c-3.807,0.892-7.393,2.55-11.223,3.351c-3.394,0.71-6.711,1.711-10.06,2.597c-1.176,0.311-2.411,0.348-3.585,0.661
			c-2.837,0.757-5.866,0.609-8.589,1.815c-0.761,0.336-1.402,1.055-2.17,1.291c-0.932,0.286-1.899,0.024-2.845-0.005
			c-0.882-0.025-1.732,0.167-2.578,0.406c-1.914,0.542-3.72,1.416-5.653,1.892c-0.82,0.202-1.648,0.372-2.475,0.545
			c-1.192,0.25-2.422,0.413-3.596,0.728c-0.732,0.196-1.489,0.263-2.239,0.357c-0.687,0.085-1.353,0.283-2.037,0.368
			c-0.904,0.111-1.812,0.218-2.705,0.398c-0.833,0.168-1.618,0.507-2.447,0.686c-0.755,0.164-1.529,0.188-2.293,0.286
			c-2.658,0.342-5.258,1.222-7.868,1.714c-1.541,0.29-3.088,0.522-4.605,0.928c-0.733,0.197-1.454,0.431-2.183,0.639
			c-1.191,0.34-2.46,0.545-3.671,0.817c-1.301,0.291-2.614,0.532-3.903,0.874C1.566,37.959,0.783,38.148,0,38.338v1.077
			c1.862-0.716,3.856-1.077,5.796-1.517c0.53,0,1.154-0.255,1.674-0.364c0.655-0.137,1.313-0.268,1.971-0.392
			c2.09-0.395,4.176-0.688,6.253-1.165c1.447-0.333,2.839-0.754,4.31-0.991c1.335-0.214,2.659-0.485,3.992-0.694
			c2.024-0.316,4.088-0.477,6.079-0.977c1.424-0.357,2.892-0.667,4.345-0.882c1.496-0.221,3.013-0.309,4.493-0.637
			c0.883-0.195,1.766-0.395,2.633-0.654c0.776-0.23,1.523-0.555,2.331-0.659c1.187-0.151,2.359-0.596,3.517-0.887
			c0.799-0.201,1.598-0.4,2.399-0.596c0.799-0.195,1.599-0.386,2.4-0.571c1.135-0.283,2.288-0.514,3.435-0.746
			c1.747-0.352,3.507-0.63,5.271-0.885c2.833-0.408,5.659-0.82,8.466-1.382c2.817-0.564,5.636-1.224,8.407-1.93
			c4.852-1.234,9.91-1.981,14.598-3.771c0.675-0.258,1.376-0.385,2.051-0.653c3.602-1.428,6.893-2.219,10.661-3.134
			c1.032-0.251,2.089-0.398,3.144-0.507c0.574-0.059,1.149-0.105,1.725-0.141c0.539-0.034,1.166-0.148,1.701-0.071
			c0.174,0.026,0.332,0.043,0.512,0.044c0.177,0.001,0.283-0.05,0.448-0.078c0.136-0.024,0.309,0.002,0.448,0.004
			c4.193,0.055,8.374-0.401,12.494-1.154c3.076-0.562,6.148-1.248,9.27-1.504c3.063-0.25,6.113,0.13,9.163,0.379
			c2.747,0.225,5.519,0.066,8.245-0.313c1.49-0.207,2.874-0.777,4.345-1.055c4.436-0.836,8.62-1.746,13.166-1.81
			c2.747-0.039,5.489-0.073,8.236-0.017c2.679,0.055,5.315-0.492,7.941-0.946c1.319-0.228,2.643-0.434,3.979-0.531
			c0.668-0.048,1.338-0.068,2.008-0.05c1.822,0.049,3.596-0.231,5.411-0.209c1.668,0.019,3.328,0.224,4.969,0.516
			c0.345,0.061,0.706,0.058,1.046,0.125c0.679,0.136,1.339,0.228,1.988,0.288c-0.215,0.12-3.567,0.886-4.036,1.27
			c-0.214,0.176-1.068,0.461-1.095,0.752c-0.042,0.447,3.426,0.543,3.726,0.575c1.039,0.114,2.029,0.281,3.084,0.34
			c1.495,0.083,2.947-0.526,4.439-0.497c0.965,0.019,1.566-0.045,1.272-1.249c-0.213-0.874-1.529-1.117-2.574-1.308
			c0.779-0.094,1.572-0.215,2.391-0.356c2.744-0.468,5.541-0.486,8.316-0.341c4.994,0.263,9.956,0.892,14.958,1.104
			c5.163,0.219,10.332,0.256,15.499,0.312c2.711,0.029,5.416-0.222,8.121-0.352c1.387-0.067,2.777-0.107,4.166-0.07
			c0.63,0.017,1.215,0.189,1.841,0.176c0.767-0.017,1.506-0.33,2.272-0.379c2.838-0.18,6.091-0.106,8.86,0.566
			c1.548,0.375,3.15,0.324,4.723,0.511c1.347,0.16,2.589,0.658,3.905,0.949c0.938,0.207,1.923,0.098,2.867,0.214
			c6.018,0.735,11.937,0.76,17.843,2.328c2.432,0.646,4.872,1.26,7.322,1.839c2.496,0.589,4.994,1.173,7.496,1.742
			c8.833,2.008,17.878,3.298,26.619,5.67c1.749,0.475,3.501,0.906,5.216,1.501c0.47,0.163,0.938,0.332,1.405,0.506
			c1.817,0.677,3.26,1.122,4.962,2.123c0.997,0.587,2.049,0.967,3.087,1.473c3.246,1.577,6.767,2.597,10.066,4.052
			c0.984,0.433,2.049,0.627,3.049,1.012c0.503,0.194,1.011,0.214,1.526,0.346c0.504,0.129,1.012,0.289,1.523,0.388
			c1.354,0.261,2.73,0.372,4.077,0.694c3.571,0.853,6.826,1.027,10.493,1.192c3.666,0.164,7.416,1.302,10.925,2.602
			c-0.934-0.476-1.853-1.023-2.768-1.367c-1.749-0.658-3.646-1.08-5.491-1.509c-4.313-1.005-8.771-1.014-13.07-2.127
			c-5.84-1.511-11.187-3.925-16.882-5.804c-2.757-0.909-5.613-2.08-8.038-3.676c1.482,0.004,2.86,1.042,4.234,1.488
			c1.688,0.548,3.479,0.866,5.217,1.202c3.553,0.688,7.146,1.208,10.634,2.193c3.919,1.108,8.082,1.778,12.079,2.555
			c1.731,0.336,3.489,0.494,5.234,0.738c3.469,0.484,6.773,0.057,10.236-0.07c3.52-0.128,6.942,0.813,10.42,1.171
			c1.398,0.144,2.8,0.229,4.204,0.283c3.336,0.124,6.675,0.146,10.011,0.255c3.9,0.128,7.786,0.477,11.684,0.642
			c3.915,0.166,7.817,0.253,11.734,0.314c3.855,0.06,7.669-0.246,11.518-0.33c1.866-0.041,3.727-0.132,5.591-0.216
			c0.618-0.028,1.235-0.05,1.853-0.077c0.381-0.017,0.762-0.037,1.144-0.061c0.343-0.023,0.708-0.102,1.052-0.076
			c0.189,0.014,0.352,0.053,0.552,0.016c0.915-0.169,1.85-0.175,2.774-0.254c0.581-0.049,1.176,0,1.757,0.014
			c0.624,0.014,1.25,0.037,1.868,0.124c0.451,0.064,0.902,0.008,1.352,0.064C482.13,34.062,481.707,33.949,481.292,33.838z"/>
		<linearGradient id="SVGID_8_" gradientUnits="userSpaceOnUse" x1="800.8005" y1="12.6821" x2="-0.7487" y2="11.7965">
			<stop  offset="0" style="stop-color:#5CD4E6"/>
			<stop  offset="0.5746" style="stop-color:#BCEDF5"/>
			<stop  offset="1" style="stop-color:#FFFFFF"/>
		</linearGradient>
		<path class="st8" d="M251.947,12.776c-0.887-0.32-1.767-0.252-2.684-0.332c-1.36-0.118-2.6-0.724-3.936-0.939
			c-1.034-0.166-2.074-0.277-3.105-0.464c-0.517-0.093-4.011-0.871-3.354,0.69c0.227,0.538,0.827,0.79,1.518,0.906
			c0.901,0.151,1.957,0.069,2.538,0.083c1.866,0.043,3.695,0.485,5.555,0.618c1.103,0.079,2.21,0.033,3.281-0.256
			C251.995,13.017,252.366,12.926,251.947,12.776z"/>
		<linearGradient id="SVGID_9_" gradientUnits="userSpaceOnUse" x1="800.8022" y1="11.1761" x2="-0.7463" y2="10.2905">
			<stop  offset="0" style="stop-color:#5CD4E6"/>
			<stop  offset="0.5746" style="stop-color:#BCEDF5"/>
			<stop  offset="1" style="stop-color:#FFFFFF"/>
		</linearGradient>
		<path class="st9" d="M234.347,11.236c-0.765-0.257-1.535-0.501-2.292-0.784c-0.843-0.316-1.575-0.692-2.488-0.807
			c-3.02-0.378-6.033,0.349-9.056,0.247c-1.692-0.057-3.762-0.607-5.293,0.369c-0.534,0.344,0.436,0.437,0.643,0.451
			c1.688,0.115,3.417-0.215,5.107-0.245c1.876-0.033,3.733,0.27,5.59,0.494c1.843,0.222,3.715,0.124,5.548,0.385
			c0.529,0.076,1.058,0.165,1.591,0.206C234.063,11.579,235.251,11.539,234.347,11.236z"/>
		<linearGradient id="SVGID_10_" gradientUnits="userSpaceOnUse" x1="800.7964" y1="16.2427" x2="-0.7517" y2="15.3571">
			<stop  offset="0" style="stop-color:#5CD4E6"/>
			<stop  offset="0.5746" style="stop-color:#BCEDF5"/>
			<stop  offset="1" style="stop-color:#FFFFFF"/>
		</linearGradient>
		<path class="st10" d="M307.149,16.587c-2.158-0.65-4.462-0.707-6.592-1.378c-1.338-0.423-2.691-0.918-4.1-1.038
			c-1.668-0.14-3.248-0.222-4.925-0.123c-1.995,0.117-3.993-0.187-5.991-0.158c-0.628,0.009-1.349-0.101-1.069,0.293
			c0.18,0.252,1.827,0.699,2.825,0.732c1.638,0.054,3.283-0.048,4.918,0.107c1.562,0.149,3.096,0.637,4.678,0.41
			c2.985-0.426,5.302,1.266,8.129,1.763c0.322,0.058,0.887,0.182,1.456,0.249c0.614,0.071,1.233,0.075,1.559-0.149
			C308.595,16.913,307.501,16.693,307.149,16.587z"/>
		
			<linearGradient id="SVGID_11_" gradientUnits="userSpaceOnUse" x1="849.0296" y1="58.9801" x2="47.4795" y2="58.0945" gradientTransform="matrix(0.9997 -0.0237 0.0237 0.9997 -26.2927 -8.7452)">
			<stop  offset="0" style="stop-color:#5CD4E6"/>
			<stop  offset="0.5746" style="stop-color:#BCEDF5"/>
			<stop  offset="1" style="stop-color:#FFFFFF"/>
		</linearGradient>
		<path class="st11" d="M533.427,42.643c-14.274,0.187-28.527-0.728-42.769-1.576c-3.28-0.196-6.558-0.429-9.836-0.685
			c-1.616-0.126-3.233-0.257-4.849-0.394c-0.095-0.009-0.192-0.016-0.287-0.025c-3.589-0.307-7.177-0.639-10.764-0.984
			c-0.517-0.05-1.032-0.1-1.549-0.15c-1.081-0.105-2.162-0.211-3.244-0.317c-17.058-1.686-34.101-3.551-51.176-4.321
			c-18.593-0.839-37.444-3.431-55.951-3.88c-3.046-0.074-6.091-0.122-9.137-0.149c-9.464-0.084-18.928,0.046-28.389,0.284
			c-4.718,0.118-9.435,0.264-14.151,0.423c-1.888,0.064-3.67,0.678-5.579,0.655c-3.795-0.046-7.438-0.47-11.242-0.02
			c-0.312,0.036-0.759-0.087-0.992,0.177c0.288,0.185,0.673,0.147,0.998,0.201c0.964,0.159,1.947,0.02,2.914,0.14
			c0.752,0.093,1.496,0.243,2.247,0.338c0.405,0.052,0.81,0.087,1.221,0.089c5.129,0.029,10.352,0.764,15.382,1.739
			c7.005,1.358,13.915,2.885,21.087,3.004c7.344,0.121,14.268-2.229,21.505-2.32c0.926-0.012,1.868-0.075,2.792-0.04
			c0.543,0.02,2.023,0.287,2.223,0.92c0.19,0.606-0.7,1.272-1.077,1.598c-0.723,0.623-1.49,1.199-2.299,1.705
			c-2.324,1.457-4.937,2.009-7.608,2.465c-3.43,0.586-6.868,1.119-10.319,1.56c-3.066,0.393-6.134,0.767-9.214,1.024
			c1.675,0.007,3.88-0.018,5.195-0.034c9.453-0.111,19.64-1.586,28.931-3.411c6.249-1.228,11.803-2.033,18.194-2.39
			c5.43-0.304,10.86,0.01,16.294,0.543c0.168-0.392,0.575-0.704,1.038-0.79c0.803-0.148,1.777-0.174,2.591-0.13
			c0.485,0.027,0.97,0.136,1.454,0.197c0.86,0.105,1.718,0.185,2.567,0.352c0.828,0.163,1.656,0.355,2.504,0.354
			c0.584,0,1.154-0.052,1.713-0.232c1.372-0.444,2.806-0.531,4.238-0.418c0.343,0.027,3.629,0.293,3.382,0.849
			c-0.141,0.318-1.067,0.215-1.339,0.234c-1.306,0.09-2.594,0.336-3.848,0.707c-0.267,0.079-0.533,0.164-0.797,0.254
			c-0.118,0.041-0.235,0.083-0.352,0.126c6.186,0.711,12.376,1.288,18.575,1.144c12.756-0.296,25.147-2.483,37.909-2.4
			c0.891,0.057,1.781,0.121,2.663,0.247c1.39,0.199,2.762,0.494,4.162,0.619c0.964,0.086,1.928,0.169,2.892,0.243
			c2.759,0.21,7.167,0.322,8.316,0.311c1.147-0.009,3.627,0.525,5.433,0.826c6.078,1.01,12.303,3.162,18.458,3.453
			c6.949,0.328,13.585,3.024,20.49,3.228c5.549,0.164,10.729-1.954,16.084-3.043c5.236-1.066,9.645-0.839,14.927-1.073
			c6.833-0.303,11.982-1.571,18.815-1.732c6.45-0.152,17.708,0.148,23.279-0.663c0.813-0.119,4.427-0.811,5.443-1.309
			C579.551,42.08,556.291,42.345,533.427,42.643z M370.505,35.008c-0.22,0.283-0.942,0.625-1.075,0.693
			c-2.201,1.11-4.528,0.146-6.84,0.353c-1.774,0.159-3.378,0.14-5.15-0.099c-0.259-0.034-0.781-0.075-0.696-0.453
			c0.147-0.649,2.305-0.667,2.812-0.793c1.415-0.352,2.84-0.924,4.325-0.792c1.476,0.132,2.9,0.847,4.402,0.555
			C368.582,34.413,370.849,34.568,370.505,35.008z"/>
		
			<linearGradient id="SVGID_12_" gradientUnits="userSpaceOnUse" x1="849.0525" y1="38.6049" x2="47.5015" y2="37.7193" gradientTransform="matrix(0.9997 -0.0237 0.0237 0.9997 -26.2927 -8.7452)">
			<stop  offset="0" style="stop-color:#5CD4E6"/>
			<stop  offset="0.5746" style="stop-color:#BCEDF5"/>
			<stop  offset="1" style="stop-color:#FFFFFF"/>
		</linearGradient>
		<path class="st12" d="M575.254,18.986c-8.687,0.113-17.36-0.443-26.027-0.96c-1.996-0.119-3.991-0.261-5.985-0.417
			c-0.984-0.076-1.967-0.156-2.951-0.24c-0.059-0.005-0.116-0.01-0.175-0.015c-2.184-0.187-4.368-0.388-6.55-0.599
			c-0.315-0.03-0.629-0.061-0.943-0.091c-0.658-0.064-1.317-0.128-1.975-0.193c-10.38-1.027-20.752-2.161-31.142-2.63
			c-11.315-0.51-22.787-2.088-34.049-2.361c-1.854-0.045-3.707-0.075-5.56-0.091c-5.759-0.051-11.519,0.028-17.276,0.173
			c-2.871,0.072-5.741,0.161-8.611,0.258c-1.149,0.039-2.626,0.214-3.787,0.2c-2.31-0.028-4.066-0.24-6.38,0.033
			c-0.19,0.023-0.586,0.076-0.728,0.236c0.176,0.112,0.465,0.113,0.663,0.146c0.586,0.097,1.185,0.012,1.773,0.085
			c0.458,0.057,0.911,0.148,1.368,0.206c0.246,0.032,0.493,0.053,0.742,0.054c3.122,0.017,6.3,0.465,9.361,1.058
			c4.263,0.827,8.468,1.756,12.832,1.828c4.47,0.075,8.683-1.356,13.086-1.412c0.564-0.008,1.138-0.045,1.7-0.025
			c0.331,0.012,1.231,0.174,1.353,0.56c0.115,0.369-0.426,0.774-0.655,0.972c-0.44,0.379-0.907,0.73-1.399,1.038
			c-1.415,0.887-3.005,1.222-4.63,1.5c-2.087,0.357-4.179,0.681-6.28,0.95c-1.865,0.239-3.732,0.466-5.607,0.623
			c1.02,0.004,2.361-0.011,3.162-0.021c5.751-0.068,11.951-0.965,17.605-2.076c3.803-0.747,7.182-1.237,11.072-1.454
			c3.305-0.185,6.609,0.006,9.915,0.33c0.103-0.238,0.351-0.428,0.632-0.481c0.489-0.09,1.081-0.106,1.577-0.079
			c0.296,0.016,0.591,0.083,0.885,0.12c0.523,0.064,1.045,0.113,1.562,0.214c0.503,0.099,1.007,0.215,1.523,0.215
			c0.356,0,0.703-0.031,1.042-0.141c0.835-0.27,1.708-0.323,2.579-0.254c0.209,0.017,2.208,0.179,2.058,0.517
			c-0.085,0.194-0.649,0.131-0.814,0.142c-0.796,0.055-1.579,0.204-2.342,0.43c-0.163,0.048-0.324,0.1-0.485,0.154
			c-0.072,0.025-0.143,0.051-0.214,0.076c3.763,0.433,7.531,0.784,11.303,0.696c7.762-0.18,15.303-1.511,23.069-1.46
			c0.542,0.034,1.083,0.074,1.62,0.151c0.846,0.121,1.681,0.3,2.534,0.376c0.586,0.052,1.173,0.103,1.759,0.148
			c1.68,0.128,4.362,0.195,5.061,0.189c0.699-0.006,2.208,0.32,3.307,0.503c3.698,0.615,7.487,1.924,11.232,2.102
			c4.228,0.2,8.266,1.84,12.469,1.964c3.377,0.1,6.529-1.188,9.787-1.851c3.186-0.649,6.271-0.158,9.485-0.3
			c4.159-0.184,8.309,0.3,12.467,0.202c3.925-0.093,7.15-1.359,11.002-2.06c0.997-0.181,2.585-0.14,3.579-0.367
			c0.487-0.112-1.968-0.11-3.695,0.004C599.844,18.683,587.456,18.827,575.254,18.986z M572.252,20.97
			c-0.099,0.147-0.416,0.031-0.564,0.053c-0.464,0.071-0.932,0.123-1.401,0.133c-0.229,0.004-0.458,0-0.687-0.021
			c-0.232-0.021-0.45,0.012-0.679,0.001c-0.15-0.007-0.296-0.066-0.442-0.096c-0.287-0.061-0.569,0.021-0.856,0.016
			c-0.301-0.005-0.58-0.125-0.85-0.244c-0.311-0.137-0.672-0.175-1.001-0.263c-0.11-0.029-0.222-0.044-0.335-0.063
			c-0.047-0.008-0.1-0.008-0.146-0.022c-0.031-0.009-0.054-0.015-0.07-0.043c0.076-0.078,0.218-0.033,0.32-0.052
			c0.13-0.024,0.26-0.057,0.389-0.091c0.363-0.097,0.721-0.229,1.042-0.425c0.403-0.247,0.972-0.145,1.421-0.097
			c0.605,0.064,1.142,0.452,1.742,0.571c0.515,0.102,1.049,0.172,1.57,0.307c0.057,0.015,0.114,0.028,0.174,0.038
			C572.004,20.691,572.408,20.738,572.252,20.97z"/>
		<linearGradient id="SVGID_13_" gradientUnits="userSpaceOnUse" x1="800.7972" y1="18.9239" x2="-0.7586" y2="18.0382">
			<stop  offset="0" style="stop-color:#5CD4E6"/>
			<stop  offset="0.5746" style="stop-color:#BCEDF5"/>
			<stop  offset="1" style="stop-color:#FFFFFF"/>
		</linearGradient>
		<path class="st13" d="M317.647,19.054c0.017-0.221-0.343-0.524-0.528-0.593c-0.241-0.09-0.514-0.024-0.765-0.068
			c-0.765-0.131-1.548-0.117-2.257-0.464c-0.503-0.247-0.91-0.467-1.47-0.442c-0.571,0.026-1.144,0.035-1.716,0.054
			c-0.008,0-0.018,0.002-0.027,0.002c0.031,0.009,0.063,0.016,0.094,0.026c0.235,0.076,0.475,0.184,0.647,0.367
			c0.214,0.226,0.339,0.651,0.654,0.805c0.27,0.13,0.655,0.186,0.931,0.051c0.138-0.068,0.237-0.2,0.376-0.264
			c0.188-0.086,0.384-0.079,0.578-0.027c0.33,0.089,0.658,0.309,0.935,0.433c0.619,0.274,1.234,0.029,1.872,0.178
			C317.183,19.162,317.612,19.513,317.647,19.054z"/>
		<linearGradient id="SVGID_14_" gradientUnits="userSpaceOnUse" x1="800.7908" y1="20.2423" x2="-0.7567" y2="19.3567">
			<stop  offset="0" style="stop-color:#5CD4E6"/>
			<stop  offset="0.5746" style="stop-color:#BCEDF5"/>
			<stop  offset="1" style="stop-color:#FFFFFF"/>
		</linearGradient>
		<path class="st14" d="M322.758,19.444c-0.391-0.24-0.873-0.111-1.305-0.172c-0.377-0.052-1.001-0.367-1.377-0.206
			c-0.514,0.22,0.373,0.538,0.657,0.661c0.6,0.261,1.25,0.418,1.872,0.611C323.581,20.64,323.414,19.849,322.758,19.444z"/>
		<linearGradient id="SVGID_15_" gradientUnits="userSpaceOnUse" x1="800.7825" y1="20.4381" x2="-0.7512" y2="19.5525">
			<stop  offset="0" style="stop-color:#5CD4E6"/>
			<stop  offset="0.5746" style="stop-color:#BCEDF5"/>
			<stop  offset="1" style="stop-color:#FFFFFF"/>
		</linearGradient>
		<path class="st15" d="M325.297,19.582c0.368,0.022,0.01,0.298-0.056,0.387c-0.193,0.26,0.014,0.361,0.255,0.42
			c0.207,0.051,0.352,0.032,0.572,0.122c0.094,0.039,0.242,0.138,0.347,0.118c0.123-0.024,0.13-0.124,0.22-0.179
			c0.156-0.097,0.359-0.116,0.258-0.366c-0.083-0.207-0.307-0.302-0.503-0.377c-0.206-0.079-0.35-0.17-0.502-0.304
			c-0.149-0.131-0.451-0.39-0.519,0L325.297,19.582z"/>
		<linearGradient id="SVGID_16_" gradientUnits="userSpaceOnUse" x1="800.7824" y1="30.1498" x2="-0.7693" y2="29.2642">
			<stop  offset="0" style="stop-color:#5CD4E6"/>
			<stop  offset="0.5746" style="stop-color:#BCEDF5"/>
			<stop  offset="1" style="stop-color:#FFFFFF"/>
		</linearGradient>
		<path class="st16" d="M293.743,30.034c0.299,0.01,0.598,0.025,0.895,0.012c0.194-0.008,0.383,0.026,0.576-0.005
			c0.339-0.055,0.622-0.18,0.975-0.139c0.188,0.022,0.642,0.117,0.607-0.206c-0.02-0.189-0.373-0.39-0.54-0.419
			c-0.218-0.038-0.44,0.06-0.658,0.064c-0.204,0.002-0.345-0.077-0.613-0.013c-0.506,0.121-0.89,0.108-1.371-0.027
			c-0.37-0.103-0.743-0.205-1.132-0.176c-0.368,0.028-0.722,0.147-1.089,0.184c-0.408,0.041-0.913-0.088-1.301,0.032
			c-0.307,0.095-0.009,0.201,0.147,0.242c0.298,0.078,0.614,0.09,0.897,0.225c0.546,0.26,1.176,0.272,1.768,0.229
			C293.18,30.016,293.462,30.023,293.743,30.034z"/>
		<linearGradient id="SVGID_17_" gradientUnits="userSpaceOnUse" x1="800.7645" y1="43.2962" x2="-0.7817" y2="42.4106">
			<stop  offset="0" style="stop-color:#5CD4E6"/>
			<stop  offset="0.5746" style="stop-color:#BCEDF5"/>
			<stop  offset="1" style="stop-color:#FFFFFF"/>
		</linearGradient>
		<path class="st17" d="M322.623,42.266c-0.452-0.079-0.853,0.219-1.276,0.323c-0.369,0.091-1.066,0.031-1.355,0.319
			c-0.396,0.395,0.545,0.361,0.856,0.37c0.653,0.02,1.316-0.074,1.965-0.126C323.831,43.072,323.383,42.399,322.623,42.266z"/>
		<linearGradient id="SVGID_18_" gradientUnits="userSpaceOnUse" x1="800.7617" y1="42.2079" x2="-0.7775" y2="41.3223">
			<stop  offset="0" style="stop-color:#5CD4E6"/>
			<stop  offset="0.5746" style="stop-color:#BCEDF5"/>
			<stop  offset="1" style="stop-color:#FFFFFF"/>
		</linearGradient>
		<path class="st18" d="M325.116,41.277c-0.077,0.025-0.157,0.057-0.243,0.097c-0.112,0.053-0.52,0.21-0.265,0.321
			c0.145,0.063,0.319-0.05,0.464,0.025c0.168,0.085,0.256,0.246,0.401,0.356c0.2,0.151,0.41,0.1,0.637,0.047
			c0.258-0.059,0.515-0.15,0.569-0.436c0.115-0.621-0.657-0.484-1.008-0.485C325.456,41.201,325.291,41.221,325.116,41.277z"/>
		<linearGradient id="SVGID_19_" gradientUnits="userSpaceOnUse" x1="800.8005" y1="11.641" x2="-0.7476" y2="10.7554">
			<stop  offset="0" style="stop-color:#5CD4E6"/>
			<stop  offset="0.5746" style="stop-color:#BCEDF5"/>
			<stop  offset="1" style="stop-color:#FFFFFF"/>
		</linearGradient>
		<path class="st19" d="M280.319,11.757c-0.672,0.007-1.43-0.173-1.854-0.229c-1.361-0.181-2.741-0.069-4.107-0.184
			c-0.81-0.069-3.404-0.076-4.15-0.409c-0.163-0.073-0.422-0.181-0.101-0.242c0.681-0.131,3.108-0.134,3.783-0.087
			c1.002,0.069,1.972-0.23,2.968-0.234c0.77-0.003,1.539,0.035,2.309,0.017c0.386-0.009,3.014-0.176,2.358,0.884
			C281.299,11.636,280.834,11.751,280.319,11.757z"/>
		<linearGradient id="SVGID_20_" gradientUnits="userSpaceOnUse" x1="800.7878" y1="20.9369" x2="-0.7556" y2="20.0513">
			<stop  offset="0" style="stop-color:#5CD4E6"/>
			<stop  offset="0.5746" style="stop-color:#BCEDF5"/>
			<stop  offset="1" style="stop-color:#FFFFFF"/>
		</linearGradient>
		<path class="st20" d="M321.95,20.59c0.113,0.031,0.217,0.074,0.302,0.138c0.465,0.355-0.107,0.315-0.36,0.348
			c-0.849,0.107-1.686-0.039-2.533-0.023c-0.512,0.01-1.319,0.214-1.707-0.238c-0.137-0.159-0.218-0.311-0.238-0.521
			c-0.131-1.353,3.221-0.001,3.682,0.138C321.336,20.504,321.672,20.512,321.95,20.59z"/>
		<linearGradient id="SVGID_21_" gradientUnits="userSpaceOnUse" x1="800.7901" y1="22.933" x2="-0.761" y2="22.0474">
			<stop  offset="0" style="stop-color:#5CD4E6"/>
			<stop  offset="0.5746" style="stop-color:#BCEDF5"/>
			<stop  offset="1" style="stop-color:#FFFFFF"/>
		</linearGradient>
		<path class="st21" d="M328.094,22.299c0.115,0.027,0.235,0.066,0.348,0.109c0.094,0.036,0.245,0.079,0.321,0.145
			c0.331,0.29-0.639,0.298-0.77,0.257c-0.369-0.117-0.832-0.323-1.166-0.519c-0.255-0.15-0.058-0.24,0.124-0.284
			c0.236-0.057,0.343,0.092,0.553,0.128C327.704,22.169,327.896,22.252,328.094,22.299z"/>
		<linearGradient id="SVGID_22_" gradientUnits="userSpaceOnUse" x1="800.7838" y1="23.3641" x2="-0.7574" y2="22.4785">
			<stop  offset="0" style="stop-color:#5CD4E6"/>
			<stop  offset="0.5746" style="stop-color:#BCEDF5"/>
			<stop  offset="1" style="stop-color:#FFFFFF"/>
		</linearGradient>
		<path class="st22" d="M333.102,23.157c-0.186,0.05-0.327-0.053-0.48-0.154c-0.03-0.02-0.061-0.04-0.092-0.059
			c-0.097-0.057-0.706-0.278-0.592-0.392c0.085-0.084,0.508,0.035,0.606,0.054C332.763,22.651,333.839,22.964,333.102,23.157z"/>
		<linearGradient id="SVGID_23_" gradientUnits="userSpaceOnUse" x1="800.8095" y1="16.3612" x2="-0.7616" y2="15.4755">
			<stop  offset="0" style="stop-color:#5CD4E6"/>
			<stop  offset="0.5746" style="stop-color:#BCEDF5"/>
			<stop  offset="1" style="stop-color:#FFFFFF"/>
		</linearGradient>
		<path class="st23" d="M310.176,15.728c0.027-0.055,0.062-0.114,0.106-0.176c0.509-0.716,1.928-0.712,1.624,0.414
			C311.615,17.041,309.783,16.54,310.176,15.728z"/>
		<linearGradient id="SVGID_24_" gradientUnits="userSpaceOnUse" x1="800.8008" y1="14.3138" x2="-0.7524" y2="13.4282">
			<stop  offset="0" style="stop-color:#5CD4E6"/>
			<stop  offset="0.5746" style="stop-color:#BCEDF5"/>
			<stop  offset="1" style="stop-color:#FFFFFF"/>
		</linearGradient>
		<path class="st24" d="M306.61,13.398c0.281,0.312,0.508,0.661,0.805,0.994c0.136,0.151,0.723,0.457,0.71,0.672
			c-0.02,0.33-0.953,0.033-1.175,0.023c-0.768-0.035-1.506-0.027-2.279-0.104c-1.096-0.11-2.082-0.718-3.169-0.867
			c-0.703-0.096-1.133-0.212-0.782-1.053c0.343-0.821,2.008-0.585,2.718-0.698c0.905-0.144,1.817,0.042,2.59,0.534
			C306.258,13.043,306.444,13.214,306.61,13.398z"/>
		<linearGradient id="SVGID_25_" gradientUnits="userSpaceOnUse" x1="800.8025" y1="12.5492" x2="-0.7495" y2="11.6636">
			<stop  offset="0" style="stop-color:#5CD4E6"/>
			<stop  offset="0.5746" style="stop-color:#BCEDF5"/>
			<stop  offset="1" style="stop-color:#FFFFFF"/>
		</linearGradient>
		<path class="st25" d="M298.878,12.899c0.349,0.311-0.367,0.268-0.518,0.254c-1.239-0.11-2.458-0.546-3.683-0.759
			c-1.36-0.238-2.743-0.23-4.118-0.279c-1.364-0.049-2.714-0.333-4.076-0.351c-0.393-0.006-0.787-0.001-1.179-0.033
			c-0.27-0.021-1.128-0.185-0.436-0.303c0.585-0.099,1.173-0.189,1.755-0.309c0.649-0.134,1.223-0.323,1.9-0.303
			c2.237,0.069,4.344,0.941,6.552,1.211C296.31,12.179,297.876,12.015,298.878,12.899z"/>
		<linearGradient id="SVGID_26_" gradientUnits="userSpaceOnUse" x1="800.8044" y1="9.1245" x2="-0.7461" y2="8.2389">
			<stop  offset="0" style="stop-color:#5CD4E6"/>
			<stop  offset="0.5746" style="stop-color:#BCEDF5"/>
			<stop  offset="1" style="stop-color:#FFFFFF"/>
		</linearGradient>
		<path class="st26" d="M372.96,9.379c10.883-1.034,22.903,0.341,34.371,0.159c8.962-0.144,15.099-1.586,26.651-0.839
			c6.439,0.417,21.778,1.044,32.717,0.181c6.36-0.502,31.263-1.668,49.911-0.581c7.284,0.425,17.493-1.437,25.127,0.187
			c3.501,0.746,11.325,0.556,19.959,0.556c4.684,0,8.872-0.049,13.321-0.101c2.764-0.033,9.405-0.727,14.467-0.05
			c7.877-0.079,16.033,0.326,23.956,0.2c8.964-0.144,15.156-1.14,26.71-0.392c6.438,0.417,21.803,1.25,32.742,0.388
			c6.359-0.501,30.954-0.632,50.02,0.006c7.291,0.245,17.248-2.636,24.879-1.012c3.501,0.745,11.324,0.554,19.961,0.554
			c4.68,0,8.982,0.358,13.432,0.306c2.972-0.034,10.429-0.836,15.581,0.125c-4.196-0.261-9.971,0.195-13.661,0.6
			c-2.488,0.274-9.443-0.066-15.335-0.449c-4.521-0.297-10.616,0.74-21.962,0.383c-15.923-0.497-32.736-0.084-45.104,0.213
			c-14.44,0.347-48.85-0.523-59.205,0.003c-11.524,0.587-59.494-0.55-64.56-0.15c-2.496,0.198-9.324,0.559-15.219,0.173
			c-4.522-0.296-10.676,0.399-22.021,0.045c-15.926-0.5-32.855-0.71-45.223-0.413c-14.439,0.347-48.79-0.182-59.145,0.344
			C422.717,10.459,364.724,10.161,372.96,9.379z"/>
	</g>
</g>
</svg>
