<?xml version="1.0" encoding="utf-8"?>
<!-- Generator: Adobe Illustrator 25.2.1, SVG Export Plug-In . SVG Version: 6.00 Build 0)  -->
<svg version="1.1" id="Bubbles" xmlns="http://www.w3.org/2000/svg" xmlns:xlink="http://www.w3.org/1999/xlink" x="0px" y="0px"
	 viewBox="0 0 700 64.971" style="enable-background:new 0 0 700 64.971;" xml:space="preserve">
<style type="text/css">
	.st0{clip-path:url(#SVGID_2_);}
	.st1{fill:url(#SVGID_3_);}
	.st2{fill:url(#SVGID_4_);}
	.st3{fill:url(#SVGID_5_);}
	.st4{fill:url(#SVGID_6_);}
	.st5{fill:url(#SVGID_7_);}
	.st6{fill:url(#SVGID_8_);}
	.st7{fill:url(#SVGID_9_);}
	.st8{fill:url(#SVGID_10_);}
	.st9{fill:url(#SVGID_11_);}
	.st10{fill:url(#SVGID_12_);}
	.st11{fill:url(#SVGID_13_);}
	.st12{fill:url(#SVGID_14_);}
</style>
<g>
	<defs>
		<rect id="SVGID_1_" x="-0.004" width="700" height="64.971"/>
	</defs>
	<clipPath id="SVGID_2_">
		<use xlink:href="#SVGID_1_"  style="overflow:visible;"/>
	</clipPath>
	<g class="st0">
		<g>
			<g>
				
					<radialGradient id="SVGID_3_" cx="354.6288" cy="-334.2631" r="375.7353" gradientTransform="matrix(1 0 0 0.8773 0 297.4066)" gradientUnits="userSpaceOnUse">
					<stop  offset="0" style="stop-color:#FFFFFF"/>
					<stop  offset="0.6727" style="stop-color:#69CFFF"/>
					<stop  offset="1" style="stop-color:#3684B4"/>
				</radialGradient>
				<path class="st1" d="M470.652-12.54c-109.133,0-89.184-3.579-196.157-3.579c-37.988,0-73.39,4.108-125.379,2.529
					C96.875-15.177,35.317-15.142,0-13.801c0,1.121,0,17.877,0,39.53C56.593,11.056,119.419,5.95,127.203,6.049
					c15.685,0.197,29.377,1.4,45.003,2.482c26.511,1.834,96.776,11.226,117.813,12.334c35.31,1.856,67.034-2.676,99.999-6.143
					c5.219-0.549,76.843-9.433,81.666-9.886C567.455-4.171,628.786,27.209,700,43.995c0-26.139,0-48.647,0-50.011
					C659.634-6.015,554.842-12.54,470.652-12.54z"/>
			</g>
			<g>
				
					<radialGradient id="SVGID_4_" cx="354.6288" cy="-336.4729" r="376.0535" gradientTransform="matrix(1 0 0 0.8773 0 297.4066)" gradientUnits="userSpaceOnUse">
					<stop  offset="0" style="stop-color:#FFFFFF"/>
					<stop  offset="1" style="stop-color:#66C1F3"/>
				</radialGradient>
				<path class="st2" d="M528.476-16.643c-109.131,0-146.42,15.053-253.144,9.951C243.788-8.2,192.74-17.215,140.75-18.794
					C88.51-20.379,35.317-15.142,0-13.801c0,1.121,0,17.877,0,39.53C56.593,11.056,119.419,5.95,127.203,6.049
					c15.685,0.197,29.377,1.4,45.003,2.482c26.511,1.834,96.776,11.226,117.813,12.334c35.31,1.856,67.884-2.694,100.849-6.161
					c5.219-0.549,74.686-8.952,79.51-9.405c95.77-9.007,158.408,21.911,229.623,38.697c0-26.139,0-48.647,0-50.011
					C659.634-6.015,612.667-16.643,528.476-16.643z"/>
			</g>
			<g>
				
					<radialGradient id="SVGID_5_" cx="354.6288" cy="-336.4724" r="376.0539" gradientTransform="matrix(1 0 0 0.8773 0 297.4066)" gradientUnits="userSpaceOnUse">
					<stop  offset="0" style="stop-color:#FFFFFF"/>
					<stop  offset="1" style="stop-color:#A6D4E8"/>
				</radialGradient>
				<path class="st3" d="M528.476-17.26c-109.131,0-146.42,15.054-253.144,9.95c-31.544-1.508-82.535-10.2-134.526-11.78
					C88.565-20.676,35.317-15.142,0-13.801c0,0.153,0,6.966,0,8.029c35.317-1.342,88.565-14.134,140.807-12.547
					C192.798-16.74,243.788-2.643,275.333-1.134C382.057,3.97,419.346-16.025,528.477-16.025c84.19,0,131.157,11.863,171.523,11.863
					c0-1.06,0-1.696,0-1.853C659.634-6.015,612.667-17.26,528.476-17.26z"/>
			</g>
		</g>
		<g>
			<g>
				
					<radialGradient id="SVGID_6_" cx="354.6288" cy="-336.472" r="376.0535" gradientTransform="matrix(1 0 0 0.8773 0 297.4066)" gradientUnits="userSpaceOnUse">
					<stop  offset="0" style="stop-color:#E0F2FF"/>
					<stop  offset="1" style="stop-color:#81D1FF"/>
				</radialGradient>
				<path class="st4" d="M515.249-5.273c-59.603,0-130.455-6.155-200.221-6.154c-51.298,0.001-98.606,4.117-148.954,3.303
					C102.71-9.15,70.464-24.424,0-21.745C0-20.819,0-1.173,0,25.73C56.593,11.057,119.419,5.951,127.203,6.05
					c15.685,0.197,29.377,1.4,45.003,2.482c26.511,1.834,96.776,11.226,117.813,12.334c35.31,1.856,67.884-2.694,100.849-6.161
					c5.219-0.549,78.618-9.32,83.441-9.773c85.96-8.084,140.407,17.141,203.896,33.637H700c0-28.036,0-49.081,0-50.082
					C648.516-19.09,598.03-5.273,515.249-5.273z"/>
			</g>
			<g>
				
					<radialGradient id="SVGID_7_" cx="354.6288" cy="-336.4736" r="376.0536" gradientTransform="matrix(1 0 0 0.8773 0 297.4066)" gradientUnits="userSpaceOnUse">
					<stop  offset="0" style="stop-color:#FFFAFF"/>
					<stop  offset="0.2144" style="stop-color:#F5F7FF"/>
					<stop  offset="0.5722" style="stop-color:#DCEEFF"/>
					<stop  offset="1" style="stop-color:#B5E0FF"/>
				</radialGradient>
				<path class="st5" d="M515.249-3.42c-59.603,0-130.529,3.955-200.221,6.198C252.404,4.795,70.464,0.281,0,2.958
					c0,0.709,0,12.5,0,22.771C56.593,11.056,119.419,5.95,127.203,6.049c15.685,0.197,29.377,1.4,45.003,2.482
					c26.511,1.834,96.776,11.226,117.813,12.334c35.31,1.856,67.884-2.694,100.849-6.161c5.219-0.549,76.868-9.229,81.691-9.683
					c85.96-8.084,142.157,17.05,205.646,33.546H700c0-5.738,0-30.553,0-31.554C649.466,9.804,598.03-3.42,515.249-3.42z"/>
			</g>
			<g>
				
					<radialGradient id="SVGID_8_" cx="354.6288" cy="-336.473" r="376.0546" gradientTransform="matrix(1 0 0 0.8773 0 297.4066)" gradientUnits="userSpaceOnUse">
					<stop  offset="0" style="stop-color:#FFFFFF"/>
					<stop  offset="0.7151" style="stop-color:#CDEAFF"/>
					<stop  offset="1" style="stop-color:#B0D6FF"/>
				</radialGradient>
				<path class="st6" d="M515.249-5.89c-59.603,0-130.455-5.538-200.221-5.537c-51.298,0.001-98.606,4.117-148.954,3.303
					C102.709-9.151,70.463-27.512,0-24.833c0,0.147,0,3.874,0,4.939C70.463-22.571,102.71-7.296,166.074-6.272
					c50.348,0.814,97.656-4.537,148.954-4.537c69.766-0.002,140.618,6.154,200.221,6.154c82.781,0,133.268-12.583,184.751-5.009
					c0-1.06,0-9.727,0-9.881C631.64-23.067,598.03-5.89,515.249-5.89z"/>
			</g>
		</g>
		<g>
			<g>
				
					<radialGradient id="SVGID_9_" cx="354.6288" cy="-336.205" r="376.0141" gradientTransform="matrix(1 0 0 0.8773 0 297.4066)" gradientUnits="userSpaceOnUse">
					<stop  offset="0" style="stop-color:#E0F2FF"/>
					<stop  offset="0.6788" style="stop-color:#50BCEA"/>
					<stop  offset="1" style="stop-color:#1784E6"/>
				</radialGradient>
				<path class="st7" d="M539.966-1.911c-103.19-4.99-199.425,10.489-306.149,5.387C170.578,0.452,70.084-11.44,0-11.967
					c0,1.099,0,16.979,0,37.696C56.593,11.056,119.419,5.95,127.203,6.049c15.685,0.197,29.377,1.4,45.003,2.482
					c26.511,1.834,96.776,11.226,117.813,12.334c35.31,1.856,67.884-2.694,100.849-6.161c5.219-0.549,78.618-9.32,83.441-9.773
					C570.08-4.076,628.786,27.21,700,43.996c0-16.324,0-28.786,0-29.905C654.553,14.091,623.963,2.151,539.966-1.911z"/>
			</g>
			<g>
				
					<radialGradient id="SVGID_10_" cx="354.6288" cy="-334.2148" r="375.7285" gradientTransform="matrix(1 0 0 0.8773 0 297.4066)" gradientUnits="userSpaceOnUse">
					<stop  offset="0" style="stop-color:#E3F5FF"/>
					<stop  offset="0.6788" style="stop-color:#6BCCF7"/>
					<stop  offset="1" style="stop-color:#519DC8"/>
				</radialGradient>
				<path class="st8" d="M539.966,1.795c-103.19-4.991-157.711,21.942-306.149,8.474C170.958,4.565,70.464-2.438,0,0.239
					c0,6.618,0,14.121,0,25.49C56.593,11.056,119.419,5.95,127.203,6.049c15.685,0.197,29.377,1.4,45.003,2.482
					c26.511,1.834,96.776,11.226,117.813,12.334c35.31,1.856,67.884-2.694,100.849-6.161c5.219-0.549,76.854-9.416,81.691-9.683
					C550.133,0.744,628.786,27.21,700,43.996c0-9.604,0-18.136,0-24.347C654.553,19.649,623.963,5.856,539.966,1.795z"/>
			</g>
			<g>
				
					<radialGradient id="SVGID_11_" cx="354.6288" cy="-336.4724" r="376.0533" gradientTransform="matrix(1 0 0 0.8773 0 297.4066)" gradientUnits="userSpaceOnUse">
					<stop  offset="0" style="stop-color:#EDFAFF"/>
					<stop  offset="1" style="stop-color:#5EC5F7"/>
				</radialGradient>
				<path class="st9" d="M539.966-1.911c-103.19-4.99-199.425,10.489-306.149,5.387C170.578,0.452,70.463-14.644,0-11.967
					C0-11.739,0-7.98,0-5.79C70.463-8.468,171.248,1.675,234.485,4.698C341.21,9.801,435.984-6.287,539.175-1.297
					C623.171,2.765,654.554,17.797,700,17.797c0-2.166,0-3.459,0-3.706C654.553,14.091,623.963,2.151,539.966-1.911z"/>
			</g>
		</g>
		<g>
			<g>
				
					<radialGradient id="SVGID_12_" cx="354.6288" cy="-231.6257" r="376.054" gradientTransform="matrix(1 0 0 1 0 228)" gradientUnits="userSpaceOnUse">
					<stop  offset="0" style="stop-color:#85D3FF"/>
					<stop  offset="1" style="stop-color:#2D78AC"/>
				</radialGradient>
				<path class="st10" d="M669.752,26.736c-9.352-5.064-14.152-10.484-22.746-13.472c-9.495-3.301-13.938,0-18.804-1.377
					c-4.22-1.193-6.297-4.148-13.231-4.984c-7.148-0.858-9.731,2.113-14.565,1.229c-4.175-0.766-6.529-3.266-12.631-3.499
					c-4.139-0.158-8.636,1.642-12.891,1.086c-2.909-0.38-5.491-2.971-8.473-3.302c-8.126-0.908-16.878,0.604-25.506,0.124
					c-23.614-1.316-52.511,0.186-74.94,0.678c-4.849,0.107-9.711-0.953-14.449-1.285c-2.647-0.184-5.302,1.338-7.997,1.063
					c-3.213-0.327-6.841-4.348-15.121-2.976c-7.022,1.163-9.499,5.079-12.685,5.372c-3.646,0.335-7.057-0.145-10.435,1.296
					c-4.783,2.041-9.499,6.179-14.718,6.806c-32.965,3.953-65.502,8.951-100.544,4.143c-4.255-0.586-7.756-3.35-11.896-4.227
					c-2.137-0.455-4.303-0.176-6.414-0.717c-2.517-0.648-3.834-2.55-7.56-3.349c-3.323-0.711-7.042,0.303-10.235-0.983
					c-2.531-1.02-4.693-2.828-7.287-3.599c-4.138-1.224-6.744-0.758-9.782-1.768c-4.088-1.358-6.095-3.411-11.264-4.065
					c-3.483-0.442-7.601-1.127-11.14-0.971c-3.487,0.154-5.356-0.416-9.611,0.074c-2.619,0.301-5.953,1.38-8.544,1.87
					c-2.126,0.4-4.675,0.384-6.812,0.439c-6.396,0.163-11.546,2.604-17.198,2.347c-15.659-0.712-30.091-1.413-44.192-2.641
					c-8.024-0.699-16.499-3.634-23.957-3.676c-3.943-0.023-6.63,1.235-8.054,1.235c-3.462,0-6.967-1.026-10.292-1.071
					c-3.895-0.056-7.766,1.201-11.464,1.263c-4.069,0.066-8.208-0.718-12.023-0.539C30.437-1.245,7.964,4.591-0.003,4.85
					c0,5.568,0,36.347,0,41.88c5.431-4.744,22.655-18.458,40.31-22.634c9.253-2.19,17.133-0.908,26.709-4.305
					c4.577-1.623,8.156-4.374,12.813-5.839c2.871-0.903,6.824-0.574,9.667-1.404c2.77-0.807,5.295-2.482,7.998-3.21
					c2.774-0.745,5.724-0.539,8.384-1.19c7.665-1.877,12.573-3.475,23.218-4.117c14.804-0.893,26.88,0.107,42.46,2.784
					c5.997,1.03,8.546,3.895,15.587,5.291c1.637,0.322,5.352,0.309,6.939,0.836c2.535,0.846,4.974,3.276,7.502,4.114
					c3.068,1.018,6.227,0.432,9.297,1.32c3.651,1.06,7.073,3.038,10.75,3.719c2.989,0.552,6.229-0.055,9.25,0.301
					c3.795,0.448,7.738,2.111,11.604,2.297c3.564,0.171,7.048-1.117,10.696-1.126c5.084-0.013,10.257-1.051,15.548-1.313
					c7.415-0.371,15.048-1.098,23.005-0.665c39.845,2.161,66.468-2.57,98.824-6.125c5.514-0.606,10.978,1.219,16.408,0.363
					c3.332-0.525,6.357-0.41,9.664-0.962c4.219-0.705,9.654,3.372,13.843,2.716c4.67-0.729,9.019-3.752,13.668-4.281
					c2.609-0.297,4.611,0.099,7.186-0.365c8.312-1.493,9.679-5.954,14.476-6.539c26.729-3.257,51.272-1.105,74.532,2.851
					c8.109,1.38,15.995,5.561,23.633,7.269c2.875,0.641,5.408,0.414,8.181,1.211c3.026,0.871,5.089,4.593,10.679,6.242
					c4.236,1.25,9.256,1.139,13.186,2.768c3.195,1.325,5.447,5.378,13.474,7.756c5.259,1.558,11,1.37,14.904,2.249
					c4.261,0.957,8.174,4.128,12.04,5.442c9.805,3.337,18.277,4.564,26.265,6.569c16.884,4.239,27.246,10.29,37.3,16.218
					c0-7.606,0-23.132,0-30.739C694.848,34.144,682.013,33.377,669.752,26.736z"/>
			</g>
			<g>
				
					<radialGradient id="SVGID_13_" cx="354.6288" cy="-231.6261" r="376.0558" gradientTransform="matrix(1 0 0 1 0 228)" gradientUnits="userSpaceOnUse">
					<stop  offset="0" style="stop-color:#FFFAFF"/>
					<stop  offset="0.2144" style="stop-color:#F5F7FF"/>
					<stop  offset="0.5722" style="stop-color:#DCEEFF"/>
					<stop  offset="1" style="stop-color:#B5E0FF"/>
				</radialGradient>
				<path class="st11" d="M669.752,21.463c-9.352-4.458-14.152-9.227-22.746-11.855c-9.495-2.906-13.938,0-18.804-1.213
					c-4.22-1.052-6.297-3.649-13.231-4.385c-7.148-0.757-9.731,1.858-14.565,1.081c-4.175-0.674-6.529-2.874-12.631-3.081
					c-4.139-0.139-8.636,1.444-12.891,0.955c-2.909-0.333-5.491-2.613-8.473-2.904c-8.126-0.799-16.878,0.53-25.506,0.108
					c-23.614-1.156-52.67,1.249-75.1,1.682c-4.85,0.095-9.552-1.924-14.29-2.216c-2.647-0.161-5.302,1.178-7.997,0.937
					c-3.213-0.289-6.841-3.826-15.121-2.618c-7.022,1.023-9.499,4.47-12.685,4.727c-3.646,0.294-7.057-0.127-10.435,1.141
					c-4.783,1.796-9.522,5.252-14.718,5.988c-29.282,4.151-56.414,10.537-100.544,3.648c-4.236-0.663-7.756-2.948-11.896-3.72
					c-2.137-0.399-4.303-0.155-6.414-0.631c-2.517-0.57-3.834-2.243-7.56-2.947c-3.323-0.625-7.042,0.267-10.235-0.865
					c-2.531-0.896-4.693-2.489-7.287-3.165c-4.138-1.077-6.744-0.668-9.782-1.557c-4.088-1.195-6.095-3.002-11.264-3.579
					c-3.483-0.389-7.647,0.026-11.186,0.163c-3.487,0.136-5.481-0.64-9.736-0.207c-2.619,0.265-5.978,1.245-8.569,1.677
					c-2.127,0.353-4.441,0.285-6.578,0.335c-6.395,0.143-11.654,2.35-17.306,2.124c-15.659-0.625-32.32-1.026-45.003-2.49
					c-7.986-0.92-15.618-4.693-23.076-4.73c-3.943-0.02-6.63,1.087-8.054,1.087c-3.462,0-6.967-0.902-10.292-0.943
					c-3.895-0.047-7.766,1.06-11.464,1.113c-4.069,0.058-8.208-0.632-12.023-0.477C30.439-4.038,7.967-1.543,0-1.315
					c0,4.9,0,29.309,0,34.179c5.431-4.177,22.655-11.598,40.31-15.272c9.253-1.926,17.133,0.751,26.709-2.239
					c4.577-1.428,8.156-3.848,12.813-5.138c2.871-0.793,6.824-0.504,9.667-1.235c2.77-0.71,5.295-2.185,7.998-2.824
					c2.774-0.655,5.724-0.475,8.384-1.048c7.665-1.652,12.573-3.057,23.218-3.622c14.804-0.786,26.88,0.094,42.46,2.45
					c5.997,0.904,8.546,3.427,15.587,4.654c1.637,0.284,5.352,0.272,6.939,0.737c2.535,0.743,4.974,2.883,7.502,3.62
					c3.068,0.895,6.227,0.379,9.297,1.162c3.651,0.933,7.073,2.673,10.75,3.271c2.989,0.485,6.229-0.048,9.25,0.265
					c3.795,0.396,7.738,1.858,11.604,2.021c3.564,0.15,7.048-0.983,10.696-0.991c5.084-0.011,10.257-0.923,15.548-1.156
					c7.415-0.325,15.048,0.796,23.005,1.175c39.845,1.902,66.468-2.261,98.824-5.389c5.514-0.533,10.978-0.688,16.408-1.44
					c3.332-0.462,6.357-0.36,9.664-0.847c4.219-0.62,9.654,2.967,13.843,2.39c4.67-0.642,9.019-3.302,13.668-3.767
					c2.609-0.263,4.611,0.086,7.186-0.321c8.312-1.315,9.679-5.239,14.476-5.755c26.729-2.866,51.272-0.973,74.532,2.509
					c8.109,1.214,15.995,4.893,23.633,6.395c2.875,0.564,5.408,0.363,8.181,1.066c3.026,0.766,5.089,4.041,10.679,5.492
					c4.236,1.1,9.256,1.002,13.186,2.436c3.195,1.166,5.447,4.732,13.474,6.825c5.259,1.371,11,1.206,14.904,1.979
					c4.261,0.844,8.174,3.633,12.04,4.79c9.805,2.935,18.127,3.12,26.265,4.231c16.124,2.203,27.248,5.172,37.3,8.851
					c0-6.693,0-13.386,0-20.08C694.848,27.982,682.013,27.307,669.752,21.463z"/>
			</g>
			<g>
				
					<radialGradient id="SVGID_14_" cx="354.6288" cy="-231.6251" r="376.0542" gradientTransform="matrix(1 0 0 1 0 228)" gradientUnits="userSpaceOnUse">
					<stop  offset="0" style="stop-color:#B5E8FF"/>
					<stop  offset="0.6788" style="stop-color:#5DC7FE"/>
					<stop  offset="1" style="stop-color:#187CBB"/>
				</radialGradient>
				<path class="st12" d="M669.752,24.986C660.4,19.92,655.6,14.502,647.006,11.514c-9.495-3.302-13.938,0-18.804-1.379
					c-4.22-1.193-6.297-4.147-13.231-4.982c-7.148-0.859-9.731,2.111-14.565,1.227c-4.175-0.765-6.529-3.265-12.631-3.499
					c-4.139-0.158-8.636,1.642-12.891,1.086c-2.909-0.38-5.491-2.971-8.473-3.302c-8.126-0.908-16.878,0.604-25.506,0.124
					c-23.614-1.315-52.67,1.419-75.1,1.911c-4.85,0.105-9.552-2.188-14.29-2.519c-2.647-0.184-5.302,1.339-7.997,1.063
					c-3.213-0.327-6.841-4.348-15.121-2.976c-7.022,1.164-9.499,5.079-12.685,5.371c-3.646,0.335-7.057-0.143-10.435,1.297
					c-4.783,2.041-9.499,6.18-14.718,6.805c-32.965,3.954-65.502,8.953-100.544,4.144c-4.255-0.585-7.756-3.35-11.896-4.227
					c-2.137-0.453-4.303-0.176-6.414-0.716c-2.517-0.649-3.834-2.55-7.56-3.349c-3.323-0.711-7.042,0.302-10.235-0.983
					c-2.531-1.02-4.693-2.829-7.287-3.598c-4.138-1.225-6.744-0.758-9.782-1.769c-4.088-1.357-6.095-3.411-11.264-4.066
					c-3.483-0.442-7.647,0.028-11.186,0.186c-3.487,0.153-5.481-0.727-9.736-0.237c-2.619,0.301-5.978,1.416-8.569,1.906
					c-2.127,0.402-4.441,0.324-6.578,0.38c-6.395,0.163-11.654,2.672-17.306,2.415c-15.659-0.711-32.32-1.167-45.003-2.83
					c-7.986-1.046-15.618-4.332-23.076-4.375c-3.943-0.023-6.63,1.234-8.054,1.234c-3.462,0-6.967-1.025-10.292-1.071
					c-3.895-0.054-7.766,1.203-11.464,1.265c-4.069,0.065-8.208-0.718-12.023-0.54C30.436-2.995,7.963,2.841-0.004,3.1
					c0,5.569,0,29.307,0,34.84c5.431-4.745,22.655-13.179,40.31-17.355c9.253-2.189,17.133,0.853,26.709-2.545
					c4.577-1.623,8.156-4.372,12.813-5.837c2.871-0.903,6.824-0.575,9.667-1.404c2.77-0.807,5.295-2.482,7.998-3.21
					c2.774-0.745,5.724-0.539,8.384-1.191c7.665-1.877,12.573-3.474,23.218-4.116c14.804-0.894,26.88,0.106,42.46,2.783
					c5.997,1.029,8.546,3.896,15.587,5.291c1.637,0.322,5.352,0.309,6.939,0.836c2.535,0.846,4.974,3.275,7.502,4.115
					c3.068,1.017,6.227,0.429,9.297,1.32c3.651,1.059,7.073,3.037,10.75,3.717c2.989,0.553,6.229-0.054,9.25,0.302
					c3.795,0.449,7.738,2.11,11.604,2.296c3.564,0.172,7.048-1.118,10.696-1.126c5.084-0.012,10.257-1.049,15.548-1.314
					c7.415-0.37,15.048-1.097,23.005-0.664c39.845,2.162,66.468-2.571,98.824-6.125c5.514-0.606,10.978,1.219,16.408,0.364
					c3.332-0.526,6.357-0.41,9.664-0.963c4.219-0.704,9.654,3.372,13.843,2.716c4.67-0.73,9.019-3.753,13.668-4.28
					c2.609-0.299,4.611,0.098,7.186-0.365c8.312-1.495,9.679-5.954,14.476-6.54c26.729-3.257,51.272-1.105,74.532,2.851
					c8.109,1.379,15.995,5.561,23.633,7.268c2.875,0.642,5.408,0.412,8.181,1.211c3.026,0.871,5.089,4.593,10.679,6.242
					c4.236,1.25,9.256,1.138,13.186,2.769c3.195,1.323,5.447,5.378,13.474,7.756c5.259,1.558,11,1.37,14.904,2.248
					c4.261,0.958,8.174,4.128,12.04,5.443c9.805,3.335,18.127,3.545,26.265,4.808c16.124,2.505,27.248,5.879,37.3,10.058
					c0-7.606,0-15.211,0-22.817C694.848,32.392,682.013,31.627,669.752,24.986z"/>
			</g>
		</g>
	</g>
</g>
</svg>
