<?xml version="1.0" encoding="utf-8"?>
<!-- Generator: Adobe Illustrator 25.2.1, SVG Export Plug-In . SVG Version: 6.00 Build 0)  -->
<svg version="1.1" id="Bubbles" xmlns="http://www.w3.org/2000/svg" xmlns:xlink="http://www.w3.org/1999/xlink" x="0px" y="0px"
	 viewBox="0 0 700 68.391" style="enable-background:new 0 0 700 68.391;" xml:space="preserve">
<style type="text/css">
	.st0{clip-path:url(#SVGID_2_);}
	.st1{fill:url(#SVGID_3_);}
	.st2{fill:url(#SVGID_4_);}
	.st3{fill:url(#SVGID_5_);}
	.st4{fill:url(#SVGID_6_);}
	.st5{fill:url(#SVGID_7_);}
	.st6{fill:url(#SVGID_8_);}
	.st7{fill:url(#SVGID_9_);}
	.st8{fill:url(#SVGID_10_);}
	.st9{fill:url(#SVGID_11_);}
	.st10{fill:url(#SVGID_12_);}
	.st11{fill:url(#SVGID_13_);}
	.st12{fill:url(#SVGID_14_);}
	.st13{fill:url(#SVGID_15_);}
	.st14{fill:url(#SVGID_16_);}
	.st15{fill:url(#SVGID_17_);}
	.st16{fill:url(#SVGID_18_);}
	.st17{fill:url(#SVGID_19_);}
	.st18{fill:url(#SVGID_20_);}
	.st19{fill:url(#SVGID_21_);}
	.st20{fill:url(#SVGID_22_);}
	.st21{fill:url(#SVGID_23_);}
	.st22{fill:url(#SVGID_24_);}
	.st23{fill:url(#SVGID_25_);}
	.st24{fill:url(#SVGID_26_);}
	.st25{fill:url(#SVGID_27_);}
	.st26{fill:url(#SVGID_28_);}
	.st27{fill:url(#SVGID_29_);}
	.st28{fill:url(#SVGID_30_);}
	.st29{fill:#FFFFFF;}
	.st30{fill:url(#SVGID_31_);}
	.st31{fill:url(#SVGID_32_);}
	.st32{fill:url(#SVGID_33_);}
	.st33{fill:url(#SVGID_34_);}
	.st34{fill:url(#SVGID_35_);}
	.st35{fill:url(#SVGID_36_);}
	.st36{fill:url(#SVGID_37_);}
	.st37{fill:url(#SVGID_38_);}
	.st38{fill:url(#SVGID_39_);}
	.st39{fill:url(#SVGID_40_);}
	.st40{fill:url(#SVGID_41_);}
</style>
<g>
	<defs>
		<rect id="SVGID_1_" x="-0.004" width="700" height="68.391"/>
	</defs>
	<clipPath id="SVGID_2_">
		<use xlink:href="#SVGID_1_"  style="overflow:visible;"/>
	</clipPath>
	<g class="st0">
		<g>
			<g>
				<g>
					
						<radialGradient id="SVGID_3_" cx="994.6288" cy="314.2843" r="375.7353" gradientTransform="matrix(1 0 0 0.8773 -640.0001 -214.9083)" gradientUnits="userSpaceOnUse">
						<stop  offset="0" style="stop-color:#FFFFFF"/>
						<stop  offset="0.6727" style="stop-color:#69CFFF"/>
						<stop  offset="1" style="stop-color:#3684B4"/>
					</radialGradient>
					<path class="st1" d="M700,70.987c0-1.364,0-23.872,0-50.011c-71.214,16.786-132.545,48.166-228.316,39.159
						c-4.823-0.453-76.447-9.337-81.666-9.886c-32.965-3.467-64.689-7.999-99.999-6.143c-21.037,1.108-91.302,10.5-117.813,12.334
						c-15.626,1.082-29.318,2.285-45.003,2.482C119.419,59.021,56.593,53.915,0,39.242c0,21.653,0,38.409,0,39.53
						c35.317,1.341,96.875,1.376,149.116-0.211c51.989-1.579,87.391,2.529,125.379,2.529c106.973,0,87.024-3.579,196.157-3.579
						C554.842,77.511,659.634,70.986,700,70.987z"/>
				</g>
				<g>
					
						<radialGradient id="SVGID_4_" cx="994.6288" cy="316.4941" r="376.0535" gradientTransform="matrix(1 0 0 0.8773 -640.0001 -214.9083)" gradientUnits="userSpaceOnUse">
						<stop  offset="0" style="stop-color:#FFFFFF"/>
						<stop  offset="1" style="stop-color:#66C1F3"/>
					</radialGradient>
					<path class="st2" d="M700.001,70.986c0-1.364,0-23.872,0-50.011c-71.215,16.786-133.853,47.704-229.623,38.697
						c-4.824-0.453-74.291-8.856-79.51-9.405c-32.965-3.467-65.539-8.017-100.849-6.161c-21.037,1.108-91.302,10.5-117.813,12.334
						c-15.626,1.082-29.318,2.285-45.003,2.482C119.419,59.021,56.593,53.915,0,39.242c0,21.653,0,38.409,0,39.53
						c35.317,1.341,88.51,6.578,140.75,4.993c51.99-1.579,103.038-10.594,134.582-12.102c106.724-5.102,144.013,9.951,253.144,9.951
						C612.667,81.614,659.634,70.986,700.001,70.986z"/>
				</g>
				<g>
					
						<radialGradient id="SVGID_5_" cx="994.6288" cy="316.4936" r="376.0539" gradientTransform="matrix(1 0 0 0.8773 -640.0001 -214.9083)" gradientUnits="userSpaceOnUse">
						<stop  offset="0" style="stop-color:#FFFFFF"/>
						<stop  offset="1" style="stop-color:#A6D4E8"/>
					</radialGradient>
					<path class="st3" d="M700,70.986c0-0.157,0-0.793,0-1.853c-40.366,0-87.333,11.863-171.523,11.863
						c-109.131,0-146.42-19.995-253.144-14.891c-31.545,1.509-82.535,15.606-134.526,17.185C88.565,84.877,35.317,72.085,0,70.743
						c0,1.063,0,7.876,0,8.029c35.317,1.341,88.565,6.875,140.806,5.289c51.991-1.58,102.982-10.272,134.526-11.78
						c106.724-5.104,144.013,9.95,253.144,9.95C612.667,82.231,659.634,70.986,700,70.986z"/>
				</g>
			</g>
			<g>
				<g>
					
						<radialGradient id="SVGID_6_" cx="994.6288" cy="316.4933" r="376.0535" gradientTransform="matrix(1 0 0 0.8773 -640.0001 -214.9083)" gradientUnits="userSpaceOnUse">
						<stop  offset="0" style="stop-color:#E0F2FF"/>
						<stop  offset="1" style="stop-color:#81D1FF"/>
					</radialGradient>
					<path class="st4" d="M700,76.484c0-1.001,0-22.046,0-50.082h-21.795c-63.489,16.496-117.936,41.721-203.896,33.637
						c-4.823-0.453-78.222-9.224-83.441-9.773c-32.965-3.467-65.539-8.017-100.849-6.161c-21.037,1.108-91.302,10.5-117.813,12.334
						c-15.626,1.082-29.318,2.285-45.003,2.482C119.419,59.02,56.593,53.914,0,39.241C0,66.144,0,85.79,0,86.716
						c70.464,2.679,102.71-12.595,166.074-13.621c50.348-0.814,97.656,3.302,148.954,3.303
						c69.766,0.001,140.618-6.154,200.221-6.154C598.03,70.244,648.516,84.061,700,76.484z"/>
				</g>
				<g>
					
						<radialGradient id="SVGID_7_" cx="994.6288" cy="316.4948" r="376.0536" gradientTransform="matrix(1 0 0 0.8773 -640.0001 -214.9083)" gradientUnits="userSpaceOnUse">
						<stop  offset="0" style="stop-color:#FFFAFF"/>
						<stop  offset="0.2144" style="stop-color:#F5F7FF"/>
						<stop  offset="0.5722" style="stop-color:#DCEEFF"/>
						<stop  offset="1" style="stop-color:#B5E0FF"/>
					</radialGradient>
					<path class="st5" d="M700,57.958c0-1.001,0-25.816,0-31.554h-21.795C614.716,42.9,558.519,68.034,472.559,59.95
						c-4.823-0.454-76.472-9.134-81.691-9.683c-32.965-3.467-65.539-8.017-100.849-6.161c-21.037,1.108-91.302,10.5-117.813,12.334
						c-15.626,1.082-29.318,2.285-45.003,2.482C119.419,59.021,56.593,53.915,0,39.242c0,10.271,0,22.062,0,22.771
						c70.464,2.677,252.404-1.837,315.028,0.18c69.692,2.243,140.618,6.198,200.221,6.198C598.03,68.391,649.466,55.167,700,57.958z
						"/>
				</g>
				<g>
					
						<radialGradient id="SVGID_8_" cx="994.6288" cy="316.4942" r="376.0546" gradientTransform="matrix(1 0 0 0.8773 -640.0001 -214.9083)" gradientUnits="userSpaceOnUse">
						<stop  offset="0" style="stop-color:#FFFFFF"/>
						<stop  offset="0.7151" style="stop-color:#CDEAFF"/>
						<stop  offset="1" style="stop-color:#B0D6FF"/>
					</radialGradient>
					<path class="st6" d="M700,84.516c0-0.154,0-8.821,0-9.881c-51.483,7.574-101.97-5.009-184.751-5.009
						c-59.603,0-130.455,6.156-200.221,6.154c-51.298,0-98.606-5.351-148.954-4.537C102.71,72.267,70.463,87.542,0,84.865
						c0,1.065,0,4.792,0,4.939c70.463,2.679,102.709-15.682,166.074-16.709c50.348-0.814,97.656,3.302,148.954,3.303
						c69.766,0.001,140.618-5.537,200.221-5.537C598.03,70.861,631.64,88.038,700,84.516z"/>
				</g>
			</g>
			<g>
				<g>
					
						<radialGradient id="SVGID_9_" cx="994.6288" cy="316.2263" r="376.0141" gradientTransform="matrix(1 0 0 0.8773 -640.0001 -214.9083)" gradientUnits="userSpaceOnUse">
						<stop  offset="0" style="stop-color:#E0F2FF"/>
						<stop  offset="0.6788" style="stop-color:#50BCEA"/>
						<stop  offset="1" style="stop-color:#1784E6"/>
					</radialGradient>
					<path class="st7" d="M700,50.88c0-1.119,0-13.581,0-29.905C628.786,37.761,570.08,69.047,474.309,60.04
						c-4.823-0.453-78.222-9.224-83.441-9.773c-32.965-3.467-65.539-8.017-100.849-6.161c-21.037,1.108-91.302,10.5-117.813,12.334
						c-15.626,1.082-29.318,2.285-45.003,2.482C119.419,59.021,56.593,53.915,0,39.242c0,20.717,0,36.597,0,37.696
						c70.084-0.527,170.578-12.419,233.817-15.443c106.724-5.102,202.959,10.377,306.149,5.387
						C623.963,62.82,654.553,50.88,700,50.88z"/>
				</g>
				<g>
					
						<radialGradient id="SVGID_10_" cx="994.6288" cy="314.236" r="375.7285" gradientTransform="matrix(1 0 0 0.8773 -640.0001 -214.9083)" gradientUnits="userSpaceOnUse">
						<stop  offset="0" style="stop-color:#E3F5FF"/>
						<stop  offset="0.6788" style="stop-color:#6BCCF7"/>
						<stop  offset="1" style="stop-color:#519DC8"/>
					</radialGradient>
					<path class="st8" d="M700,45.322c0-6.211,0-14.743,0-24.347C628.786,37.761,550.133,64.227,472.559,59.95
						c-4.837-0.267-76.472-9.134-81.691-9.683c-32.965-3.467-65.539-8.017-100.849-6.161c-21.037,1.108-91.302,10.5-117.813,12.334
						c-15.626,1.082-29.318,2.285-45.003,2.482C119.419,59.021,56.593,53.915,0,39.242c0,11.369,0,18.872,0,25.49
						c70.464,2.677,170.958-4.326,233.817-10.03c148.438-13.468,202.959,13.465,306.149,8.474
						C623.963,59.115,654.553,45.322,700,45.322z"/>
				</g>
				<g>
					
						<radialGradient id="SVGID_11_" cx="994.6288" cy="316.4936" r="376.0533" gradientTransform="matrix(1 0 0 0.8773 -640.0001 -214.9083)" gradientUnits="userSpaceOnUse">
						<stop  offset="0" style="stop-color:#EDFAFF"/>
						<stop  offset="1" style="stop-color:#5EC5F7"/>
					</radialGradient>
					<path class="st9" d="M700,50.88c0-0.247,0-1.54,0-3.706c-45.446,0-76.829,15.032-160.825,19.094
						c-103.191,4.99-197.965-11.098-304.69-5.995C171.248,63.296,70.463,73.439,0,70.761c0,2.19,0,5.949,0,6.177
						c70.463,2.677,170.578-12.419,233.817-15.443c106.724-5.102,202.959,10.377,306.149,5.387
						C623.963,62.82,654.553,50.88,700,50.88z"/>
				</g>
			</g>
			<g>
				<g>
					
						<radialGradient id="SVGID_12_" cx="994.6288" cy="236.526" r="376.054" gradientTransform="matrix(1 0 0 1 -640.0001 -167.9294)" gradientUnits="userSpaceOnUse">
						<stop  offset="0" style="stop-color:#85D3FF"/>
						<stop  offset="1" style="stop-color:#2D78AC"/>
					</radialGradient>
					<path class="st10" d="M699.997,30.739c0-7.607,0-23.133,0-30.739c-10.054,5.928-20.416,11.979-37.3,16.218
						c-7.988,2.005-16.46,3.232-26.265,6.569c-3.866,1.314-7.779,4.485-12.04,5.442c-3.904,0.879-9.645,0.691-14.904,2.249
						c-8.027,2.378-10.279,6.431-13.474,7.756c-3.93,1.629-8.95,1.518-13.186,2.768c-5.59,1.649-7.653,5.371-10.679,6.242
						c-2.773,0.797-5.306,0.57-8.181,1.211c-7.638,1.708-15.524,5.889-23.633,7.269c-23.26,3.956-47.803,6.108-74.532,2.851
						c-4.797-0.585-6.164-5.046-14.476-6.539c-2.575-0.464-4.577-0.068-7.186-0.365c-4.649-0.529-8.998-3.552-13.668-4.281
						c-4.189-0.656-9.624,3.421-13.843,2.716c-3.307-0.552-6.332-0.437-9.664-0.962c-5.43-0.856-10.894,0.969-16.408,0.363
						c-32.356-3.555-58.979-8.286-98.824-6.125c-7.957,0.433-15.59-0.294-23.005-0.665c-5.291-0.262-10.464-1.3-15.548-1.313
						c-3.648-0.009-7.132-1.297-10.696-1.126c-3.866,0.186-7.809,1.849-11.604,2.297c-3.021,0.356-6.261-0.251-9.25,0.301
						c-3.677,0.681-7.099,2.659-10.75,3.719c-3.07,0.888-6.229,0.302-9.297,1.32c-2.528,0.838-4.967,3.268-7.502,4.114
						c-1.587,0.527-5.302,0.514-6.939,0.836c-7.041,1.396-9.59,4.261-15.587,5.291c-15.58,2.677-27.656,3.677-42.46,2.784
						c-10.645-0.642-15.553-2.24-23.218-4.117c-2.66-0.651-5.61-0.445-8.384-1.19c-2.703-0.728-5.228-2.403-7.998-3.21
						c-2.843-0.83-6.796-0.501-9.667-1.404c-4.657-1.465-8.236-4.216-12.813-5.839c-9.576-3.397-17.456-2.115-26.709-4.305
						c-17.655-4.176-34.879-17.89-40.31-22.634c0,5.533,0,36.312,0,41.88c7.967,0.259,30.44,6.095,62.294,7.59
						c3.815,0.179,7.954-0.605,12.023-0.539c3.698,0.062,7.569,1.319,11.464,1.263c3.325-0.045,6.83-1.071,10.292-1.071
						c1.424,0,4.111,1.258,8.054,1.235c7.458-0.042,15.933-2.977,23.957-3.676c14.101-1.228,28.533-1.929,44.192-2.641
						c5.652-0.257,10.802,2.184,17.198,2.347c2.137,0.055,4.686,0.039,6.812,0.439c2.591,0.49,5.925,1.569,8.544,1.87
						c4.255,0.49,6.124-0.08,9.611,0.074c3.539,0.156,7.657-0.529,11.14-0.971c5.169-0.654,7.176-2.707,11.264-4.065
						c3.038-1.01,5.644-0.544,9.782-1.768c2.594-0.771,4.756-2.579,7.287-3.599c3.193-1.286,6.912-0.272,10.235-0.983
						c3.726-0.799,5.043-2.701,7.56-3.349c2.111-0.541,4.277-0.262,6.414-0.717c4.14-0.877,7.641-3.641,11.896-4.227
						c35.042-4.808,67.579,0.19,100.544,4.143c5.219,0.627,9.935,4.765,14.718,6.806c3.378,1.441,6.789,0.961,10.435,1.296
						c3.186,0.293,5.663,4.209,12.685,5.372c8.28,1.372,11.908-2.649,15.121-2.976c2.695-0.275,5.35,1.247,7.997,1.063
						c4.738-0.332,9.6-1.392,14.449-1.285c22.429,0.492,51.326,1.994,74.94,0.678c8.628-0.48,17.38,1.032,25.506,0.124
						c2.982-0.331,5.564-2.922,8.473-3.302c4.255-0.556,8.752,1.244,12.891,1.086c6.102-0.233,8.456-2.733,12.631-3.499
						c4.834-0.884,7.417,2.087,14.565,1.229c6.934-0.836,9.011-3.791,13.231-4.984c4.866-1.377,9.309,1.924,18.804-1.377
						c8.594-2.988,13.394-8.408,22.746-13.472C682.013,31.594,694.848,30.827,699.997,30.739z"/>
				</g>
				<g>
					
						<radialGradient id="SVGID_13_" cx="994.6288" cy="236.5264" r="376.0558" gradientTransform="matrix(1 0 0 1 -640.0001 -167.9294)" gradientUnits="userSpaceOnUse">
						<stop  offset="0" style="stop-color:#FFFAFF"/>
						<stop  offset="0.2144" style="stop-color:#F5F7FF"/>
						<stop  offset="0.5722" style="stop-color:#DCEEFF"/>
						<stop  offset="1" style="stop-color:#B5E0FF"/>
					</radialGradient>
					<path class="st11" d="M700,36.912c0-6.694,0-13.387,0-20.08c-10.052,3.679-21.176,6.648-37.3,8.851
						c-8.138,1.111-16.46,1.296-26.265,4.231c-3.866,1.157-7.779,3.946-12.04,4.79c-3.904,0.773-9.645,0.608-14.904,1.979
						c-8.027,2.093-10.279,5.659-13.474,6.825c-3.93,1.434-8.95,1.336-13.186,2.436c-5.59,1.451-7.653,4.726-10.679,5.492
						c-2.773,0.703-5.306,0.502-8.181,1.066c-7.638,1.502-15.524,5.181-23.633,6.395c-23.26,3.482-47.803,5.375-74.532,2.509
						c-4.797-0.516-6.164-4.44-14.476-5.755c-2.575-0.407-4.577-0.058-7.186-0.321c-4.649-0.465-8.998-3.125-13.668-3.767
						c-4.189-0.577-9.624,3.01-13.843,2.39c-3.307-0.487-6.332-0.385-9.664-0.847c-5.43-0.752-10.894-0.907-16.408-1.44
						c-32.356-3.128-58.979-7.291-98.824-5.389c-7.957,0.379-15.59,1.5-23.005,1.175c-5.291-0.233-10.464-1.145-15.548-1.156
						c-3.648-0.008-7.132-1.141-10.696-0.991c-3.866,0.163-7.809,1.625-11.604,2.021c-3.021,0.313-6.261-0.22-9.25,0.265
						c-3.677,0.598-7.099,2.338-10.75,3.271c-3.07,0.783-6.229,0.267-9.297,1.162c-2.528,0.737-4.967,2.877-7.502,3.62
						c-1.587,0.465-5.302,0.453-6.939,0.737c-7.041,1.227-9.59,3.75-15.587,4.654c-15.58,2.356-27.656,3.236-42.46,2.45
						c-10.645-0.565-15.553-1.97-23.218-3.622c-2.66-0.573-5.61-0.393-8.384-1.048c-2.703-0.639-5.228-2.114-7.998-2.824
						c-2.843-0.731-6.796-0.442-9.667-1.235c-4.657-1.29-8.236-3.71-12.813-5.138c-9.576-2.99-17.456-0.313-26.709-2.239
						C22.655,43.705,5.431,36.284,0,32.107c0,4.87,0,29.279,0,34.179c7.967,0.228,30.439,2.723,62.29,4.039
						c3.815,0.155,7.954-0.535,12.023-0.477c3.698,0.053,7.569,1.16,11.464,1.113c3.325-0.041,6.83-0.943,10.292-0.943
						c1.424,0,4.111,1.107,8.054,1.087c7.458-0.037,15.09-3.81,23.076-4.73c12.683-1.464,29.344-1.865,45.003-2.49
						c5.652-0.226,10.911,1.981,17.306,2.124c2.137,0.05,4.451-0.018,6.578,0.335c2.591,0.432,5.95,1.412,8.569,1.677
						c4.255,0.433,6.249-0.343,9.736-0.207c3.539,0.137,7.703,0.552,11.186,0.163c5.169-0.577,7.176-2.384,11.264-3.579
						c3.038-0.889,5.644-0.48,9.782-1.557c2.594-0.676,4.756-2.269,7.287-3.165c3.193-1.132,6.912-0.24,10.235-0.865
						c3.726-0.704,5.043-2.377,7.56-2.947c2.111-0.476,4.277-0.232,6.414-0.631c4.14-0.772,7.66-3.057,11.896-3.72
						c44.13-6.889,71.262-0.503,100.544,3.648c5.196,0.736,9.935,4.192,14.718,5.988c3.378,1.268,6.789,0.847,10.435,1.141
						c3.186,0.257,5.663,3.704,12.685,4.727c8.28,1.208,11.908-2.329,15.121-2.618c2.695-0.241,5.35,1.098,7.997,0.937
						c4.738-0.292,9.44-2.311,14.29-2.216c22.43,0.433,51.486,2.838,75.1,1.682c8.628-0.422,17.38,0.907,25.506,0.108
						c2.982-0.291,5.564-2.571,8.473-2.904c4.255-0.489,8.752,1.094,12.891,0.955c6.102-0.207,8.456-2.407,12.631-3.081
						c4.834-0.777,7.417,1.838,14.565,1.081c6.934-0.736,9.011-3.333,13.231-4.385c4.866-1.213,9.309,1.693,18.804-1.213
						c8.594-2.628,13.394-7.397,22.746-11.855C682.013,37.664,694.848,36.989,700,36.912z"/>
				</g>
				<g>
					
						<radialGradient id="SVGID_14_" cx="994.6288" cy="236.5254" r="376.0542" gradientTransform="matrix(1 0 0 1 -640.0001 -167.9294)" gradientUnits="userSpaceOnUse">
						<stop  offset="0" style="stop-color:#B5E8FF"/>
						<stop  offset="0.6788" style="stop-color:#5DC7FE"/>
						<stop  offset="1" style="stop-color:#187CBB"/>
					</radialGradient>
					<path class="st12" d="M699.996,32.489c0-7.606,0-15.211,0-22.817c-10.052,4.179-21.176,7.553-37.3,10.058
						c-8.138,1.263-16.46,1.473-26.265,4.808c-3.866,1.315-7.779,4.485-12.04,5.443c-3.904,0.878-9.645,0.69-14.904,2.248
						c-8.027,2.378-10.279,6.433-13.474,7.756c-3.93,1.631-8.95,1.519-13.186,2.769c-5.59,1.649-7.653,5.371-10.679,6.242
						c-2.773,0.799-5.306,0.569-8.181,1.211c-7.638,1.707-15.524,5.889-23.633,7.268c-23.26,3.956-47.803,6.108-74.532,2.851
						c-4.797-0.586-6.164-5.045-14.476-6.54c-2.575-0.463-4.577-0.066-7.186-0.365c-4.649-0.527-8.998-3.55-13.668-4.28
						c-4.189-0.656-9.624,3.42-13.843,2.716c-3.307-0.553-6.332-0.437-9.664-0.963c-5.43-0.855-10.894,0.97-16.408,0.364
						c-32.356-3.554-58.979-8.287-98.824-6.125c-7.957,0.433-15.59-0.294-23.005-0.664c-5.291-0.265-10.464-1.302-15.548-1.314
						c-3.648-0.008-7.132-1.298-10.696-1.126c-3.866,0.186-7.809,1.847-11.604,2.296c-3.021,0.356-6.261-0.251-9.25,0.302
						c-3.677,0.68-7.099,2.658-10.75,3.717c-3.07,0.891-6.229,0.303-9.297,1.32c-2.528,0.84-4.967,3.269-7.502,4.115
						c-1.587,0.527-5.302,0.514-6.939,0.836c-7.041,1.395-9.59,4.262-15.587,5.291c-15.58,2.677-27.656,3.677-42.46,2.783
						c-10.645-0.642-15.553-2.239-23.218-4.116c-2.66-0.652-5.61-0.446-8.384-1.191c-2.703-0.728-5.228-2.403-7.998-3.21
						c-2.843-0.829-6.796-0.501-9.667-1.404c-4.657-1.465-8.236-4.214-12.813-5.837c-9.576-3.398-17.456-0.356-26.709-2.545
						C22.651,40.21,5.427,31.776-0.004,27.031c0,5.533,0,29.271,0,34.84c7.967,0.259,30.44,6.095,62.294,7.59
						c3.815,0.178,7.954-0.605,12.023-0.54c3.698,0.062,7.569,1.319,11.464,1.265c3.325-0.046,6.83-1.071,10.292-1.071
						c1.424,0,4.111,1.257,8.054,1.234c7.458-0.043,15.09-3.329,23.076-4.375c12.683-1.663,29.344-2.119,45.003-2.83
						c5.652-0.257,10.911,2.252,17.306,2.415c2.137,0.056,4.451-0.022,6.578,0.38c2.591,0.49,5.95,1.605,8.569,1.906
						c4.255,0.49,6.249-0.39,9.736-0.237c3.539,0.158,7.703,0.628,11.186,0.186c5.169-0.655,7.176-2.709,11.264-4.066
						c3.038-1.011,5.644-0.544,9.782-1.769c2.594-0.769,4.756-2.578,7.287-3.598c3.193-1.285,6.912-0.272,10.235-0.983
						c3.726-0.799,5.043-2.7,7.56-3.349c2.111-0.54,4.277-0.263,6.414-0.716c4.14-0.877,7.641-3.642,11.896-4.227
						c35.042-4.809,67.579,0.19,100.544,4.144c5.219,0.625,9.935,4.764,14.718,6.805c3.378,1.44,6.789,0.962,10.435,1.297
						c3.186,0.292,5.663,4.207,12.685,5.371c8.28,1.372,11.908-2.649,15.121-2.976c2.695-0.276,5.35,1.247,7.997,1.063
						c4.738-0.331,9.44-2.624,14.29-2.519c22.43,0.492,51.486,3.226,75.1,1.911c8.628-0.48,17.38,1.032,25.506,0.124
						c2.982-0.331,5.564-2.922,8.473-3.302c4.255-0.556,8.752,1.244,12.891,1.086c6.102-0.234,8.456-2.734,12.631-3.499
						c4.834-0.884,7.417,2.086,14.565,1.227c6.934-0.835,9.011-3.789,13.231-4.982c4.866-1.379,9.309,1.923,18.804-1.379
						c8.594-2.988,13.394-8.406,22.746-13.472C682.013,33.344,694.848,32.579,699.996,32.489z"/>
				</g>
			</g>
		</g>
		<g>
			
				<linearGradient id="SVGID_15_" gradientUnits="userSpaceOnUse" x1="63.554" y1="51.5275" x2="85.603" y2="51.5275" gradientTransform="matrix(1 0 0 -1 0 90)">
				<stop  offset="0" style="stop-color:#8A91CC"/>
				<stop  offset="0.3879" style="stop-color:#293D69"/>
				<stop  offset="0.524" style="stop-color:#1D2B4E"/>
				<stop  offset="0.7249" style="stop-color:#0D132C"/>
				<stop  offset="0.8908" style="stop-color:#030517"/>
				<stop  offset="1" style="stop-color:#00000F"/>
			</linearGradient>
			<path class="st13" d="M78.708,40.636c-1.962-1.455-0.961-3.48-2.462-4.523c-3.742-2.598-4.906,2.888-12.692-4.15
				c7.361,8.181,9.286,2.605,11.883,4.867c1.513,1.318-0.325,3.341,1.329,5.22c1.105,1.254,2.776,2.184,4.034,2.932
				c1.655-1.024,3.121-2.485,4.803-3.394C82.976,41.733,80.705,42.118,78.708,40.636z"/>
			
				<radialGradient id="SVGID_16_" cx="477.1441" cy="123.4195" r="21.047" gradientTransform="matrix(2.4064 -0.432 -0.1773 -0.9876 -1013.6072 358.54)" gradientUnits="userSpaceOnUse">
				<stop  offset="0" style="stop-color:#989FBF"/>
				<stop  offset="0.497" style="stop-color:#293D69"/>
				<stop  offset="0.6089" style="stop-color:#1D2B4E"/>
				<stop  offset="0.774" style="stop-color:#0D132C"/>
				<stop  offset="0.9103" style="stop-color:#030517"/>
				<stop  offset="1" style="stop-color:#00000F"/>
			</radialGradient>
			<path class="st14" d="M120.402,31.276c-1.21-2.653-4.299-3.699-5.911-2.149c-1.164,1.12,1.499,5.24-2.448,9.076
				c-2.657,2.582-6.33,4.21-10.144,3.288c0.083,1.28,6.233,3.206,10.473,2.385C116.848,43.009,122.843,38.263,120.402,31.276z"/>
			
				<radialGradient id="SVGID_17_" cx="413.1506" cy="69.2672" r="12.8682" gradientTransform="matrix(1.7364 -0.1707 -0.0864 -0.8791 -616.7119 186.0813)" gradientUnits="userSpaceOnUse">
				<stop  offset="0.0485" style="stop-color:#E9CDAE"/>
				<stop  offset="0.7636" style="stop-color:#B5755C"/>
				<stop  offset="1" style="stop-color:#98553B"/>
			</radialGradient>
			<path class="st15" d="M94.594,44.294c-9.095,1.058-10.525,6.804-20.637,8.56c9.722,0.168,14.774,3.86,23.196,2.546
				c7.574-1.181,9.725-7.433,15.308-8.897C103.234,46.743,101.179,43.528,94.594,44.294z"/>
			
				<radialGradient id="SVGID_18_" cx="413.1506" cy="69.2666" r="12.8682" gradientTransform="matrix(1.7364 -0.1707 -0.0864 -0.8791 -616.7119 186.0813)" gradientUnits="userSpaceOnUse">
				<stop  offset="0" style="stop-color:#E9CDAE"/>
				<stop  offset="0.4667" style="stop-color:#B5755C"/>
				<stop  offset="1" style="stop-color:#6E1F00"/>
			</radialGradient>
			<path class="st16" d="M82.589,51.448c4.41-2.253,7.208-5.58,12.002-6.169c4.321-0.531,6.993,1.021,11.201,1.907
				c1.247,0.262,1.818,1.173,1.005,2.78c1.717-1.502,3.41-2.872,5.664-3.464c-9.226,0.24-11.281-2.975-17.866-2.209
				c-9.095,1.058-10.525,6.804-20.637,8.56c2.547,0.044,4.773,0.331,6.824,0.705C80.11,52.632,81.162,52.177,82.589,51.448z"/>
			
				<radialGradient id="SVGID_19_" cx="477.1443" cy="123.42" r="25.281" gradientTransform="matrix(2.4064 -0.432 -0.1773 -0.9876 -1013.6072 358.54)" gradientUnits="userSpaceOnUse">
				<stop  offset="0" style="stop-color:#B5B8D6"/>
				<stop  offset="0.5455" style="stop-color:#293D69"/>
				<stop  offset="0.6466" style="stop-color:#1D2B4E"/>
				<stop  offset="0.7958" style="stop-color:#0D132C"/>
				<stop  offset="0.9189" style="stop-color:#030517"/>
				<stop  offset="1" style="stop-color:#00000F"/>
			</radialGradient>
			<path class="st17" d="M120.402,31.276c0.852,5.822-2.374,10.256-6.771,11.436c-9.18,2.463-11.835-3.515-22.652-3.515
				c-9.136,0-11.643,6.455-20.78,8.022c-5.807,0.996-11.111-0.655-12.226-4.568c-0.716,7.793,11.241,10.569,19.078,9.091
				c9.256-1.746,10.599-6.461,17.467-7.031c7.195-0.597,10.524,3.433,18.317,1.373C117.242,44.92,122.843,38.263,120.402,31.276z"/>
			
				<radialGradient id="SVGID_20_" cx="477.1444" cy="123.4196" r="25.2805" gradientTransform="matrix(2.4064 -0.432 -0.1773 -0.9876 -1013.6072 358.54)" gradientUnits="userSpaceOnUse">
				<stop  offset="0" style="stop-color:#5A6784"/>
				<stop  offset="0.4788" style="stop-color:#0F2440"/>
				<stop  offset="0.6426" style="stop-color:#09152C"/>
				<stop  offset="0.8579" style="stop-color:#020617"/>
				<stop  offset="1" style="stop-color:#00000F"/>
			</radialGradient>
			<path class="st18" d="M92.094,44.358c1.184-0.451,1.503-1.411,2.668-1.544c0.672-0.076,0.956,0.114,1.685,0.339
				c1.862,0.575,3.893-0.301,4.657-1.963c-2.685-1.006-5.732-1.992-10.126-1.992c-2.197,0-4.008,0.376-5.623,0.964
				c0.046,0.447,0.153,0.895,0.327,1.334C86.696,44.04,89.566,45.321,92.094,44.358z"/>
			
				<radialGradient id="SVGID_21_" cx="418.7571" cy="-29.0791" r="12.8681" gradientTransform="matrix(1.8968 0.231 0.1031 -0.847 -729.6774 -78.2804)" gradientUnits="userSpaceOnUse">
				<stop  offset="0" style="stop-color:#FFF2D1"/>
				<stop  offset="0.1025" style="stop-color:#FAE9C9"/>
				<stop  offset="0.2698" style="stop-color:#EBD1B2"/>
				<stop  offset="0.4809" style="stop-color:#D4A98D"/>
				<stop  offset="0.7152" style="stop-color:#B5755C"/>
				<stop  offset="0.9879" style="stop-color:#7D381C"/>
			</radialGradient>
			<path class="st19" d="M74.691,52.75c-7.644,0.488-17.267-2.962-16.53-9.551c0.255-2.282,1.827-3.301,0.588-3.951
				c-1.431-0.749-4.345,1.134-4.762,4.277C53.048,50.592,66.647,54.058,74.691,52.75z"/>
			
				<radialGradient id="SVGID_22_" cx="418.7571" cy="-29.0793" r="12.8682" gradientTransform="matrix(1.8968 0.231 0.1031 -0.847 -729.6774 -78.2804)" gradientUnits="userSpaceOnUse">
				<stop  offset="0" style="stop-color:#FFFFE8"/>
				<stop  offset="0.1057" style="stop-color:#FBF6DF"/>
				<stop  offset="0.278" style="stop-color:#EFDEC8"/>
				<stop  offset="0.4955" style="stop-color:#DDB6A2"/>
				<stop  offset="0.7152" style="stop-color:#C78775"/>
				<stop  offset="0.9879" style="stop-color:#7D381C"/>
			</radialGradient>
			<path class="st20" d="M54.524,43.704c0.375-2.821,2.761-4.626,4.28-4.424c-0.018-0.01-0.035-0.021-0.055-0.032
				c-1.431-0.749-4.345,1.134-4.762,4.277c-0.504,3.797,3.188,6.553,7.961,8.09C57.439,50.048,54.039,47.357,54.524,43.704z"/>
			
				<radialGradient id="SVGID_23_" cx="433.1758" cy="154.3626" r="23.5908" gradientTransform="matrix(1.899 -0.2128 -0.095 -0.8479 -709.2843 259.1831)" gradientUnits="userSpaceOnUse">
				<stop  offset="0" style="stop-color:#FFFFF5"/>
				<stop  offset="0.1068" style="stop-color:#FBF7EC"/>
				<stop  offset="0.2809" style="stop-color:#EFE2D4"/>
				<stop  offset="0.5007" style="stop-color:#DCBFAC"/>
				<stop  offset="0.7553" style="stop-color:#C39076"/>
				<stop  offset="0.7879" style="stop-color:#BF896E"/>
				<stop  offset="1" style="stop-color:#A35230"/>
			</radialGradient>
			<path class="st21" d="M112.848,45.757c-6.896,1.851-10.036-2.76-18.689-1.684c-7.3,0.908-8.225,5.704-17.495,7.416
				c-6.458,1.192-19.115-0.418-18.093-8.121c0.418-3.143,1.71-3.605,0.18-4.12c1.037,0.604-0.508,1.634-0.807,3.911
				c-1.021,7.759,11.271,10.778,19.108,9.3c9.256-1.745,10.653-6.789,17.509-7.478c8.018-0.806,11.571,3.432,18.274,1.656
				c4.767-1.263,10.009-8.375,7.568-15.362C121.947,37.658,117.246,44.577,112.848,45.757z"/>
			<g>
				
					<radialGradient id="SVGID_24_" cx="433.1755" cy="154.3625" r="23.5918" gradientTransform="matrix(1.899 -0.2128 -0.095 -0.8479 -709.2843 259.1831)" gradientUnits="userSpaceOnUse">
					<stop  offset="0" style="stop-color:#FFFFFF"/>
					<stop  offset="0.1728" style="stop-color:#FFFAF6"/>
					<stop  offset="0.4545" style="stop-color:#FFECDE"/>
					<stop  offset="0.8081" style="stop-color:#FFD5B6"/>
					<stop  offset="1" style="stop-color:#FFC79E"/>
				</radialGradient>
				<path class="st22" d="M113.442,46.046c3.983-1.069,7.892-6.98,7.447-12.827c-0.101-0.645-0.261-1.295-0.487-1.943
					c1.545,6.382-3.156,13.3-7.554,14.481c-2.595,0.697-4.658,0.478-6.684-0.009C108.364,46.404,110.467,46.844,113.442,46.046z"/>
				
					<radialGradient id="SVGID_25_" cx="433.1755" cy="154.3617" r="23.5902" gradientTransform="matrix(1.899 -0.2128 -0.095 -0.8479 -709.2843 259.1831)" gradientUnits="userSpaceOnUse">
					<stop  offset="0" style="stop-color:#FFFFFF"/>
					<stop  offset="0.1728" style="stop-color:#FFFAF6"/>
					<stop  offset="0.4545" style="stop-color:#FFECDE"/>
					<stop  offset="0.8081" style="stop-color:#FFD5B6"/>
					<stop  offset="1" style="stop-color:#FFC79E"/>
				</radialGradient>
				<path class="st23" d="M77.257,51.778c9.27-1.712,10.203-6.452,17.495-7.416c2.674-0.353,4.774-0.234,6.562,0.082
					c-2.002-0.455-4.272-0.73-7.156-0.371c-7.3,0.908-8.225,5.704-17.495,7.416c-3.749,0.692-9.584,0.44-13.622-1.4
					C67.082,52.19,73.321,52.505,77.257,51.778z"/>
			</g>
			<g>
				<g>
					
						<linearGradient id="SVGID_26_" gradientUnits="userSpaceOnUse" x1="-1002.2987" y1="267.5626" x2="-994.4606" y2="267.5626" gradientTransform="matrix(0.7698 -0.2998 -0.3116 -0.7997 941.5449 -49.7893)">
						<stop  offset="0" style="stop-color:#2E406E"/>
						<stop  offset="0.2404" style="stop-color:#202C4C"/>
						<stop  offset="0.5761" style="stop-color:#0F1423"/>
						<stop  offset="0.8409" style="stop-color:#040509"/>
						<stop  offset="1" style="stop-color:#000000"/>
					</linearGradient>
					<path class="st24" d="M85.347,33.507c3.601-0.122,5.02,1.518,5.787,2.871c1.6,2.824,2.875,1.525,2.034-0.634
						C92.326,33.586,89.044,31.849,85.347,33.507z"/>
					<g>
						
							<radialGradient id="SVGID_27_" cx="-880.9478" cy="263.8491" r="8.2871" gradientTransform="matrix(0.838 -0.3264 -0.3287 -0.8442 912.535 -25.4443)" gradientUnits="userSpaceOnUse">
							<stop  offset="0" style="stop-color:#293D69"/>
							<stop  offset="0.3001" style="stop-color:#19253F"/>
							<stop  offset="0.5964" style="stop-color:#0B111D"/>
							<stop  offset="0.8398" style="stop-color:#030408"/>
							<stop  offset="1" style="stop-color:#000000"/>
						</radialGradient>
						<path class="st25" d="M88.317,35.745c-2.134,0.832-3.172,3.287-2.316,5.485c0.856,2.196,3.28,3.302,5.416,2.471
							c2.135-0.832,3.173-3.288,2.318-5.484C92.879,36.02,90.453,34.913,88.317,35.745z"/>
						
							<radialGradient id="SVGID_28_" cx="-880.8499" cy="263.7913" r="7.9198" gradientTransform="matrix(0.838 -0.3264 -0.3287 -0.8442 912.535 -25.4443)" gradientUnits="userSpaceOnUse">
							<stop  offset="0" style="stop-color:#94A1CC"/>
							<stop  offset="0.4788" style="stop-color:#293D69"/>
							<stop  offset="0.5947" style="stop-color:#1D2B4E"/>
							<stop  offset="0.7658" style="stop-color:#0D132C"/>
							<stop  offset="0.907" style="stop-color:#030517"/>
							<stop  offset="1" style="stop-color:#00000F"/>
						</radialGradient>
						<path class="st26" d="M88.387,35.921c-2.041,0.795-3.033,3.141-2.215,5.241c0.819,2.098,3.136,3.156,5.177,2.361
							s3.033-3.141,2.215-5.241C92.745,36.184,90.426,35.126,88.387,35.921z"/>
						
							<radialGradient id="SVGID_29_" cx="-880.85" cy="263.9247" r="8.0119" gradientTransform="matrix(0.838 -0.3264 -0.3287 -0.8442 912.535 -25.4443)" gradientUnits="userSpaceOnUse">
							<stop  offset="0" style="stop-color:#FFFFFF"/>
							<stop  offset="0.3515" style="stop-color:#C9E6FF"/>
							<stop  offset="0.7091" style="stop-color:#758BB4"/>
							<stop  offset="1" style="stop-color:#264759"/>
						</radialGradient>
						<path class="st27" d="M91.348,43.524c1.139-0.444,1.95-1.371,2.304-2.469c-0.02-0.414-0.102-0.834-0.261-1.242
							c-0.776-1.992-3.038-3.026-5.036-2.352c-1.656,0.558-2.453,1.818-2.321,3.278c0.038,0.143,0.084,0.284,0.137,0.425
							C86.99,43.261,89.308,44.319,91.348,43.524z"/>
						
							<radialGradient id="SVGID_30_" cx="-880.8488" cy="263.791" r="7.9188" gradientTransform="matrix(0.838 -0.3264 -0.3287 -0.8442 912.535 -25.4443)" gradientUnits="userSpaceOnUse">
							<stop  offset="0" style="stop-color:#FFFFFF"/>
							<stop  offset="0.4" style="stop-color:#4F4F4F"/>
							<stop  offset="0.436" style="stop-color:#464646"/>
							<stop  offset="0.586" style="stop-color:#282828"/>
							<stop  offset="0.7325" style="stop-color:#121212"/>
							<stop  offset="0.8728" style="stop-color:#050505"/>
							<stop  offset="1" style="stop-color:#000000"/>
						</radialGradient>
						<path class="st28" d="M92.131,41.322c-0.424-1.088-1.651-1.628-2.74-1.203s-1.628,1.651-1.205,2.74
							c0.105,0.271,0.262,0.508,0.452,0.705c0.856,0.301,1.809,0.312,2.71-0.039c0.212-0.083,0.407-0.186,0.594-0.299
							C92.291,42.675,92.384,41.975,92.131,41.322z"/>
						<path class="st29" d="M89.716,42.005c-0.193,0.436-0.589,0.682-0.881,0.551c-0.292-0.132-0.371-0.59-0.178-1.025
							c0.195-0.435,0.59-0.683,0.883-0.551C89.832,41.11,89.912,41.57,89.716,42.005z"/>
					</g>
				</g>
				<g>
					
						<linearGradient id="SVGID_31_" gradientUnits="userSpaceOnUse" x1="1805.1227" y1="-342.1126" x2="1806.5513" y2="-338.1038" gradientTransform="matrix(-0.7815 -0.2681 0.2785 -0.8118 1603.1577 244.7514)">
						<stop  offset="0" style="stop-color:#000000"/>
						<stop  offset="0.1591" style="stop-color:#040509"/>
						<stop  offset="0.4239" style="stop-color:#0F1423"/>
						<stop  offset="0.7596" style="stop-color:#202C4C"/>
						<stop  offset="1" style="stop-color:#2E406E"/>
					</linearGradient>
					<path class="st30" d="M99.938,35.246c-2.506,0.019-3.447,1.199-3.941,2.16c-1.032,2.01-1.955,1.143-1.432-0.381
						C95.089,35.5,97.321,34.199,99.938,35.246z"/>
					<g>
						
							<radialGradient id="SVGID_32_" cx="1695.8295" cy="-309.7569" r="5.7652" gradientTransform="matrix(-0.8507 -0.2918 0.2939 -0.857 1632.2372 268.757)" gradientUnits="userSpaceOnUse">
							<stop  offset="0" style="stop-color:#293D69"/>
							<stop  offset="0.3001" style="stop-color:#19253F"/>
							<stop  offset="0.5964" style="stop-color:#0B111D"/>
							<stop  offset="0.8398" style="stop-color:#030408"/>
							<stop  offset="1" style="stop-color:#000000"/>
						</radialGradient>
						<path class="st31" d="M97.937,36.886c1.507,0.518,2.299,2.195,1.767,3.746c-0.532,1.552-2.186,2.39-3.694,1.873
							c-1.509-0.518-2.3-2.195-1.768-3.747C94.775,37.208,96.429,36.37,97.937,36.886z"/>
						
							<radialGradient id="SVGID_33_" cx="1695.8987" cy="-309.7968" r="5.5092" gradientTransform="matrix(-0.8507 -0.2918 0.2939 -0.857 1632.2372 268.757)" gradientUnits="userSpaceOnUse">
							<stop  offset="0" style="stop-color:#94A1CC"/>
							<stop  offset="0.4788" style="stop-color:#293D69"/>
							<stop  offset="0.5947" style="stop-color:#1D2B4E"/>
							<stop  offset="0.7658" style="stop-color:#0D132C"/>
							<stop  offset="0.907" style="stop-color:#030517"/>
							<stop  offset="1" style="stop-color:#00000F"/>
						</radialGradient>
						<path class="st32" d="M97.894,37.011c1.441,0.495,2.198,2.097,1.689,3.58c-0.508,1.484-2.089,2.285-3.531,1.79
							c-1.441-0.494-2.197-2.096-1.689-3.58C94.872,37.317,96.453,36.517,97.894,37.011z"/>
						
							<radialGradient id="SVGID_34_" cx="1695.8987" cy="-309.7039" r="5.5738" gradientTransform="matrix(-0.8507 -0.2918 0.2939 -0.857 1632.2372 268.757)" gradientUnits="userSpaceOnUse">
							<stop  offset="0" style="stop-color:#FFFFFF"/>
							<stop  offset="0.3515" style="stop-color:#C9E6FF"/>
							<stop  offset="0.7091" style="stop-color:#758BB4"/>
							<stop  offset="1" style="stop-color:#264759"/>
						</radialGradient>
						<path class="st33" d="M96.052,42.381c-0.804-0.275-1.394-0.898-1.671-1.65c0.001-0.289,0.046-0.583,0.145-0.872
							c0.482-1.407,2.025-2.19,3.434-1.779c1.167,0.341,1.757,1.193,1.707,2.213c-0.023,0.099-0.05,0.2-0.085,0.297
							C99.075,42.074,97.494,42.876,96.052,42.381z"/>
						
							<radialGradient id="SVGID_35_" cx="1695.8978" cy="-309.7974" r="5.5094" gradientTransform="matrix(-0.8507 -0.2918 0.2939 -0.857 1632.2372 268.757)" gradientUnits="userSpaceOnUse">
							<stop  offset="0" style="stop-color:#FFFFFF"/>
							<stop  offset="0.4" style="stop-color:#4F4F4F"/>
							<stop  offset="0.436" style="stop-color:#464646"/>
							<stop  offset="0.586" style="stop-color:#282828"/>
							<stop  offset="0.7325" style="stop-color:#121212"/>
							<stop  offset="0.8728" style="stop-color:#050505"/>
							<stop  offset="1" style="stop-color:#000000"/>
						</radialGradient>
						<path class="st34" d="M95.446,40.872c0.264-0.769,1.102-1.178,1.871-0.914c0.769,0.264,1.178,1.101,0.915,1.87
							c-0.066,0.193-0.167,0.361-0.295,0.502c-0.586,0.234-1.248,0.269-1.885,0.05c-0.149-0.051-0.288-0.118-0.421-0.191
							C95.374,41.819,95.287,41.333,95.446,40.872z"/>
						<path class="st29" d="M97.143,41.278c0.147,0.297,0.429,0.457,0.629,0.359c0.2-0.099,0.241-0.422,0.094-0.718
							c-0.147-0.297-0.429-0.457-0.63-0.358C97.036,40.66,96.995,40.981,97.143,41.278z"/>
					</g>
				</g>
			</g>
			<g>
				
					<radialGradient id="SVGID_36_" cx="868.9828" cy="-39.1859" r="22.4263" gradientTransform="matrix(1.0264 -0.0733 -0.034 -0.4764 -804.2706 92.792)" gradientUnits="userSpaceOnUse">
					<stop  offset="0" style="stop-color:#000000"/>
					<stop  offset="1" style="stop-color:#750000"/>
				</radialGradient>
				<path class="st35" d="M102.976,48.094c-5.164,1.62-11.401,1.558-15.501,1.641c-2.374,0.05-1.627,0.803-0.272,1.041
					c2.952,0.519,5.365,3.492,10.044,3.092c2.856-0.244,4.458-2.371,5.988-4.591C103.951,48.237,105.399,47.333,102.976,48.094z"/>
				<g>
					
						<radialGradient id="SVGID_37_" cx="663.7944" cy="-13.2307" r="2.8881" gradientTransform="matrix(1.7632 -0.5793 -0.3967 -1.2073 -1078.4319 421.3723)" gradientUnits="userSpaceOnUse">
						<stop  offset="0" style="stop-color:#E285A2"/>
						<stop  offset="1" style="stop-color:#780036"/>
					</radialGradient>
					<path class="st36" d="M95.447,51.68c-1.874-0.495-3.276-0.073-2.897,1.414c1.269,0.589,2.756,0.958,4.697,0.773
						c0.443-0.042,0.879-0.129,1.304-0.265c0-0.013,0.002-0.023,0.001-0.035C98.89,51.641,96.807,51.074,95.447,51.68z"/>
					
						<radialGradient id="SVGID_38_" cx="663.7943" cy="-13.2315" r="2.8881" gradientTransform="matrix(1.7632 -0.5793 -0.3967 -1.2073 -1078.4319 421.3723)" gradientUnits="userSpaceOnUse">
						<stop  offset="0.0121" style="stop-color:#FFA1BF"/>
						<stop  offset="0.1306" style="stop-color:#F797B7"/>
						<stop  offset="0.329" style="stop-color:#E17EA1"/>
						<stop  offset="0.5829" style="stop-color:#BE537D"/>
						<stop  offset="0.8794" style="stop-color:#8D1A4C"/>
						<stop  offset="1" style="stop-color:#780036"/>
					</radialGradient>
					<path class="st37" d="M95.447,51.68c-1.874-0.495-3.276-0.073-2.897,1.414c0.342,0.158,0.7,0.299,1.077,0.418
						c-0.698-0.958-0.169-1.703,0.805-1.639c0.799,0.054,1.762,0.49,2.451,1.197c-0.326-0.629-0.745-1.001-1.065-1.179
						c0.693-0.283,2.156,0.092,2.701,0.786C98.174,51.48,96.567,51.182,95.447,51.68z"/>
				</g>
				<g>
					
						<radialGradient id="SVGID_39_" cx="884.98" cy="631.1634" r="16.94" gradientTransform="matrix(0.9975 -0.0712 -0.0352 -0.4915 -762.9267 427.6428)" gradientUnits="userSpaceOnUse">
						<stop  offset="0" style="stop-color:#B5755C"/>
						<stop  offset="1" style="stop-color:#98553B"/>
					</radialGradient>
					<path class="st38" d="M103.532,48.788c-0.975,0.907-1.872,4.04-5.997,4.897c-3.148,0.654-6.451-2.062-8.973-2.679
						c-1.158-0.283-2.292-0.35-2.626-0.867c-0.04,0.168,0.212,0.616,1.367,0.836c3.154,0.603,5.326,4.424,10.204,3.712
						c2.992-0.436,4.148-2.717,5.567-4.914c0.557-0.863,1.288-1.407,1.256-1.806C104.195,48.116,104.126,48.234,103.532,48.788z"/>
					
						<radialGradient id="SVGID_40_" cx="884.9803" cy="632.0038" r="16.9315" gradientTransform="matrix(0.9975 -0.0712 -0.0352 -0.4915 -762.9267 427.6428)" gradientUnits="userSpaceOnUse">
						<stop  offset="0.0485" style="stop-color:#E9CDAE"/>
						<stop  offset="0.8485" style="stop-color:#B5755C"/>
						<stop  offset="1" style="stop-color:#98553B"/>
					</radialGradient>
					<path class="st39" d="M103.429,48.661c-0.975,0.908-1.909,3.749-6.036,4.605c-3.147,0.654-7.034-2.017-9.556-2.634
						c-1.157-0.283-1.773-0.273-1.903-0.492c-0.04,0.168,0.271,0.607,1.434,0.785c3.184,0.488,4.998,4.015,10.006,3.341
						c2.929-0.394,4.388-2.608,5.664-4.538c0.566-0.856,1.322-1.361,1.29-1.761C104.195,48.116,104.023,48.107,103.429,48.661z"/>
					
						<radialGradient id="SVGID_41_" cx="884.6882" cy="640.8562" r="11.6665" gradientTransform="matrix(0.9975 -0.0712 -0.0352 -0.4915 -762.9267 427.6428)" gradientUnits="userSpaceOnUse">
						<stop  offset="0" style="stop-color:#FFE3C7"/>
						<stop  offset="1" style="stop-color:#C9977B"/>
					</radialGradient>
					<path class="st40" d="M103.269,47.92c-1.662,0.406-4.014,0.977-6.976,1.3c-4.72,0.514-7.439,0.178-9.799,0.543
						c-0.547,0.085-0.639,0.286-0.559,0.376c0.838-0.596,5.544,0.546,10.551-0.128c4.352-0.584,7.172-2.197,7.843-2.044
						C104.491,47.803,104.339,47.661,103.269,47.92z"/>
				</g>
			</g>
		</g>
	</g>
</g>
</svg>
