<?xml version="1.0" encoding="utf-8"?>
<!-- Generator: Adobe Illustrator 25.2.1, SVG Export Plug-In . SVG Version: 6.00 Build 0)  -->
<svg version="1.1" id="Layer_1" xmlns="http://www.w3.org/2000/svg" xmlns:xlink="http://www.w3.org/1999/xlink" x="0px" y="0px"
	 viewBox="0 0 260.697 750" style="enable-background:new 0 0 260.697 750;" xml:space="preserve">
<style type="text/css">
	.st0{fill:#7B7B7B;}
	.st1{fill:#FFFFFF;}
	.st2{fill:#BDBDBD;}
	.st3{fill:#CDDC39;}
	.st4{fill:#E7E7E7;}
	.st5{fill:#8E8E8E;}
	.st6{fill:#C0CA33;}
	.st7{fill:#AFB42B;}
	.st8{fill:#FFE082;}
	.st9{fill:#FFC107;}
	.st10{fill:#FFB300;}
	.st11{fill:#FFEB3B;}
	.st12{fill:#FFF59D;}
	.st13{fill:#ECECEC;}
	.st14{fill:#ACACAC;}
	.st15{fill:#212022;}
	.st16{fill:#606060;}
	.st17{fill:#D7D7D7;}
	.st18{fill:#4FC3F7;}
	.st19{opacity:0.2;fill:#FFFFFF;}
	.st20{fill:#03A9F4;}
	.st21{fill:#0277BD;}
	.st22{fill:#009688;}
	.st23{fill:#00796B;}
	.st24{fill:#5B5B5B;}
	.st25{fill:#4A404B;}
	.st26{fill:#FF5722;}
	.st27{fill:#FF8A65;}
	.st28{fill:#4CAF50;}
	.st29{fill:#81C784;}
	.st30{fill:#2E2D30;}
	.st31{fill:#E2D4BA;}
	.st32{fill:#00B4BA;}
	.st33{fill:#EFE2D3;}
	.st34{fill:#F7ECDF;}
	.st35{fill:#81CCC8;}
	.st36{fill:#CCBA9F;}
	.st37{fill:#02AAAA;}
	.st38{fill:#08A0A0;}
	.st39{fill:#FFD731;}
	.st40{opacity:0.62;}
	.st41{fill:#FFA71B;}
	.st42{fill:#03657F;}
	.st43{fill:none;}
	.st44{fill-rule:evenodd;clip-rule:evenodd;fill:#BDBDBD;}
	.st45{fill-rule:evenodd;clip-rule:evenodd;fill:#E6EAEB;}
	.st46{fill-rule:evenodd;clip-rule:evenodd;fill:#BF4A3D;}
	.st47{fill-rule:evenodd;clip-rule:evenodd;fill:#943B3B;}
	.st48{fill-rule:evenodd;clip-rule:evenodd;fill:#E74C3C;}
	.st49{fill-rule:evenodd;clip-rule:evenodd;fill:#2C3E50;}
	.st50{fill-rule:evenodd;clip-rule:evenodd;fill:#9C9C9C;}
	.st51{fill-rule:evenodd;clip-rule:evenodd;fill:#222F3B;}
	.st52{fill-rule:evenodd;clip-rule:evenodd;fill:#34485C;}
	.st53{fill-rule:evenodd;clip-rule:evenodd;fill:#3D566E;}
	.st54{fill-rule:evenodd;clip-rule:evenodd;fill:#CCCCCC;}
	.st55{fill-rule:evenodd;clip-rule:evenodd;fill:#E0B712;}
	.st56{fill-rule:evenodd;clip-rule:evenodd;fill:#FFCB05;}
	.st57{fill-rule:evenodd;clip-rule:evenodd;fill:#A6392D;}
	.st58{fill-rule:evenodd;clip-rule:evenodd;fill:#999999;}
	.st59{fill-rule:evenodd;clip-rule:evenodd;}
	.st60{fill-rule:evenodd;clip-rule:evenodd;fill:#02968B;}
	.st61{fill-rule:evenodd;clip-rule:evenodd;fill:#65C2AA;}
	.st62{fill-rule:evenodd;clip-rule:evenodd;fill:#9AD8C5;}
	.st63{fill-rule:evenodd;clip-rule:evenodd;fill:#1A1A1A;}
	.st64{fill-rule:evenodd;clip-rule:evenodd;fill:#4D4D4D;}
</style>
<g>
	<g>
		<path class="st0" d="M132.564,9.372c-0.474,0-0.893-0.34-0.977-0.823c-0.486-2.787-0.395-5.344,0.279-7.817
			c0.144-0.529,0.691-0.841,1.219-0.697c0.529,0.144,0.841,0.69,0.697,1.219c-0.595,2.186-0.673,4.461-0.238,6.954
			c0.094,0.54-0.267,1.055-0.808,1.149C132.678,9.368,132.62,9.372,132.564,9.372z"/>
	</g>
	<g>
		<path class="st0" d="M37.841,730.375c-0.012,0-0.025,0-0.037,0c-0.548-0.02-0.976-0.481-0.956-1.029
			c0.201-5.497,0.421-10.41,0.67-15.021c0.029-0.547,0.493-0.972,1.045-0.938c0.548,0.03,0.968,0.498,0.938,1.046
			c-0.249,4.599-0.467,9.501-0.668,14.986C38.814,729.954,38.373,730.375,37.841,730.375z M39.277,703.381
			c-0.025,0-0.05-0.001-0.075-0.003c-0.547-0.041-0.957-0.517-0.917-1.064c0.395-5.284,0.842-10.188,1.367-14.99
			c0.06-0.545,0.551-0.936,1.095-0.879c0.545,0.06,0.939,0.55,0.879,1.095c-0.523,4.779-0.968,9.66-1.361,14.921
			C40.228,702.984,39.792,703.381,39.277,703.381z M42.147,676.507c-0.047,0-0.095-0.003-0.143-0.01
			c-0.543-0.079-0.919-0.582-0.841-1.125c0.738-5.107,1.589-10.105,2.53-14.853c0.107-0.538,0.628-0.891,1.167-0.781
			c0.538,0.107,0.888,0.629,0.781,1.167c-0.934,4.714-1.78,9.677-2.513,14.751C43.058,676.151,42.633,676.507,42.147,676.507z
			 M47.285,649.982c-0.08,0-0.161-0.01-0.241-0.03c-0.532-0.133-0.856-0.672-0.723-1.204c1.238-4.962,2.634-9.841,4.149-14.501
			c0.17-0.521,0.731-0.805,1.251-0.638c0.522,0.17,0.807,0.73,0.637,1.252c-1.501,4.617-2.884,9.451-4.111,14.368
			C48.135,649.68,47.73,649.982,47.285,649.982z M55.488,624.246c-0.123,0-0.247-0.023-0.368-0.071
			c-0.509-0.203-0.758-0.781-0.554-1.29c1.898-4.757,3.995-9.385,6.233-13.756c0.25-0.488,0.847-0.682,1.337-0.432
			c0.488,0.25,0.681,0.849,0.431,1.336c-2.21,4.316-4.281,8.888-6.157,13.587C56.256,624.01,55.883,624.246,55.488,624.246z
			 M212.306,614.034c-0.5,0-0.93-0.377-0.986-0.885c-0.06-0.546,0.334-1.036,0.879-1.095c1.735-0.19,3.44-0.551,5.068-1.075
			c2.906-0.935,5.621-2.42,8.071-4.416c0.425-0.346,1.051-0.282,1.397,0.143c0.346,0.425,0.282,1.051-0.143,1.398
			c-2.643,2.153-5.576,3.757-8.718,4.768c-1.755,0.564-3.592,0.954-5.46,1.159C212.378,614.032,212.342,614.034,212.306,614.034z
			 M200.421,612.917c-0.092,0-0.185-0.013-0.277-0.04c-4.867-1.412-9.538-3.912-13.507-7.232c-0.421-0.352-0.477-0.978-0.125-1.399
			c0.352-0.42,0.979-0.477,1.399-0.125c3.761,3.144,8.182,5.512,12.787,6.847c0.527,0.153,0.83,0.704,0.677,1.231
			C201.249,612.635,200.852,612.917,200.421,612.917z M67.589,600.118c-0.179,0-0.36-0.049-0.524-0.15
			c-0.466-0.29-0.608-0.902-0.319-1.368c2.691-4.327,5.616-8.488,8.692-12.369c0.341-0.43,0.966-0.501,1.395-0.161
			c0.43,0.341,0.502,0.966,0.161,1.395c-3.03,3.822-5.911,7.922-8.562,12.185C68.245,599.952,67.92,600.118,67.589,600.118z
			 M233.512,599.078c-0.16,0-0.321-0.038-0.471-0.12c-0.483-0.26-0.662-0.863-0.401-1.346c2.292-4.238,3.69-9.051,4.044-13.916
			c0.04-0.547,0.519-0.954,1.063-0.919c0.547,0.04,0.958,0.516,0.918,1.062c-0.374,5.144-1.853,10.233-4.278,14.717
			C234.207,598.889,233.865,599.078,233.512,599.078z M179.355,596.9c-0.322,0-0.638-0.156-0.829-0.445
			c-2.674-4.035-4.865-8.671-6.512-13.781c-0.169-0.522,0.118-1.082,0.64-1.25c0.52-0.17,1.082,0.118,1.25,0.64
			c1.592,4.937,3.704,9.41,6.278,13.294c0.303,0.457,0.178,1.074-0.279,1.376C179.733,596.846,179.543,596.9,179.355,596.9z
			 M84.119,578.802c-0.248,0-0.497-0.093-0.689-0.278c-0.395-0.381-0.406-1.009-0.026-1.404c3.499-3.629,7.253-7.065,11.157-10.213
			c0.427-0.345,1.052-0.277,1.396,0.149c0.345,0.427,0.277,1.052-0.15,1.397c-3.84,3.097-7.532,6.476-10.974,10.046
			C84.639,578.701,84.379,578.802,84.119,578.802z M236.412,572.877c-0.429,0-0.824-0.279-0.952-0.711
			c-1.351-4.564-3.615-8.907-6.73-12.909c-0.337-0.433-0.259-1.057,0.174-1.394c0.433-0.337,1.057-0.259,1.394,0.174
			c3.268,4.198,5.646,8.762,7.068,13.565c0.156,0.526-0.144,1.079-0.67,1.234C236.6,572.864,236.505,572.877,236.412,572.877z
			 M170.275,571.665c-0.485,0-0.91-0.356-0.982-0.85c-0.561-3.854-0.845-7.81-0.845-11.758c0-1.132,0.024-2.277,0.069-3.403
			c0.023-0.548,0.497-0.977,1.033-0.952c0.548,0.022,0.974,0.484,0.952,1.032c-0.045,1.1-0.068,2.218-0.068,3.322
			c0,3.852,0.277,7.712,0.824,11.472c0.079,0.543-0.297,1.047-0.84,1.126C170.371,571.661,170.323,571.665,170.275,571.665z
			 M104.898,561.61c-0.324,0-0.642-0.158-0.832-0.45c-0.3-0.459-0.171-1.075,0.288-1.375c4.163-2.722,8.581-5.244,13.133-7.497
			c0.491-0.243,1.087-0.041,1.331,0.45c0.243,0.492,0.042,1.088-0.45,1.331c-4.481,2.219-8.831,4.701-12.927,7.379
			C105.272,561.557,105.084,561.61,104.898,561.61z M221.012,551.193c-0.213,0-0.428-0.068-0.61-0.21
			c-3.835-2.988-8.118-5.466-12.729-7.363c-0.507-0.209-0.749-0.789-0.54-1.297c0.209-0.507,0.79-0.749,1.297-0.54
			c4.777,1.966,9.216,4.535,13.194,7.634c0.433,0.338,0.51,0.962,0.173,1.394C221.6,551.061,221.308,551.193,221.012,551.193z
			 M128.918,549.337c-0.398,0-0.773-0.241-0.926-0.634c-0.199-0.512,0.055-1.087,0.566-1.286c4.587-1.782,9.414-3.375,14.346-4.735
			c0.529-0.147,1.076,0.164,1.222,0.693c0.146,0.529-0.165,1.076-0.693,1.222c-4.868,1.343-9.631,2.915-14.155,4.672
			C129.159,549.315,129.037,549.337,128.918,549.337z M170.855,544.758c-0.06,0-0.121-0.005-0.182-0.016
			c-0.539-0.1-0.895-0.618-0.796-1.158c0.921-4.97,2.288-9.889,4.064-14.62c0.193-0.513,0.765-0.773,1.279-0.581
			c0.514,0.193,0.774,0.765,0.581,1.279c-1.735,4.622-3.07,9.427-3.97,14.283C171.742,544.424,171.325,544.758,170.855,544.758z
			 M154.834,541.766c-0.458,0-0.87-0.319-0.97-0.785c-0.115-0.536,0.226-1.064,0.763-1.179c5.325-1.144,10.204-1.945,14.916-2.449
			c0.547-0.056,1.035,0.336,1.093,0.882c0.058,0.546-0.337,1.035-0.882,1.093c-4.643,0.497-9.455,1.288-14.711,2.416
			C154.973,541.759,154.903,541.766,154.834,541.766z M196.559,540.254c-0.066,0-0.132-0.006-0.199-0.02
			c-4.64-0.945-9.596-1.452-14.73-1.508c-0.548-0.006-0.988-0.455-0.982-1.004c0.006-0.549,0.467-0.985,1.004-0.982
			c5.259,0.057,10.341,0.578,15.105,1.547c0.538,0.11,0.885,0.634,0.775,1.172C197.435,539.93,197.021,540.254,196.559,540.254z
			 M179.876,519.396c-0.161,0-0.325-0.039-0.477-0.123c-0.481-0.264-0.657-0.867-0.393-1.348c2.454-4.474,5.312-8.707,8.493-12.582
			c0.348-0.424,0.974-0.486,1.398-0.137c0.424,0.348,0.485,0.974,0.137,1.398c-3.104,3.781-5.892,7.911-8.287,12.277
			C180.567,519.209,180.226,519.396,179.876,519.396z M196.444,498.171c-0.258,0-0.515-0.1-0.71-0.299
			c-0.383-0.392-0.376-1.021,0.016-1.404c2.53-2.474,5.179-4.913,7.741-7.272c1.086-0.999,2.171-1.998,3.249-3.002
			c0.402-0.374,1.03-0.352,1.404,0.05c0.373,0.402,0.351,1.03-0.051,1.403c-1.08,1.006-2.168,2.007-3.256,3.01
			c-2.551,2.349-5.189,4.778-7.698,7.231C196.945,498.077,196.694,498.171,196.444,498.171z M215.979,479.491
			c-0.243,0-0.487-0.089-0.678-0.268c-0.401-0.375-0.421-1.003-0.046-1.404c3.791-4.049,6.758-7.867,9.072-11.672
			c0.285-0.469,0.896-0.618,1.365-0.333c0.469,0.285,0.618,0.896,0.333,1.365c-2.385,3.923-5.434,7.847-9.319,11.998
			C216.509,479.386,216.245,479.491,215.979,479.491z M230.158,456.757c-0.1,0-0.201-0.015-0.301-0.047
			c-0.523-0.166-0.812-0.725-0.646-1.248c1.449-4.557,2.275-9.434,2.455-14.496c0.02-0.548,0.495-0.979,1.028-0.957
			c0.548,0.02,0.977,0.48,0.957,1.028c-0.186,5.242-1.043,10.297-2.547,15.027C230.969,456.487,230.579,456.757,230.158,456.757z
			 M231.933,430.021c-0.482,0-0.905-0.351-0.98-0.842c-0.736-4.774-2.002-9.514-3.761-14.087l-0.071-0.184
			c-0.198-0.512,0.057-1.087,0.569-1.284c0.511-0.196,1.087,0.058,1.284,0.569l0.071,0.185c1.811,4.706,3.113,9.583,3.871,14.498
			c0.084,0.542-0.288,1.049-0.83,1.133C232.034,430.017,231.983,430.021,231.933,430.021z M222.964,404.678
			c-0.349,0-0.688-0.184-0.87-0.512c-2.364-4.261-5.142-8.403-8.259-12.308c-0.342-0.429-0.272-1.054,0.157-1.396
			c0.43-0.343,1.054-0.271,1.396,0.157c3.185,3.992,6.026,8.226,8.443,12.584c0.266,0.48,0.093,1.084-0.387,1.35
			C223.292,404.639,223.127,404.678,222.964,404.678z M206.572,383.334c-0.252,0-0.503-0.095-0.697-0.285
			c-3.379-3.326-7.167-6.601-11.258-9.734c-0.436-0.334-0.518-0.957-0.185-1.392c0.334-0.435,0.957-0.518,1.392-0.185
			c4.156,3.183,8.006,6.512,11.443,9.896c0.391,0.385,0.396,1.014,0.011,1.404C207.085,383.235,206.829,383.334,206.572,383.334z
			 M185.395,366.6c-0.186,0-0.373-0.052-0.54-0.161c-3.945-2.565-8.142-5.076-12.831-7.676c-0.48-0.266-0.653-0.87-0.387-1.35
			c0.266-0.479,0.871-0.653,1.35-0.387c4.73,2.623,8.967,5.157,12.951,7.748c0.46,0.299,0.59,0.914,0.291,1.374
			C186.038,366.441,185.72,366.6,185.395,366.6z M161.876,353.271c-0.151,0-0.304-0.035-0.448-0.107
			c-3.855-1.952-8.137-4.043-13.476-6.58c-0.495-0.235-0.706-0.828-0.471-1.323c0.235-0.496,0.827-0.706,1.323-0.471
			c5.355,2.544,9.651,4.643,13.521,6.603c0.489,0.248,0.685,0.845,0.437,1.335C162.587,353.071,162.238,353.271,161.876,353.271z
			 M137.512,341.554c-0.142,0-0.286-0.031-0.423-0.095c-3.964-1.868-8.204-3.878-12.352-5.914l-1.208-0.595
			c-0.491-0.243-0.693-0.839-0.45-1.331c0.243-0.491,0.839-0.692,1.331-0.45l1.202,0.592c4.135,2.03,8.367,4.036,12.324,5.901
			c0.496,0.234,0.709,0.826,0.475,1.322C138.242,341.344,137.885,341.554,137.512,341.554z M113.28,329.566
			c-0.158,0-0.318-0.038-0.467-0.117c-4.578-2.443-8.993-4.933-13.123-7.4c-0.471-0.281-0.624-0.891-0.343-1.362
			c0.281-0.471,0.891-0.624,1.362-0.343c4.102,2.451,8.489,4.925,13.039,7.353c0.484,0.258,0.667,0.86,0.409,1.344
			C113.979,329.375,113.635,329.566,113.28,329.566z M90.03,315.794c-0.188,0-0.379-0.053-0.548-0.165
			c-4.296-2.847-8.429-5.792-12.285-8.752c-0.435-0.334-0.517-0.957-0.183-1.393c0.334-0.435,0.957-0.517,1.393-0.183
			c3.82,2.932,7.916,5.85,12.173,8.672c0.457,0.303,0.582,0.919,0.279,1.377C90.668,315.638,90.352,315.794,90.03,315.794z
			 M68.508,299.471c-0.232,0-0.465-0.081-0.654-0.246c-3.852-3.372-7.523-6.886-10.91-10.444c-0.378-0.397-0.363-1.026,0.035-1.404
			c0.398-0.378,1.026-0.362,1.404,0.035c3.345,3.514,6.972,6.986,10.779,10.318c0.413,0.361,0.454,0.989,0.093,1.402
			C69.06,299.357,68.785,299.471,68.508,299.471z M49.765,280.043c-0.292,0-0.581-0.128-0.777-0.373
			c-3.173-3.974-6.115-8.125-8.743-12.336c-0.29-0.465-0.149-1.078,0.317-1.368c0.465-0.291,1.078-0.149,1.368,0.317
			c2.587,4.146,5.484,8.233,8.61,12.148c0.342,0.429,0.272,1.054-0.156,1.396C50.201,279.972,49.982,280.043,49.765,280.043z
			 M35.241,257.316c-0.366,0-0.718-0.203-0.891-0.554c-2.255-4.566-4.204-9.27-5.796-13.981c-0.175-0.52,0.104-1.083,0.623-1.259
			c0.519-0.176,1.083,0.103,1.259,0.623c1.563,4.628,3.48,9.25,5.695,13.738c0.243,0.492,0.041,1.087-0.451,1.33
			C35.539,257.283,35.389,257.316,35.241,257.316z M26.293,231.886c-0.458,0-0.869-0.318-0.97-0.784
			c-1.072-4.961-1.78-10.009-2.104-15.002c-0.036-0.547,0.379-1.02,0.927-1.055c0.537-0.039,1.02,0.379,1.055,0.927
			c0.318,4.896,1.012,9.845,2.063,14.711c0.116,0.536-0.225,1.065-0.761,1.18C26.433,231.878,26.363,231.886,26.293,231.886z
			 M24.164,205.022c-0.019,0-0.038,0-0.057-0.002c-0.548-0.031-0.966-0.5-0.935-1.048c0.287-5.02,0.964-10.074,2.013-15.021
			c0.114-0.536,0.638-0.881,1.178-0.765c0.537,0.114,0.879,0.641,0.765,1.178c-1.029,4.848-1.693,9.801-1.974,14.722
			C25.124,204.614,24.687,205.022,24.164,205.022z M29.342,178.572c-0.106,0-0.214-0.017-0.319-0.053
			c-0.519-0.176-0.798-0.74-0.621-1.26c1.317-3.881,2.893-7.769,4.685-11.554c0.382-0.808,0.773-1.611,1.171-2.41
			c0.245-0.491,0.842-0.69,1.332-0.445c0.491,0.245,0.69,0.841,0.445,1.332c-0.392,0.786-0.777,1.578-1.153,2.373
			c-1.759,3.717-3.307,7.533-4.599,11.343C30.142,178.312,29.756,178.572,29.342,178.572z M40.984,154.241
			c-0.177,0-0.357-0.048-0.52-0.148c-0.467-0.288-0.613-0.899-0.325-1.366c2.571-4.177,5.452-8.364,8.565-12.446
			c0.332-0.436,0.955-0.52,1.392-0.187c0.436,0.333,0.52,0.956,0.187,1.392c-3.073,4.03-5.917,8.162-8.453,12.283
			C41.643,154.073,41.318,154.241,40.984,154.241z M57.113,132.589c-0.233,0-0.467-0.081-0.655-0.247
			c-0.412-0.362-0.452-0.99-0.09-1.402c3.205-3.646,6.7-7.328,10.389-10.945c0.392-0.384,1.02-0.378,1.404,0.014
			c0.384,0.392,0.378,1.021-0.014,1.405c-3.654,3.582-7.115,7.228-10.287,10.838C57.663,132.475,57.389,132.589,57.113,132.589z
			 M76.244,113.509c-0.274,0-0.547-0.113-0.743-0.334c-0.364-0.41-0.327-1.038,0.084-1.402c3.599-3.193,7.479-6.456,11.534-9.699
			c0.428-0.343,1.053-0.273,1.396,0.155c0.343,0.428,0.273,1.053-0.155,1.396c-4.028,3.222-7.883,6.463-11.456,9.633
			C76.713,113.427,76.478,113.509,76.244,113.509z M97.248,96.498c-0.302,0-0.601-0.137-0.796-0.398
			c-0.329-0.439-0.239-1.062,0.201-1.39c2.251-1.683,4.622-3.419,7.047-5.16c1.501-1.077,3.279-2.359,5.094-3.696
			c0.441-0.325,1.064-0.231,1.389,0.21c0.325,0.442,0.231,1.063-0.21,1.389c-1.824,1.344-3.608,2.63-5.114,3.711
			c-2.414,1.733-4.775,3.462-7.016,5.137C97.663,96.434,97.454,96.498,97.248,96.498z M118.873,80.27
			c-0.285,0-0.568-0.122-0.765-0.359c-0.35-0.422-0.292-1.048,0.129-1.399c4.263-3.541,7.806-6.879,10.829-10.203
			c0.369-0.406,0.997-0.435,1.403-0.066s0.435,0.997,0.066,1.403c-3.087,3.393-6.694,6.793-11.03,10.394
			C119.322,80.195,119.097,80.27,118.873,80.27z M137.062,60.42c-0.176,0-0.354-0.047-0.515-0.145
			c-0.469-0.285-0.617-0.896-0.332-1.365c2.738-4.499,4.5-9.062,5.237-13.561c0.089-0.541,0.6-0.909,1.141-0.82
			c0.541,0.089,0.908,0.599,0.82,1.141c-0.778,4.752-2.629,9.554-5.5,14.272C137.725,60.25,137.397,60.42,137.062,60.42z
			 M142.15,34.563c-0.46,0-0.874-0.322-0.971-0.791c-0.22-1.058-0.499-2.134-0.828-3.198c-0.968-3.133-2.494-6.29-3.969-9.344
			l-0.569-1.181c-0.237-0.494-0.029-1.088,0.465-1.325c0.494-0.238,1.088-0.029,1.325,0.465l0.567,1.177
			c1.507,3.12,3.066,6.346,4.078,9.622c0.347,1.123,0.641,2.26,0.875,3.379c0.112,0.537-0.233,1.063-0.77,1.175
			C142.285,34.556,142.217,34.563,142.15,34.563z"/>
	</g>
	<g>
		<path class="st0" d="M37.233,750c-0.009,0-0.019,0-0.028,0c-0.548-0.015-0.98-0.472-0.965-1.02
			c0.069-2.48,0.139-4.962,0.212-7.447c0.016-0.548,0.473-0.983,1.022-0.964c0.548,0.016,0.98,0.474,0.964,1.022
			c-0.073,2.484-0.143,4.966-0.212,7.444C38.211,749.573,37.769,750,37.233,750z"/>
	</g>
</g>
<g>
	<g>
		<g>
			
				<ellipse transform="matrix(0.5 -0.866 0.866 0.5 -119.2437 99.8185)" class="st1" cx="26.824" cy="153.177" rx="14.437" ry="8.336"/>
			
				<ellipse transform="matrix(0.5 -0.866 0.866 0.5 -119.2207 100.1742)" class="st2" cx="27.143" cy="153.335" rx="14.437" ry="8.336"/>
		</g>
		
			<ellipse transform="matrix(0.5 -0.866 0.866 0.5 -119.2427 100.6734)" class="st3" cx="27.565" cy="153.604" rx="12.949" ry="7.476"/>
		<g>
			
				<ellipse transform="matrix(0.5 -0.866 0.866 0.5 -119.2433 104.3577)" class="st1" cx="30.755" cy="155.447" rx="14.437" ry="8.336"/>
			
				<ellipse transform="matrix(0.5 -0.866 0.866 0.5 -119.2204 104.7135)" class="st4" cx="31.074" cy="155.605" rx="14.437" ry="8.336"/>
		</g>
	</g>
	<path class="st5" d="M4.026,209.816l32.548,18.792l46.022-26.571l-32.548-18.792L4.026,209.816z"/>
	<polygon class="st2" points="4.026,167.355 50.047,140.784 50.047,183.246 4.026,209.817 	"/>
	<g>
		<path class="st6" d="M58.091,200.187h0.003l-0.035-0.069c-0.009-0.018-0.018-0.037-0.028-0.055l-5.777-11.456H34.03l-5.775,11.451
			c-0.011,0.022-0.022,0.044-0.034,0.067l-0.031,0.062h0.002c-1.485,3.027-0.167,6.416,3.959,8.798
			c6.069,3.504,15.91,3.504,21.979,0C58.259,206.603,59.576,203.214,58.091,200.187z"/>
		<path class="st7" d="M34.03,188.607l-5.775,11.451c-0.011,0.022-0.022,0.044-0.034,0.067l-0.031,0.062h0.002
			c-1.485,3.027-0.167,6.416,3.959,8.798c3.035,1.752,7.012,2.628,10.99,2.628v-23.006H34.03z"/>
		<ellipse class="st3" cx="43.142" cy="189.768" rx="9.332" ry="5.388"/>
	</g>
	<path class="st6" d="M43.449,189.768c0,0-0.067,0.06-0.233,0.06c-0.167,0-0.233-0.06-0.233-0.06v-16.596h0.465V189.768z"/>
	<path class="st7" d="M43.216,189.828v-16.656h-0.233v16.596C42.983,189.768,43.049,189.828,43.216,189.828L43.216,189.828z"/>
	<g>
		<g>
			<polygon class="st8" points="24.779,212.681 21.019,214.852 13.04,210.245 16.8,208.074 			"/>
			<polygon class="st9" points="24.779,217.023 21.019,219.194 21.019,214.852 24.779,212.681 			"/>
			<polygon class="st10" points="21.019,214.852 21.019,219.194 13.04,214.587 13.04,210.245 			"/>
		</g>
		<g>
			<path class="st11" d="M16.29,210.503c0.123,0.071,0.285,0.107,0.447,0.107l0.001-36.337l-0.632-0.241l-0.001,36.213
				C16.105,210.339,16.166,210.432,16.29,210.503z"/>
			<polygon class="st12" points="16.737,174.273 16.737,174.273 17.369,174.514 			"/>
			<path class="st12" d="M16.737,174.273l-0.001,36.337c0.162,0,0.324-0.036,0.447-0.107c0.122-0.07,0.183-0.163,0.185-0.255
				l0.001-35.735L16.737,174.273z"/>
		</g>
		<g>
			<path class="st11" d="M20.117,212.939c0.123,0.071,0.285,0.107,0.447,0.107l0.001-37.315l-0.632-0.241l-0.001,37.191
				C19.932,212.775,19.993,212.868,20.117,212.939z"/>
			<polygon class="st12" points="20.564,175.731 20.564,175.731 21.196,175.972 			"/>
			<polygon class="st12" points="20.564,213.431 21.196,213.672 20.564,213.431 			"/>
			<path class="st12" d="M20.564,175.731l-0.001,37.315c0.162,0,0.324-0.036,0.447-0.107c0.122-0.07,0.183-0.163,0.185-0.255
				l0.001-36.713L20.564,175.731z"/>
		</g>
		<g>
			<polygon class="st8" points="24.779,174.074 21.019,176.245 13.04,171.638 16.8,169.467 			"/>
			<polygon class="st9" points="24.779,178.416 21.019,180.586 21.019,176.245 24.779,174.074 			"/>
			<polygon class="st10" points="21.019,176.245 21.019,180.586 13.04,175.98 13.04,171.638 			"/>
		</g>
	</g>
	<g>
		<polygon class="st13" points="54.067,147.317 77.491,160.841 79.217,159.857 79.084,157.836 52.481,142.477 51.566,182.778 
			54.066,181.353 		"/>
		<polygon class="st1" points="79.217,159.857 77.491,160.841 77.498,160.845 77.497,194.881 54.066,181.353 51.566,182.778 
			52.48,184.362 79.083,199.721 81.751,198.181 		"/>
		<path class="st14" d="M50.048,140.785l0,42.461l32.548,18.791l0-42.461L50.048,140.785z M78.472,196.055L53.58,181.632v-34.845
			l24.998,14.681L78.472,196.055z"/>
	</g>
	<g>
		<g>
			<polygon class="st8" points="67.925,189.931 64.165,192.102 56.186,187.495 59.946,185.324 			"/>
			<polygon class="st9" points="67.925,194.272 64.165,196.443 64.165,192.102 67.925,189.931 			"/>
			<polygon class="st10" points="64.165,192.102 64.165,196.443 56.186,191.837 56.186,187.495 			"/>
		</g>
		<g>
			<path class="st11" d="M59.435,187.753c0.123,0.071,0.285,0.107,0.447,0.107l0.001-36.337l-0.632-0.241l-0.001,36.213
				C59.25,187.589,59.312,187.682,59.435,187.753z"/>
			<polygon class="st12" points="59.883,151.523 59.883,151.523 60.514,151.763 			"/>
			<path class="st12" d="M59.883,151.523l-0.001,35.972v0.365c0.162,0,0.324-0.036,0.447-0.107c0.122-0.07,0.183-0.163,0.185-0.255
				l0.001-35.735L59.883,151.523z"/>
		</g>
		<g>
			<path class="st11" d="M63.262,190.189c0.123,0.071,0.285,0.107,0.447,0.107l0.001-37.315l-0.632-0.241l-0.001,37.191
				C63.077,190.024,63.139,190.118,63.262,190.189z"/>
			<polygon class="st12" points="63.71,152.98 63.71,152.98 64.342,153.221 			"/>
			<polygon class="st12" points="63.709,190.68 64.341,190.921 63.709,190.68 			"/>
			<path class="st12" d="M63.71,152.98l-0.001,37.315c0.162,0,0.324-0.036,0.447-0.107c0.122-0.07,0.183-0.163,0.185-0.255
				l0.001-36.713L63.71,152.98z"/>
		</g>
		<g>
			<polygon class="st8" points="67.925,151.323 64.165,153.494 56.186,148.887 59.946,146.717 			"/>
			<polygon class="st9" points="67.925,155.665 64.165,157.836 64.165,153.494 67.925,151.324 			"/>
			<polygon class="st10" points="64.165,153.494 64.165,157.836 56.186,153.229 56.186,148.888 			"/>
		</g>
	</g>
	<g>
		<polygon class="st1" points="38.928,186.457 40.655,187.441 40.648,187.445 40.648,221.481 64.079,207.954 66.58,209.379 
			65.665,210.962 39.062,226.321 37.524,224.67 		"/>
		<g>
			<path class="st15" d="M36.573,186.147l0.001,42.461l46.022-26.57l-0.001-42.461L36.573,186.147z M78.03,200.461L41.139,221.76
				l0-34.036l36.891-21.298L78.03,200.461z"/>
			<path class="st15" d="M39.553,184.715l-2.668,4.62l0,35.724l2.668,1.54l40.063-23.13l2.668-4.62l0-35.725l-2.668-1.54
				L39.553,184.715z M78.03,200.461L41.139,221.76l0-34.036l36.891-21.298L78.03,200.461z"/>
			<g>
				<path class="st16" d="M77.706,202.57c-0.363,0.21-0.657,0.719-0.657,1.138c0,0.419,0.294,0.589,0.657,0.379
					s0.657-0.719,0.657-1.138C78.363,202.531,78.069,202.361,77.706,202.57z M77.868,203.559l-0.324,0.187l-0.162-0.23l0.162-0.417
					l0.324-0.187l0.162,0.23L77.868,203.559z"/>
				<path class="st16" d="M41.464,223.494c-0.363,0.21-0.657,0.719-0.657,1.138c0,0.419,0.294,0.589,0.657,0.379
					s0.657-0.719,0.657-1.138C42.121,223.454,41.827,223.284,41.464,223.494z M41.626,224.483l-0.324,0.187l-0.162-0.23l0.162-0.417
					l0.324-0.187l0.162,0.23L41.626,224.483z"/>
				<path class="st16" d="M77.705,163.174c-0.363,0.21-0.657,0.719-0.657,1.138c0,0.419,0.294,0.589,0.657,0.379
					s0.657-0.719,0.657-1.138C78.362,163.134,78.068,162.964,77.705,163.174z M77.867,164.163l-0.324,0.187l-0.162-0.23l0.162-0.417
					l0.324-0.187l0.162,0.23L77.867,164.163z"/>
				<path class="st16" d="M41.464,184.097c-0.363,0.21-0.657,0.719-0.657,1.138c0,0.419,0.294,0.589,0.657,0.379
					c0.363-0.209,0.657-0.719,0.657-1.138C42.121,184.058,41.827,183.888,41.464,184.097z M41.626,185.086l-0.324,0.187l-0.162-0.23
					l0.162-0.417l0.324-0.187l0.162,0.23L41.626,185.086z"/>
				<path class="st16" d="M81.775,197.916c0-0.419-0.294-0.589-0.657-0.379c-0.363,0.21-0.657,0.719-0.657,1.138
					c0,0.419,0.294,0.589,0.657,0.379C81.48,198.844,81.775,198.335,81.775,197.916z M80.837,198.644l0-0.374l0.28-0.349l0.28,0.025
					v0.374l-0.28,0.349L80.837,198.644z"/>
				<path class="st16" d="M81.774,164.648c0-0.419-0.294-0.589-0.657-0.379s-0.657,0.719-0.657,1.138
					c0,0.419,0.294,0.589,0.657,0.379S81.774,165.067,81.774,164.648z M80.837,165.376v-0.374l0.28-0.349l0.28,0.025v0.374
					l-0.28,0.349L80.837,165.376z"/>
				<path class="st16" d="M38.709,222.779c0-0.419-0.294-0.589-0.657-0.379c-0.363,0.21-0.657,0.719-0.657,1.138
					s0.294,0.589,0.657,0.379C38.415,223.707,38.709,223.198,38.709,222.779z M37.772,223.507v-0.374l0.28-0.349l0.28,0.025v0.374
					l-0.28,0.349L37.772,223.507z"/>
				<path class="st16" d="M38.709,189.511c0-0.419-0.294-0.589-0.657-0.379s-0.657,0.719-0.657,1.138s0.294,0.589,0.657,0.379
					C38.415,190.439,38.709,189.93,38.709,189.511z M37.771,190.239v-0.374l0.28-0.349l0.28,0.025v0.374l-0.28,0.349L37.771,190.239
					z"/>
			</g>
		</g>
		<g>
			<polygon class="st17" points="77.502,200.763 60.733,210.445 60.733,198.315 			"/>
			<polygon class="st1" points="60.733,198.315 77.502,188.634 78.03,188.939 61.261,198.62 			"/>
			<g>
				<polygon class="st15" points="78.03,200.461 61.261,210.143 61.261,198.62 78.03,188.939 				"/>
				<g>
					<polygon class="st2" points="61.924,207.856 71.92,202.085 71.92,194.19 61.924,199.961 					"/>
					<polygon class="st18" points="62.476,206.887 71.368,201.753 71.368,195.119 62.476,200.253 					"/>
					<polygon class="st19" points="65.178,205.327 66.768,204.409 63.418,199.709 62.476,200.253 62.476,201.537 					"/>
					<polygon class="st19" points="64.942,198.829 64.141,199.292 67.491,203.992 68.292,203.529 					"/>
					<polygon class="st19" points="68.412,196.826 67.611,197.288 70.961,201.988 71.368,201.753 71.368,200.974 					"/>
					<polygon class="st19" points="71.368,199.124 71.368,198.331 69.746,196.055 69.346,196.287 					"/>
				</g>
				<g>
					<polygon class="st2" points="72.29,201.829 77.404,198.876 77.404,191.067 72.289,194.019 					"/>
					<g>
						<polygon class="st13" points="73.895,195.099 73.029,195.598 73.029,194.599 73.895,194.1 						"/>
						<polygon class="st13" points="75.279,194.3 74.414,194.799 74.414,193.8 75.279,193.3 						"/>
						<polygon class="st13" points="76.664,193.5 75.798,194 75.798,193.001 76.664,192.501 						"/>
						<polygon class="st13" points="73.895,196.698 73.03,197.197 73.029,196.198 73.895,195.698 						"/>
						<polygon class="st13" points="75.279,195.898 74.414,196.398 74.414,195.399 75.279,194.899 						"/>
						<polygon class="st13" points="76.664,195.099 75.798,195.598 75.798,194.599 76.664,194.1 						"/>
						<polygon class="st13" points="73.895,198.296 73.03,198.796 73.03,197.797 73.895,197.297 						"/>
						<polygon class="st13" points="75.279,197.497 74.414,197.996 74.414,196.997 75.279,196.498 						"/>
						<polygon class="st13" points="76.664,196.698 75.799,197.197 75.798,196.198 76.664,195.698 						"/>
						<polygon class="st13" points="73.895,199.895 73.03,200.394 73.03,199.395 73.895,198.896 						"/>
						<polygon class="st13" points="75.279,199.096 74.414,199.595 74.414,198.596 75.279,198.096 						"/>
						<polygon class="st13" points="76.664,198.296 75.799,198.796 75.799,197.797 76.664,197.297 						"/>
					</g>
				</g>
			</g>
		</g>
	</g>
	<g>
		<g>
			<path class="st11" d="M62.628,154.324c0-0.143-0.05-0.301-0.131-0.442l-40.061,23.13l0.655,0.352l39.414-22.756
				C62.581,154.558,62.628,154.462,62.628,154.324z"/>
			<path class="st11" d="M58.814,152.111c0-0.144-0.051-0.304-0.133-0.445l-39.011,22.523l0.438,0.477l38.607-22.29
				C58.777,152.322,58.814,152.233,58.814,152.111z"/>
			<path class="st12" d="M62.178,153.544c-0.105-0.06-0.2-0.072-0.276-0.047L22.128,176.46l0.524,0.427l39.845-23.005
				C62.416,153.74,62.303,153.616,62.178,153.544z"/>
			<path class="st12" d="M58.364,151.331c-0.115-0.066-0.218-0.075-0.298-0.039l-38.818,22.412l0.423,0.485l39.011-22.523
				C58.6,151.525,58.488,151.403,58.364,151.331z"/>
		</g>
		<g>
			<path class="st20" d="M43.95,174.1c0,0-0.211,0.308-0.734,0.308c-0.543,0-0.734-0.308-0.734-0.308l-3.651-6.435h8.77L43.95,174.1
				z"/>
			<path class="st21" d="M40.668,167.664v3.237l1.814,3.198c0,0,0.191,0.308,0.734,0.308v-6.744H40.668z"/>
		</g>
		<g>
			<polygon class="st22" points="51.566,167.724 41.454,173.561 41.454,166.598 51.565,160.76 			"/>
			<polygon class="st23" points="41.454,173.561 34.87,169.76 34.87,162.796 41.454,166.598 			"/>
		</g>
		<g>
			<polygon class="st24" points="55.293,159.246 40.668,167.691 31.139,162.189 45.764,153.745 			"/>
			<polygon class="st25" points="55.293,163.067 40.668,171.51 40.668,167.69 55.293,159.246 			"/>
			<polygon class="st25" points="40.668,171.511 31.143,166.012 31.144,162.192 40.668,167.691 			"/>
		</g>
		<g>
			<path class="st11" d="M38.429,168.296c0-0.143-0.05-0.301-0.131-0.442l-15.862,9.158l0.655,0.352l15.215-8.784
				C38.382,168.53,38.429,168.434,38.429,168.296z"/>
			<path class="st11" d="M34.615,166.083c0-0.144-0.051-0.304-0.133-0.445l-14.812,8.551l0.438,0.477l14.408-8.318
				C34.578,166.294,34.615,166.205,34.615,166.083z"/>
			<path class="st12" d="M37.979,167.516c-0.105-0.06-0.2-0.072-0.276-0.047l-15.574,8.991l0.524,0.427l15.646-9.033
				C38.217,167.712,38.104,167.588,37.979,167.516z"/>
			<path class="st12" d="M34.165,165.303c-0.115-0.066-0.218-0.075-0.298-0.039l-14.619,8.44l0.423,0.485l14.812-8.551
				C34.401,165.497,34.289,165.375,34.165,165.303z"/>
		</g>
		<g>
			<path class="st20" d="M39.787,153.745v6.831h0c0.003,0.505,0.337,1.009,1.004,1.394c1.339,0.773,3.511,0.773,4.85,0
				c0.667-0.385,1.001-0.89,1.004-1.394h0v-6.831H39.787z"/>
			<path class="st21" d="M39.787,153.745v6.831h0c0.003,0.505,0.337,1.009,1.004,1.394c0.67,0.387,1.547,0.58,2.425,0.58v-8.805
				H39.787z"/>
			<ellipse class="st18" cx="43.216" cy="153.882" rx="3.429" ry="1.98"/>
		</g>
		<g>
			<path class="st26" d="M43.409,169.559l1.408-2.393l-0.984-0.562l-0.002,0.004c-0.18-0.127-0.438-0.126-0.728,0.042
				c-0.543,0.313-0.982,1.075-0.982,1.702c0,0.301,0.103,0.513,0.268,0.62l-0.001,0.002l0.011,0.006
				c0.007,0.004,0.014,0.008,0.021,0.012L43.409,169.559z"/>
			<path class="st27" d="M45.107,167.803c0,0.627-0.44,1.388-0.982,1.702c-0.543,0.313-0.982,0.059-0.982-0.567
				c0-0.627,0.44-1.388,0.982-1.702C44.667,166.923,45.107,167.177,45.107,167.803z"/>
		</g>
		<g>
			<path class="st28" d="M46.441,167.808l1.408-2.393l-0.984-0.562l-0.002,0.004c-0.18-0.127-0.438-0.126-0.728,0.042
				c-0.543,0.313-0.982,1.075-0.982,1.702c0,0.301,0.103,0.513,0.268,0.62l-0.001,0.002l0.011,0.006
				c0.007,0.004,0.014,0.008,0.021,0.012L46.441,167.808z"/>
			<path class="st29" d="M48.139,166.053c0,0.627-0.44,1.388-0.982,1.702c-0.543,0.313-0.982,0.059-0.982-0.567
				c0-0.627,0.44-1.388,0.982-1.702C47.699,165.172,48.139,165.426,48.139,166.053z"/>
		</g>
		<g>
			<path class="st14" d="M53.046,163.991l1.408-2.393l-0.984-0.562l-0.002,0.004c-0.18-0.127-0.438-0.126-0.728,0.042
				c-0.543,0.313-0.982,1.075-0.982,1.702c0,0.301,0.103,0.513,0.268,0.62l-0.001,0.002l0.011,0.006
				c0.007,0.004,0.014,0.008,0.021,0.012L53.046,163.991z"/>
			<path class="st2" d="M54.744,162.235c0,0.627-0.44,1.388-0.982,1.702c-0.543,0.313-0.982,0.059-0.982-0.567
				c0-0.627,0.44-1.388,0.982-1.702C54.304,161.354,54.744,161.608,54.744,162.235z"/>
		</g>
	</g>
	<g>
		<polygon class="st13" points="9.064,173.917 32.488,187.441 34.215,186.457 34.081,184.436 7.478,169.077 4.81,170.618 
			4.81,206.342 6.563,209.379 9.064,207.954 		"/>
		<polygon class="st1" points="34.215,186.457 32.488,187.441 32.495,187.445 32.495,221.481 9.064,207.954 6.563,209.379 
			7.477,210.962 34.081,226.321 35.619,224.67 		"/>
		<path class="st30" d="M4.026,167.356l-0.001,42.461l32.548,18.791l0-42.461L4.026,167.356z M32.555,222.076L8.045,207.925
			l0-34.036l24.511,14.151L32.555,222.076z"/>
		<path class="st30" d="M6.991,169.356l-2.668,1.54l0,35.724l2.668,4.62L33.594,226.6l2.668-1.54l0-35.725l-2.668-4.62
			L6.991,169.356z M32.008,221.76L8.577,208.232l0-34.036l23.431,13.528L32.008,221.76z"/>
		<g>
			<path class="st16" d="M31.683,223.494c-0.363-0.21-0.657-0.04-0.657,0.379c0,0.419,0.294,0.929,0.657,1.138
				s0.657,0.04,0.657-0.379C32.341,224.213,32.046,223.703,31.683,223.494z M31.845,224.67l-0.324-0.187l-0.162-0.417l0.162-0.23
				l0.324,0.187l0.162,0.417L31.845,224.67z"/>
			<path class="st16" d="M8.902,210.341c-0.363-0.21-0.657-0.04-0.657,0.379c0,0.419,0.294,0.929,0.657,1.138
				c0.363,0.21,0.657,0.04,0.657-0.379C9.559,211.06,9.264,210.551,8.902,210.341z M9.063,211.517L8.74,211.33l-0.162-0.417
				l0.162-0.23l0.324,0.187l0.162,0.417L9.063,211.517z"/>
			<path class="st16" d="M31.684,184.097c-0.363-0.21-0.657-0.04-0.657,0.379c0,0.419,0.294,0.929,0.657,1.138
				c0.363,0.209,0.657,0.04,0.657-0.379S32.047,184.307,31.684,184.097z M31.846,185.273l-0.324-0.187l-0.162-0.417l0.162-0.23
				l0.324,0.187l0.162,0.417L31.846,185.273z"/>
			<path class="st16" d="M8.902,170.945c-0.363-0.21-0.657-0.04-0.657,0.379c0,0.419,0.294,0.929,0.657,1.138
				s0.657,0.04,0.657-0.379C9.559,171.664,9.265,171.154,8.902,170.945z M9.064,172.121l-0.324-0.187l-0.162-0.417l0.162-0.23
				l0.324,0.187l0.162,0.417L9.064,172.121z"/>
			<path class="st16" d="M35.752,223.538c0-0.419-0.294-0.929-0.657-1.138c-0.363-0.21-0.657-0.04-0.657,0.379
				s0.294,0.929,0.657,1.138C35.458,224.127,35.752,223.957,35.752,223.538z M34.815,223.183v-0.374l0.28-0.025l0.28,0.349v0.374
				l-0.28,0.025L34.815,223.183z"/>
			<path class="st16" d="M35.753,190.269c0-0.419-0.294-0.929-0.657-1.138c-0.363-0.21-0.657-0.04-0.657,0.379
				c0,0.419,0.294,0.929,0.657,1.138S35.753,190.688,35.753,190.269z M34.815,189.915v-0.374l0.28-0.025l0.28,0.349v0.374
				l-0.28,0.025L34.815,189.915z"/>
			<path class="st16" d="M6.147,206.445c0-0.419-0.294-0.929-0.657-1.138c-0.363-0.21-0.657-0.04-0.657,0.379
				c0,0.419,0.294,0.929,0.657,1.138C5.853,207.034,6.147,206.864,6.147,206.445z M5.209,206.091v-0.374l0.28-0.025l0.28,0.349
				l0,0.374l-0.28,0.025L5.209,206.091z"/>
			<path class="st16" d="M6.147,173.177c0-0.419-0.294-0.929-0.657-1.138c-0.363-0.21-0.657-0.04-0.657,0.379
				s0.294,0.929,0.657,1.138C5.853,173.766,6.147,173.596,6.147,173.177z M5.21,172.823v-0.374l0.28-0.025l0.28,0.349v0.374
				l-0.28,0.025L5.21,172.823z"/>
		</g>
	</g>
	<g>
		<polygon class="st13" points="49.13,145.526 49.134,145.979 11.292,167.827 9.042,165.411 		"/>
		<polygon class="st2" points="49.13,145.526 49.134,145.979 75.737,161.338 77.275,159.687 		"/>
		<g>
			<path class="st25" d="M4.026,167.355l32.548,18.792l46.022-26.571l-32.548-18.792L4.026,167.355z M74.381,160.106l-36.89,21.299
				l-25.252-14.579l36.89-21.299L74.381,160.106z"/>
			<path class="st25" d="M7.255,165.779v3.08l26.714,15.424h5.335l40.062-23.131v-3.08l-26.714-15.424h-5.335L7.255,165.779z
				 M74.381,160.106l-36.89,21.299l-25.252-14.579l36.89-21.299L74.381,160.106z"/>
			<g>
				<path class="st16" d="M75.721,161.254c-0.363,0.21-0.363,0.549,0,0.759c0.363,0.21,0.951,0.21,1.314,0
					c0.363-0.21,0.363-0.549,0-0.759C76.672,161.044,76.084,161.044,75.721,161.254z M76.82,161.702l-0.324,0.187l-0.442-0.068
					l-0.118-0.255l0.324-0.187l0.442,0.068L76.82,161.702z"/>
				<path class="st16" d="M39.48,182.178c-0.363,0.21-0.363,0.549,0,0.759c0.363,0.21,0.951,0.21,1.314,0
					c0.363-0.21,0.363-0.549,0-0.759C40.431,181.969,39.843,181.969,39.48,182.178z M40.579,182.626l-0.324,0.187l-0.442-0.068
					l-0.118-0.255l0.324-0.187l0.442,0.068L40.579,182.626z"/>
				<path class="st16" d="M45.827,143.994c-0.363,0.21-0.363,0.549,0,0.759c0.363,0.21,0.951,0.21,1.314,0
					c0.363-0.21,0.363-0.549,0-0.759C46.778,143.785,46.19,143.785,45.827,143.994z M46.926,144.442l-0.324,0.187l-0.442-0.068
					l-0.119-0.255l0.324-0.187l0.442,0.068L46.926,144.442z"/>
				<path class="st16" d="M9.586,164.919c-0.363,0.21-0.363,0.549,0,0.759c0.363,0.21,0.951,0.21,1.314,0
					c0.363-0.21,0.363-0.549,0-0.759C10.537,164.709,9.949,164.709,9.586,164.919z M10.685,165.366l-0.324,0.187l-0.442-0.068
					l-0.118-0.255l0.324-0.187l0.442,0.068L10.685,165.366z"/>
				<path class="st16" d="M77.793,157.752c-0.363-0.21-0.951-0.21-1.314,0c-0.363,0.21-0.363,0.549,0,0.759
					c0.363,0.21,0.951,0.21,1.314,0C78.156,158.301,78.156,157.962,77.793,157.752z M77.018,158.387l-0.324-0.187l0.118-0.255
					l0.442-0.068l0.324,0.187l-0.118,0.255L77.018,158.387z"/>
				<path class="st16" d="M53.206,143.557c-0.363-0.21-0.951-0.21-1.314,0c-0.363,0.21-0.363,0.549,0,0.759
					c0.363,0.21,0.951,0.21,1.314,0C53.569,144.106,53.569,143.766,53.206,143.557z M52.431,144.191l-0.324-0.187l0.118-0.255
					l0.442-0.068l0.324,0.187l-0.118,0.255L52.431,144.191z"/>
				<path class="st16" d="M34.728,182.616c-0.363-0.21-0.951-0.21-1.314,0c-0.363,0.21-0.363,0.549,0,0.759
					c0.363,0.21,0.951,0.21,1.314,0C35.091,183.165,35.091,182.826,34.728,182.616z M33.953,183.251l-0.324-0.187l0.119-0.255
					l0.442-0.068l0.324,0.187l-0.119,0.255L33.953,183.251z"/>
				<path class="st16" d="M10.142,168.421c-0.363-0.21-0.951-0.21-1.314,0c-0.363,0.21-0.363,0.549,0,0.759
					c0.363,0.21,0.951,0.21,1.314,0C10.505,168.97,10.505,168.63,10.142,168.421z M9.366,169.055l-0.324-0.187l0.119-0.255
					l0.442-0.068l0.324,0.187l-0.119,0.255L9.366,169.055z"/>
			</g>
		</g>
	</g>
	<path class="st3" d="M37.901,133.498c-6.386-1.659-15.698,14.908-16.091,15.614l0.406,0.227c0.095-0.17,9.526-16.958,15.568-15.39
		c3.45,0.896,5.2,7.603,5.2,19.934h0c0.128,0.074,0.337,0.074,0.465,0C43.449,141.313,41.582,134.454,37.901,133.498z"/>
</g>
<g>
	<path class="st31" d="M137.07,372.838L137.07,372.838c1.277-6.006,5.377-10.822,10.873-12.708c2.33-0.8,4.752-1.327,7.225-1.561
		c0.124-0.012,0.248-0.023,0.373-0.034l10.211-0.156l-10.839-40.285l-1.214-5.206c0,0-11.059-0.52-16.906,2.416
		c-6.097,3.062-9.542,12.904-9.542,12.904L137.07,372.838z"/>
	<path class="st31" d="M135.862,367.402l-3.763-0.831c-5.92-1.307-12.022-0.968-17.672,1.051c-0.117,0.042-0.235,0.084-0.352,0.127
		l-9.316,4.184l-8.37-42.097l-0.891-4.499c0,0,15.493-5.18,18.905-4.887c6.114,0.526,10.45,4.248,12.847,7.757L135.862,367.402z"/>
	<path class="st32" d="M137.257,374.107L137.257,374.107c-3.382,0.752-6.734-1.381-7.485-4.763l-0.469-2.111
		c-0.299-1.343,0.548-2.674,1.892-2.973l7.383-1.641c1.343-0.299,2.675,0.548,2.973,1.892l0.469,2.111
		C142.772,370.004,140.639,373.355,137.257,374.107z"/>
	<path class="st33" d="M137.844,375.394L137.844,375.394c1.469-6.113,5.967-11.062,11.929-13.059
		c2.527-0.847,5.149-1.419,7.822-1.693c0.134-0.014,0.269-0.027,0.403-0.04l11.024-0.313l-10.752-39.935l-1.57-6.042
		c0,0-11.952,0.105-18.855,2.583c-6.945,2.493-10.468,11.309-10.468,11.309L137.844,375.394z"/>
	<path class="st33" d="M136.622,369.896l-4.049-0.786c-6.37-1.236-12.962-0.8-19.09,1.334c-0.127,0.044-0.255,0.089-0.382,0.135
		l-10.119,4.386l-8.331-42.721l-1-4.729l9.216-2.989c0.127-0.045,0.254-0.09,0.382-0.135c3.521-1.226,7.195-1.892,10.892-2.002
		c4.624-0.137,9.7,2.831,13.236,5.815L136.622,369.896z"/>
	<path class="st34" d="M138.293,377.416L138.293,377.416c1.469-6.113,5.967-11.062,11.929-13.059
		c2.527-0.847,5.149-1.419,7.822-1.693c0.134-0.014,0.269-0.027,0.403-0.04l11.024-0.312l-9.329-43.08l-0.891-3.667
		c0,0-14.054,0.876-20.957,3.354c-6.945,2.493-10.59,10.494-10.59,10.494L138.293,377.416z"/>
	<path class="st34" d="M137.072,371.919l-4.049-0.786c-6.37-1.236-12.962-0.8-19.09,1.334c-0.127,0.044-0.255,0.089-0.382,0.135
		l-10.119,4.386L92.923,333.79l-0.818-3.91l11.211-3.331c0.127-0.045,0.254-0.09,0.382-0.135c3.521-1.226,7.195-1.892,10.892-2.002
		c4.624-0.138,9.578,2.016,13.114,5L137.072,371.919z"/>
	<path class="st35" d="M132.717,374.445l-0.371-1.668c-0.136-0.611,0.25-1.217,0.861-1.353l7.388-1.642
		c0.611-0.136,1.217,0.25,1.353,0.861l0.371,1.668c0.589,2.651-1.083,5.278-3.734,5.868l0,0
		C135.933,378.768,133.306,377.097,132.717,374.445z"/>
	
		<rect x="123.919" y="328.168" transform="matrix(0.9762 -0.2169 0.2169 0.9762 -68.4722 35.5796)" class="st36" width="7.805" height="2.996"/>
	<path class="st35" d="M161.066,315.971l-29.84,10.713c-0.047,0.017-0.085,0.053-0.106,0.099c-0.611,1.38-1.846,2.462-3.433,2.815
		l0,0c-1.597,0.355-3.058-0.105-4.197-1.111l-32.259,3.007c-0.03,0.005-0.06,0.01-0.09,0.015c-1.164,0.282-1.904,1.393-1.657,2.502
		l9.915,44.615c0.249,1.12,1.41,1.816,2.596,1.558c0.006-0.001,0.013-0.002,0.019-0.003l36.006-3.375
		c0.015-0.001,0.03-0.005,0.045-0.01l33.823-12.143c0.006-0.002,0.012-0.004,0.019-0.005c1.182-0.268,1.939-1.387,1.719-2.716
		c-0.001-0.004-0.002-0.008-0.002-0.013l-9.911-44.6c-0.001-0.006-0.003-0.012-0.005-0.017c-0.279-0.904-1.435-1.593-2.616-1.338
		C161.082,315.965,161.074,315.968,161.066,315.971z"/>
	<path class="st35" d="M161.066,315.971l-29.84,10.713c-0.047,0.017-0.085,0.053-0.106,0.099c-0.611,1.38-1.846,2.462-3.433,2.815
		l0,0c-1.597,0.355-3.058-0.105-4.197-1.111l-32.259,3.007c-0.03,0.005-0.06,0.01-0.09,0.015c-1.164,0.282-1.904,1.393-1.657,2.502
		l9.915,44.615c0.249,1.12,1.41,1.816,2.596,1.558c0.006-0.001,0.013-0.002,0.019-0.003l36.006-3.375
		c0.015-0.001,0.03-0.005,0.045-0.01l33.823-12.143c0.006-0.002,0.012-0.004,0.019-0.005c1.182-0.268,1.939-1.387,1.719-2.716
		c-0.001-0.004-0.002-0.008-0.002-0.013l-9.911-44.6c-0.001-0.006-0.003-0.012-0.005-0.017c-0.279-0.904-1.435-1.593-2.616-1.338
		C161.082,315.965,161.074,315.968,161.066,315.971z"/>
	<g>
		<path class="st37" d="M163.707,317.301c-0.279-0.904-1.435-1.593-2.616-1.338c-0.009,0.002-0.017,0.004-0.026,0.007
			c0,0-12.236,4.404-12.235,4.41l10.806,48.627l12.251-4.354c0.006-0.002,0.012-0.004,0.019-0.005
			c1.182-0.268,1.939-1.387,1.719-2.716c-0.001-0.004-0.002-0.008-0.002-0.013l-9.911-44.6
			C163.71,317.313,163.709,317.307,163.707,317.301z"/>
	</g>
	<polygon class="st32" points="134.327,377.158 132.993,377.29 122.214,328.619 123.52,328.468 	"/>
	<polygon class="st32" points="141.978,375.382 143.243,374.936 132.393,326.282 131.147,326.697 	"/>
	<path class="st38" d="M166.68,357.923l-17.602,6.651c-0.464,0.175-0.982-0.164-1.107-0.724l0,0
		c-0.105-0.47,0.109-0.934,0.499-1.081l17.602-6.651c0.464-0.175,0.982,0.164,1.107,0.724l0,0
		C167.283,357.313,167.069,357.776,166.68,357.923z"/>
	<path class="st38" d="M157.964,329.076l-13.353,5.168c-0.352,0.136-0.749-0.338-0.848-1.011l0,0
		c-0.083-0.566,0.076-1.076,0.372-1.191l13.353-5.168c0.352-0.136,0.749,0.338,0.848,1.011h0
		C158.419,328.451,158.259,328.962,157.964,329.076z"/>
	<path class="st39" d="M164.056,347.254l-16.676,6.008c-0.594,0.214-1.241-0.142-1.378-0.759l-2.623-11.803
		c-0.114-0.515,0.172-1.035,0.668-1.213l16.676-6.008c0.594-0.214,1.241,0.142,1.378,0.759l2.623,11.803
		C164.839,346.555,164.553,347.075,164.056,347.254z"/>
	<g class="st40">
		<path class="st41" d="M160.81,333.455l-8.38,3.019l3.081,13.866l8.626-3.108c0.484-0.174,0.763-0.681,0.651-1.183l-2.634-11.854
			C162.021,333.594,161.389,333.247,160.81,333.455z"/>
	</g>
	<g>
		<path class="st42" d="M157.784,326.808l-6.908,2.674l0.488,2.197l6.896-2.669c0.295-0.114,0.455-0.625,0.372-1.19l0,0
			C158.533,327.146,158.136,326.672,157.784,326.808z"/>
	</g>
	<g>
		<path class="st42" d="M166.369,356.052l-8.845,3.342l0.417,1.878l9.036-3.414c0.389-0.147,0.603-0.611,0.499-1.081l0,0
			C167.351,356.216,166.832,355.877,166.369,356.052z"/>
	</g>
	<path class="st43" d="M130.947,325.744l9.64,43.379L130.947,325.744z"/>
	<path class="st43" d="M127.251,328.207l11.518,51.828L127.251,328.207z"/>
	<g>
		<path class="st37" d="M131.12,326.783c-0.611,1.38-1.846,2.462-3.433,2.815c-0.017,0.004-0.033,0.007-0.049,0.01l10.8,48.601
			c0.049-0.009,0.097-0.019,0.146-0.03c1.562-0.347,2.784-1.402,3.404-2.752l-10.824-48.706
			C131.146,326.738,131.131,326.759,131.12,326.783z"/>
	</g>
	<path class="st38" d="M131.016,343.509c-0.885,0.197-1.737,0.22-2.451,0.099l4.707,21.18c0.201,0.903,1.377,1.41,2.626,1.132l0,0
		c1.25-0.278,2.1-1.235,1.899-2.138l-4.692-21.113C132.536,343.033,131.82,343.331,131.016,343.509z"/>
	<g>
		<path class="st39" d="M134.52,372.757c0.816,0.368,1.854,0.478,2.922,0.24c2.142-0.476,3.573-2.181,3.216-3.784l0.326,1.467
			c0.356,1.604-1.074,3.309-3.216,3.784c-1.067,0.237-2.106,0.128-2.922-0.24c-0.813-0.367-1.421-0.975-1.602-1.77l-0.328-1.476
			C133.094,371.777,133.704,372.389,134.52,372.757z"/>
	</g>
	<g>
		<path class="st39" d="M133.921,370.061c0.816,0.368,1.854,0.478,2.922,0.24c2.142-0.476,3.573-2.181,3.216-3.784l0.326,1.467
			c0.356,1.604-1.074,3.309-3.216,3.784c-1.067,0.237-2.106,0.128-2.922-0.24c-0.813-0.367-1.421-0.975-1.602-1.77l-0.328-1.476
			C132.495,369.081,133.105,369.693,133.921,370.061z"/>
	</g>
	<g>
		<path class="st39" d="M126.463,336.504c0.816,0.368,1.854,0.478,2.922,0.24c2.142-0.476,3.573-2.181,3.216-3.784l0.326,1.466
			c0.356,1.604-1.074,3.309-3.216,3.784c-1.067,0.237-2.106,0.128-2.922-0.24c-0.813-0.367-1.421-0.975-1.602-1.77l-0.328-1.476
			C125.037,335.524,125.648,336.135,126.463,336.504z"/>
	</g>
	<g>
		<path class="st39" d="M125.864,333.808c0.816,0.368,1.854,0.478,2.922,0.24c2.142-0.476,3.573-2.181,3.216-3.784l0.326,1.467
			c0.356,1.604-1.074,3.308-3.216,3.784c-1.067,0.237-2.106,0.128-2.922-0.24c-0.813-0.367-1.421-0.975-1.602-1.77l-0.328-1.476
			C124.438,332.828,125.048,333.439,125.864,333.808z"/>
	</g>
	<g>
		<path class="st42" d="M131.075,343.496c-0.116,0.026-0.231,0.048-0.345,0.068l4.975,22.389c0.083-0.012,0.167-0.027,0.252-0.045
			c1.25-0.278,2.1-1.235,1.899-2.138l-4.692-21.113C132.595,343.02,131.879,343.318,131.075,343.496z"/>
	</g>
	<g>
		<path class="st41" d="M128.786,334.048c-0.035,0.008-0.069,0.014-0.103,0.021l0.326,1.466c0.034-0.007,0.069-0.013,0.103-0.021
			c2.142-0.476,3.573-2.181,3.216-3.784l-0.326-1.466C132.359,331.868,130.928,333.572,128.786,334.048z"/>
	</g>
	<g>
		<path class="st41" d="M129.385,336.744c-0.035,0.008-0.069,0.014-0.103,0.021l0.326,1.467c0.034-0.007,0.069-0.013,0.103-0.021
			c2.142-0.476,3.573-2.181,3.216-3.784l-0.326-1.466C132.958,334.564,131.527,336.268,129.385,336.744z"/>
	</g>
	<g>
		<path class="st41" d="M136.843,370.302c-0.062,0.014-0.124,0.026-0.185,0.038l0.326,1.466c0.062-0.011,0.123-0.024,0.185-0.038
			c2.142-0.476,3.573-2.181,3.216-3.784l-0.326-1.467C140.415,368.121,138.985,369.826,136.843,370.302z"/>
	</g>
	<g>
		<path class="st41" d="M137.442,372.998c-0.048,0.011-0.096,0.02-0.144,0.029l0.326,1.466c0.048-0.009,0.096-0.018,0.144-0.029
			c2.142-0.476,3.573-2.181,3.216-3.784l-0.326-1.467C141.014,370.817,139.584,372.522,137.442,372.998z"/>
	</g>
</g>
<g>
	<g>
		<polygon class="st44" points="257.254,464.746 232.029,450.182 231.897,450.12 231.753,450.078 231.599,450.059 231.436,450.062 
			231.265,450.088 231.086,450.138 230.901,450.212 230.711,450.31 196.182,470.245 195.992,470.367 195.807,470.506 
			195.628,470.663 195.456,470.835 195.294,471.019 195.14,471.216 194.997,471.423 194.865,471.637 220.09,486.201 
			220.222,485.986 220.365,485.779 220.519,485.583 220.682,485.399 220.853,485.227 221.032,485.07 221.217,484.931 
			221.408,484.809 255.936,464.874 256.127,464.776 256.311,464.702 256.49,464.652 256.661,464.626 256.824,464.623 
			256.978,464.642 257.122,464.684 		"/>
		<path class="st45" d="M257.802,465.952c0-0.594-0.209-1.011-0.548-1.206c-0.337-0.195-0.804-0.168-1.318,0.128l-34.529,19.936
			c-0.515,0.297-0.981,0.808-1.318,1.391l-0.002,0.003c-0.337,0.584-0.546,1.243-0.546,1.838v11.797
			c0,0.594,0.209,1.011,0.548,1.206c0.337,0.195,0.804,0.168,1.318-0.128l34.529-19.935c0.513-0.296,0.98-0.808,1.318-1.391
			l0.002-0.003c0.337-0.584,0.546-1.244,0.546-1.838V465.952z"/>
		<g>
			<polygon class="st46" points="256.248,471.488 255.717,471.182 252.387,473.104 252.918,473.411 			"/>
			<polygon class="st47" points="252.918,473.411 252.387,473.104 252.387,476.952 252.918,477.258 			"/>
			<polygon class="st48" points="252.917,477.258 256.248,475.335 256.248,471.488 252.917,473.411 			"/>
		</g>
		<path class="st49" d="M223.388,492.26c-0.258,0.149-0.466,0.028-0.466-0.27c0-0.297,0.209-0.659,0.466-0.808l19.85-11.46
			c0.257-0.149,0.466-0.028,0.466,0.269c0,0.298-0.209,0.659-0.466,0.808L223.388,492.26z"/>
		<polygon class="st50" points="220.09,486.201 194.865,471.637 194.863,471.64 194.743,471.862 194.635,472.09 194.542,472.321 
			194.463,472.555 194.401,472.788 194.355,473.021 194.327,473.252 194.317,473.477 194.317,485.275 194.327,485.489 
			194.355,485.686 194.401,485.866 194.464,486.027 194.543,486.17 194.636,486.293 194.744,486.397 194.865,486.481 
			220.09,501.045 219.969,500.961 219.861,500.857 219.768,500.734 219.689,500.591 219.627,500.43 219.58,500.25 219.552,500.053 
			219.542,499.839 219.542,488.041 219.552,487.816 219.58,487.585 219.626,487.352 219.688,487.119 219.767,486.885 
			219.86,486.653 219.968,486.426 220.088,486.204 		"/>
		<path class="st51" d="M242.304,480.262l0.934-0.539c0.257-0.149,0.466-0.028,0.466,0.269c0,0.298-0.209,0.659-0.466,0.808h-0.001
			L242.304,480.262z"/>
		<polygon class="st52" points="251.445,474.261 250.914,473.955 247.583,475.878 248.114,476.184 		"/>
		<polygon class="st51" points="248.114,476.184 247.583,475.878 247.583,479.725 248.114,480.031 		"/>
		<polygon class="st53" points="248.114,480.031 251.445,478.108 251.445,474.261 248.114,476.184 		"/>
	</g>
	<g>
		<polygon class="st49" points="238.892,467.906 231.19,463.459 231.045,463.363 230.909,463.257 230.78,463.139 230.658,463.01 
			230.544,462.87 230.439,462.72 230.342,462.558 230.253,462.386 230.174,462.203 230.104,462.01 230.042,461.806 229.991,461.592 
			229.949,461.368 229.467,458.338 229.447,458.232 229.423,458.132 229.394,458.036 229.361,457.944 229.323,457.859 
			229.282,457.778 229.236,457.702 229.187,457.631 229.133,457.565 229.076,457.504 229.015,457.449 228.95,457.398 
			228.883,457.353 236.585,461.8 236.653,461.845 236.718,461.896 236.778,461.951 236.836,462.012 236.889,462.078 
			236.939,462.149 236.984,462.225 237.026,462.306 237.064,462.392 237.097,462.483 237.125,462.579 237.15,462.68 
			237.169,462.785 237.652,465.815 237.694,466.039 237.745,466.253 237.806,466.457 237.877,466.65 237.956,466.833 
			238.045,467.005 238.141,467.167 238.247,467.317 238.36,467.457 238.482,467.586 238.612,467.704 238.748,467.811 		"/>
		<polygon class="st52" points="227.42,453.828 225.786,452.885 225.695,452.915 225.505,452.994 225.296,453.096 225.067,453.223 
			224.055,453.823 223.125,454.399 222.274,454.953 221.499,455.488 220.794,456.01 220.156,456.52 219.581,457.023 
			219.065,457.522 218.605,458.021 218.197,458.523 217.836,459.031 217.519,459.55 217.241,460.082 217,460.631 216.791,461.201 
			216.61,461.796 216.453,462.417 216.317,463.071 216.197,463.758 216.09,464.485 215.992,465.253 215.899,466.066 
			215.807,466.927 215.712,467.842 215.61,468.812 215.498,469.841 215.371,470.933 215.226,472.092 215.058,473.32 
			214.865,474.622 214.641,476.001 214.383,477.46 214.353,477.632 214.328,477.801 214.307,477.967 214.29,478.129 
			214.277,478.289 214.269,478.446 214.265,478.599 214.265,478.749 214.269,478.896 214.277,479.04 214.289,479.181 
			214.305,479.318 214.326,479.452 214.35,479.583 214.379,479.711 214.411,479.836 214.447,479.957 214.487,480.074 
			214.531,480.189 214.579,480.3 214.631,480.408 214.686,480.512 214.745,480.613 214.809,480.71 214.875,480.804 214.946,480.894 
			215.02,480.982 215.097,481.065 215.179,481.145 215.264,481.221 215.352,481.294 215.444,481.364 215.539,481.429 
			207.836,476.982 207.741,476.917 207.65,476.847 207.561,476.774 207.476,476.698 207.395,476.618 207.317,476.535 
			207.243,476.447 207.172,476.357 207.106,476.263 207.043,476.166 206.984,476.064 206.928,475.96 206.877,475.853 
			206.829,475.742 206.785,475.627 206.745,475.509 206.708,475.388 206.676,475.264 206.648,475.136 206.623,475.005 
			206.603,474.871 206.587,474.734 206.575,474.593 206.566,474.449 206.562,474.302 206.562,474.152 206.566,473.998 
			206.575,473.842 206.587,473.682 206.604,473.52 206.626,473.354 206.651,473.185 206.681,473.013 206.938,471.554 
			207.162,470.175 207.356,468.873 207.523,467.645 207.668,466.486 207.795,465.394 207.908,464.365 208.009,463.395 
			208.104,462.48 208.197,461.618 208.29,460.805 208.388,460.037 208.495,459.311 208.614,458.623 208.751,457.97 208.907,457.349 
			209.088,456.754 209.297,456.184 209.539,455.635 209.816,455.103 210.133,454.584 210.494,454.076 210.903,453.574 
			211.363,453.075 211.878,452.576 212.453,452.073 213.091,451.563 213.796,451.041 214.572,450.505 215.422,449.952 
			216.352,449.376 217.364,448.776 217.593,448.649 217.802,448.547 217.992,448.468 218.164,448.41 218.32,448.373 
			218.461,448.353 218.588,448.351 218.701,448.363 218.803,448.389 218.894,448.428 220.438,449.319 220.446,449.316 
			220.602,449.232 226.339,445.891 226.495,445.794 226.636,445.692 226.763,445.587 226.876,445.478 226.978,445.366 
			227.07,445.25 227.153,445.131 227.227,445.009 227.294,444.884 227.355,444.757 227.412,444.627 227.465,444.495 
			227.516,444.361 227.566,444.225 227.616,444.088 227.666,443.948 227.72,443.808 227.776,443.666 227.838,443.523 
			227.906,443.38 227.98,443.235 228.063,443.09 228.154,442.945 228.257,442.8 228.371,442.655 228.498,442.51 228.64,442.365 
			228.796,442.221 228.969,442.078 229.159,441.935 229.368,441.794 229.597,441.654 230.609,441.076 231.539,440.569 
			232.389,440.133 233.164,439.765 233.868,439.466 234.505,439.235 235.078,439.069 235.592,438.969 236.05,438.934 
			236.456,438.961 236.814,439.05 237.128,439.201 244.831,443.649 244.517,443.498 244.159,443.408 243.752,443.381 
			243.294,443.416 242.781,443.516 242.207,443.682 241.571,443.913 240.867,444.212 240.091,444.58 239.241,445.016 
			238.312,445.523 237.3,446.101 237.071,446.241 236.862,446.382 236.672,446.525 236.499,446.668 236.342,446.812 
			236.201,446.957 236.074,447.102 235.96,447.247 235.857,447.392 235.765,447.537 235.682,447.682 235.608,447.827 
			235.541,447.97 235.479,448.113 235.422,448.255 235.369,448.396 235.318,448.535 235.268,448.672 235.219,448.808 
			235.168,448.942 235.114,449.074 235.058,449.204 234.997,449.331 234.929,449.456 234.855,449.578 234.773,449.697 
			234.681,449.813 234.579,449.925 234.465,450.034 234.338,450.14 234.197,450.241 234.042,450.339 228.304,453.679 
			228.148,453.763 228.008,453.825 227.881,453.867 227.768,453.891 227.666,453.897 227.575,453.887 227.494,453.864 		"/>
		<path class="st53" d="M228.304,453.679l5.737-3.34c1.748-1.018,0.705-2.751,3.258-4.238c11.249-6.549,7.708-0.763,10.525,11.89
			c0.326,1.462-0.089,3.27-1.101,5.162c-1.012,1.892-2.375,3.37-3.954,4.29l-0.085,0.049c-2.533,1.475-4.643,0.771-5.033-1.678
			l-0.483-3.029c-0.184-1.153-1.177-1.485-2.37-0.79l-7.359,4.285c-1.193,0.694-2.194,2.187-2.389,3.561l-0.512,3.608
			c-0.414,2.918-2.541,6.087-5.074,7.562l-0.085,0.049c-1.58,0.92-2.936,1.024-3.937,0.304c-1-0.721-1.401-2.053-1.061-3.904
			c2.942-16.005-0.566-17.687,10.683-24.237C227.62,451.737,226.556,454.697,228.304,453.679z"/>
		<g>
			<polygon class="st44" points="229.92,461.922 229.611,461.743 232.985,459.779 233.294,459.958 			"/>
			<polygon class="st44" points="229.916,462.98 229.606,462.801 229.611,461.743 229.92,461.922 			"/>
		</g>
		<polygon class="st45" points="229.92,461.922 233.294,459.958 233.29,461.016 229.916,462.98 		"/>
		<g>
			<polygon class="st54" points="221.512,462.722 221.048,462.455 221.054,461.08 221.056,461.023 221.059,460.966 221.066,460.909 
				221.074,460.851 221.085,460.793 221.098,460.734 221.113,460.675 221.129,460.617 221.148,460.558 221.169,460.499 
				221.192,460.441 221.217,460.383 221.243,460.325 221.271,460.268 221.3,460.212 221.331,460.156 221.364,460.102 
				221.398,460.048 221.434,459.995 221.47,459.944 221.508,459.893 221.548,459.845 221.588,459.797 221.629,459.751 
				221.672,459.707 221.715,459.665 221.759,459.625 221.805,459.586 221.851,459.55 221.897,459.516 221.945,459.484 
				221.993,459.455 222.694,459.047 222.742,459.02 222.789,458.997 222.836,458.977 222.881,458.96 222.926,458.945 
				222.971,458.934 223.014,458.926 223.056,458.921 223.097,458.918 223.137,458.919 223.176,458.922 223.214,458.928 
				223.251,458.937 223.286,458.949 223.32,458.963 223.352,458.98 223.816,459.248 223.783,459.231 223.75,459.216 
				223.714,459.205 223.678,459.196 223.64,459.19 223.601,459.187 223.561,459.186 223.52,459.188 223.478,459.194 
				223.434,459.202 223.39,459.213 223.345,459.227 223.299,459.244 223.253,459.265 223.205,459.288 223.158,459.314 
				222.456,459.723 222.408,459.752 222.361,459.784 222.314,459.818 222.268,459.854 222.223,459.892 222.179,459.933 
				222.135,459.975 222.093,460.019 222.052,460.065 222.011,460.112 221.972,460.161 221.934,460.211 221.897,460.263 
				221.862,460.315 221.828,460.369 221.795,460.424 221.764,460.479 221.735,460.536 221.707,460.593 221.68,460.65 
				221.656,460.708 221.633,460.767 221.612,460.826 221.593,460.884 221.576,460.943 221.561,461.002 221.548,461.06 
				221.538,461.119 221.529,461.177 221.523,461.234 221.519,461.291 221.518,461.347 			"/>
			<polygon class="st54" points="224.08,461.227 223.616,460.959 224.805,460.267 224.853,460.241 224.9,460.218 224.947,460.197 
				224.993,460.18 225.038,460.166 225.082,460.155 225.125,460.147 225.167,460.141 225.209,460.139 225.249,460.139 
				225.288,460.143 225.326,460.149 225.362,460.158 225.397,460.169 225.431,460.184 225.463,460.2 225.927,460.468 
				225.895,460.451 225.861,460.437 225.826,460.425 225.789,460.417 225.751,460.41 225.712,460.407 225.672,460.407 
				225.631,460.409 225.589,460.414 225.546,460.422 225.501,460.434 225.456,460.448 225.41,460.465 225.364,460.485 
				225.317,460.509 225.269,460.535 			"/>
			<polygon class="st54" points="221.763,467.675 221.3,467.408 221.269,467.388 221.24,467.366 221.212,467.341 221.186,467.314 
				221.162,467.284 221.14,467.252 221.119,467.218 221.101,467.181 221.084,467.141 221.07,467.1 221.057,467.056 221.047,467.01 
				221.039,466.961 221.033,466.911 221.03,466.858 221.029,466.803 221.035,465.428 221.499,465.695 221.493,467.071 
				221.494,467.126 221.497,467.179 221.503,467.229 221.511,467.277 221.521,467.324 221.533,467.367 221.548,467.409 
				221.564,467.448 221.583,467.485 221.603,467.52 221.626,467.552 221.65,467.582 221.676,467.609 221.703,467.634 
				221.733,467.656 			"/>
			<polygon class="st54" points="219.653,466.454 219.189,466.186 219.158,466.166 219.129,466.144 219.101,466.12 219.076,466.092 
				219.051,466.063 219.029,466.031 219.009,465.996 218.99,465.959 218.974,465.92 218.959,465.878 218.947,465.834 
				218.937,465.788 218.929,465.74 218.923,465.689 218.919,465.637 218.918,465.582 218.922,464.77 218.923,464.714 
				218.927,464.657 218.933,464.6 218.942,464.542 218.953,464.483 218.966,464.425 218.98,464.366 218.997,464.307 
				219.016,464.249 219.037,464.19 219.06,464.132 219.084,464.074 219.111,464.016 219.139,463.959 219.168,463.903 
				219.199,463.847 219.232,463.793 219.266,463.739 219.301,463.686 219.338,463.635 219.376,463.584 219.415,463.536 
				219.456,463.488 219.497,463.443 219.54,463.398 219.583,463.356 219.627,463.316 219.673,463.277 219.719,463.241 
				219.765,463.207 219.812,463.175 219.86,463.146 221.048,462.455 221.512,462.722 220.324,463.414 220.276,463.443 
				220.229,463.475 220.182,463.509 220.136,463.545 220.091,463.583 220.047,463.624 220.003,463.666 219.961,463.71 
				219.919,463.756 219.879,463.803 219.84,463.852 219.802,463.902 219.765,463.954 219.73,464.007 219.696,464.06 
				219.663,464.115 219.632,464.171 219.602,464.227 219.574,464.284 219.548,464.341 219.524,464.399 219.501,464.458 
				219.48,464.516 219.461,464.575 219.444,464.634 219.429,464.693 219.416,464.751 219.406,464.809 219.397,464.867 
				219.391,464.925 219.387,464.982 219.386,465.038 219.382,465.85 219.383,465.905 219.386,465.957 219.392,466.008 
				219.4,466.056 219.41,466.102 219.423,466.146 219.437,466.187 219.454,466.227 219.472,466.264 219.493,466.298 219.515,466.33 
				219.539,466.36 219.565,466.387 219.593,466.412 219.622,466.434 			"/>
		</g>
		<path class="st45" d="M222.456,459.723l0.701-0.408c0.514-0.299,0.931-0.058,0.929,0.537l-0.006,1.375l1.188-0.692
			c0.514-0.3,0.931-0.058,0.929,0.537l-0.004,0.812c-0.002,0.595-0.423,1.324-0.938,1.624l-1.188,0.692l-0.006,1.376
			c-0.003,0.595-0.424,1.325-0.938,1.624l-0.701,0.408c-0.514,0.299-0.932,0.058-0.929-0.537l0.006-1.376l-1.188,0.691
			c-0.514,0.299-0.932,0.058-0.929-0.537l0.004-0.812c0.003-0.595,0.424-1.324,0.938-1.624l1.188-0.691l0.006-1.375
			C221.52,460.752,221.942,460.022,222.456,459.723z"/>
		<polygon class="st55" points="228.284,448.962 228.284,449.575 228.282,449.622 228.276,449.668 228.266,449.714 228.252,449.758 
			228.235,449.802 228.214,449.845 228.189,449.887 228.161,449.929 228.129,449.969 228.095,450.008 228.057,450.046 
			228.016,450.083 227.972,450.118 227.925,450.152 227.876,450.185 227.824,450.217 227.769,450.247 227.712,450.275 
			227.653,450.302 227.592,450.328 227.528,450.351 227.462,450.373 227.394,450.393 227.325,450.411 227.253,450.427 
			227.18,450.442 227.106,450.454 227.03,450.464 226.952,450.472 226.874,450.478 226.794,450.481 226.713,450.482 
			226.632,450.481 226.553,450.478 226.474,450.472 226.397,450.464 226.321,450.454 226.246,450.442 226.173,450.427 
			226.102,450.411 226.032,450.393 225.964,450.373 225.899,450.351 225.835,450.328 225.773,450.302 225.714,450.275 
			225.657,450.247 225.602,450.217 225.55,450.185 225.501,450.152 225.454,450.118 225.411,450.083 225.37,450.046 
			225.332,450.008 225.297,449.969 225.266,449.929 225.238,449.887 225.213,449.845 225.192,449.802 225.174,449.758 
			225.16,449.714 225.15,449.668 225.144,449.622 225.142,449.575 225.142,448.962 225.144,449.008 225.15,449.054 225.16,449.1 
			225.174,449.144 225.192,449.188 225.213,449.231 225.238,449.274 225.266,449.315 225.297,449.355 225.332,449.394 
			225.37,449.432 225.411,449.469 225.454,449.504 225.501,449.539 225.55,449.571 225.602,449.603 225.657,449.633 
			225.714,449.662 225.773,449.688 225.835,449.714 225.899,449.737 225.964,449.759 226.032,449.779 226.102,449.797 
			226.173,449.814 226.246,449.828 226.321,449.84 226.397,449.85 226.474,449.858 226.553,449.864 226.632,449.868 
			226.713,449.869 226.794,449.868 226.874,449.864 226.952,449.858 227.03,449.85 227.106,449.84 227.18,449.828 227.253,449.814 
			227.325,449.797 227.394,449.779 227.462,449.759 227.528,449.737 227.592,449.714 227.653,449.688 227.712,449.662 
			227.769,449.633 227.824,449.603 227.876,449.571 227.925,449.539 227.972,449.504 228.016,449.469 228.057,449.432 
			228.095,449.394 228.129,449.355 228.161,449.315 228.189,449.274 228.214,449.231 228.235,449.188 228.252,449.144 
			228.266,449.1 228.276,449.054 228.282,449.008 		"/>
		<path class="st56" d="M226.713,448.055c0.868,0,1.571,0.406,1.571,0.907c0,0.501-0.703,0.907-1.571,0.907
			c-0.867,0-1.571-0.406-1.571-0.907C225.142,448.461,225.846,448.055,226.713,448.055z"/>
		<polygon class="st57" points="243.659,448.129 243.176,447.85 243.117,447.83 243.056,447.816 242.993,447.805 242.928,447.8 
			242.861,447.799 242.792,447.803 242.721,447.811 242.649,447.825 242.575,447.843 242.5,447.866 242.424,447.895 
			242.346,447.928 242.267,447.967 242.187,448.011 242.107,448.059 242.028,448.112 241.95,448.168 241.873,448.228 
			241.798,448.292 241.725,448.358 241.652,448.428 241.582,448.501 241.513,448.577 241.446,448.655 241.381,448.736 
			241.318,448.819 241.257,448.904 241.198,448.992 241.141,449.081 241.087,449.171 241.036,449.263 240.987,449.357 
			240.941,449.451 240.898,449.546 240.857,449.643 240.82,449.74 240.785,449.837 240.754,449.934 240.726,450.032 
			240.702,450.129 240.681,450.227 240.664,450.324 240.65,450.42 240.64,450.516 240.634,450.61 240.632,450.704 240.634,450.795 
			240.64,450.883 240.65,450.967 240.664,451.047 240.681,451.124 240.702,451.197 240.726,451.266 240.754,451.332 
			240.785,451.393 240.82,451.451 240.857,451.505 240.898,451.554 240.941,451.599 240.987,451.64 241.471,451.92 241.425,451.879 
			241.381,451.833 241.341,451.784 241.303,451.73 241.269,451.673 241.238,451.611 241.21,451.546 241.186,451.477 
			241.165,451.404 241.147,451.327 241.134,451.246 241.124,451.162 241.118,451.074 241.116,450.983 241.118,450.89 
			241.124,450.795 241.134,450.699 241.147,450.603 241.165,450.506 241.186,450.409 241.21,450.311 241.238,450.214 
			241.269,450.116 241.303,450.019 241.341,449.922 241.381,449.826 241.425,449.73 241.471,449.636 241.52,449.543 
			241.571,449.451 241.625,449.36 241.682,449.271 241.74,449.184 241.801,449.098 241.864,449.015 241.93,448.935 241.997,448.856 
			242.066,448.78 242.136,448.708 242.208,448.638 242.282,448.571 242.357,448.507 242.434,448.447 242.512,448.391 
			242.591,448.339 242.671,448.29 242.751,448.246 242.83,448.208 242.907,448.174 242.984,448.146 243.059,448.122 
			243.133,448.104 243.205,448.09 243.276,448.082 243.344,448.078 243.411,448.079 243.477,448.085 243.54,448.095 243.601,448.11 
					"/>
		<path class="st48" d="M242.671,451.88c0.858-0.496,1.554-1.701,1.554-2.692c0-0.992-0.696-1.394-1.554-0.898
			c-0.858,0.496-1.555,1.701-1.555,2.693C241.116,451.974,241.812,452.376,242.671,451.88z"/>
		<polygon class="st57" points="240.248,453.787 239.765,453.508 239.706,453.488 239.645,453.473 239.582,453.463 239.517,453.458 
			239.45,453.457 239.381,453.46 239.31,453.469 239.238,453.483 239.164,453.501 239.089,453.524 239.013,453.553 238.935,453.586 
			238.856,453.625 238.776,453.669 238.696,453.717 238.617,453.77 238.539,453.826 238.463,453.886 238.387,453.949 
			238.314,454.016 238.241,454.086 238.171,454.159 238.102,454.235 238.035,454.313 237.97,454.394 237.907,454.477 
			237.846,454.562 237.787,454.65 237.73,454.739 237.676,454.829 237.625,454.921 237.576,455.015 237.53,455.109 237.487,455.204 
			237.446,455.301 237.409,455.397 237.374,455.495 237.343,455.592 237.315,455.69 237.291,455.787 237.27,455.885 
			237.253,455.982 237.239,456.078 237.229,456.174 237.223,456.268 237.221,456.362 237.223,456.453 237.229,456.541 
			237.239,456.625 237.253,456.705 237.27,456.782 237.291,456.855 237.315,456.924 237.343,456.99 237.374,457.051 
			237.409,457.109 237.446,457.163 237.487,457.212 237.53,457.257 237.576,457.298 238.06,457.578 238.014,457.537 237.97,457.491 
			237.93,457.442 237.892,457.388 237.858,457.331 237.827,457.269 237.799,457.204 237.775,457.134 237.754,457.061 
			237.736,456.985 237.723,456.904 237.713,456.82 237.707,456.732 237.705,456.641 237.707,456.548 237.713,456.453 
			237.723,456.357 237.736,456.261 237.754,456.164 237.775,456.067 237.799,455.969 237.827,455.872 237.858,455.774 
			237.892,455.677 237.93,455.58 237.97,455.484 238.014,455.388 238.06,455.294 238.109,455.201 238.16,455.108 238.214,455.018 
			238.271,454.929 238.329,454.842 238.39,454.756 238.453,454.673 238.519,454.592 238.586,454.514 238.655,454.438 
			238.725,454.366 238.797,454.296 238.871,454.229 238.946,454.165 239.023,454.105 239.101,454.049 239.18,453.996 
			239.26,453.948 239.34,453.904 239.419,453.865 239.496,453.832 239.573,453.804 239.648,453.78 239.722,453.762 239.794,453.748 
			239.865,453.74 239.933,453.736 240.001,453.737 240.066,453.742 240.129,453.753 240.19,453.768 		"/>
		<path class="st48" d="M239.26,457.538c0.858-0.496,1.554-1.701,1.554-2.692c0-0.992-0.696-1.394-1.554-0.898
			c-0.858,0.496-1.555,1.701-1.555,2.693C237.705,457.632,238.401,458.034,239.26,457.538z"/>
		<path class="st54" d="M219.177,449.208l3.158,1.646c0.245,0.021,0.364,0.182,0.402,0.369l0.128,0.622l-6.519,3.764l-0.01,0.02
			l-3.277-1.707l0.181-0.348l0.207-0.339l0.236-0.332l0.267-0.328l0.301-0.326l0.337-0.326l0.376-0.329l0.417-0.334l0.461-0.341
			l0.507-0.35l0.556-0.362l0.608-0.376l0.662-0.393l0.15-0.083l0.137-0.067l0.124-0.052l0.113-0.038l0.102-0.025l0.092-0.013
			l0.083-0.002l0.074,0.008l0.067,0.017L219.177,449.208z"/>
		<polygon class="st54" points="213.06,453.921 213.241,453.573 213.449,453.234 213.685,452.901 213.952,452.573 214.253,452.247 
			214.59,451.921 214.966,451.592 215.383,451.258 215.844,450.917 216.351,450.567 216.907,450.205 217.515,449.829 
			218.177,449.436 218.327,449.353 218.463,449.286 218.588,449.235 218.7,449.197 218.802,449.172 218.894,449.16 218.977,449.158 
			219.051,449.166 219.118,449.183 219.177,449.208 222.454,450.916 222.394,450.89 222.328,450.873 222.253,450.865 
			222.171,450.867 222.079,450.88 221.977,450.904 221.864,450.942 221.74,450.994 221.603,451.06 221.453,451.143 220.792,451.536 
			220.184,451.912 219.628,452.274 219.12,452.624 218.659,452.965 218.242,453.299 217.866,453.628 217.529,453.954 
			217.228,454.28 216.961,454.609 216.725,454.941 216.518,455.28 216.337,455.628 		"/>
		<path class="st45" d="M216.346,455.609c0.735-1.522,2.132-2.733,5.107-4.466c0.881-0.513,1.215-0.261,1.285,0.08l0.128,0.622
			L216.346,455.609z"/>
		<polygon class="st49" points="218.042,458.741 217.836,459.031 217.519,459.55 217.241,460.082 217,460.631 216.791,461.201 
			216.61,461.796 216.453,462.417 216.317,463.071 216.197,463.758 216.09,464.485 215.992,465.253 215.899,466.066 
			215.807,466.927 215.712,467.842 215.61,468.812 215.498,469.841 215.371,470.933 215.226,472.092 215.058,473.32 
			214.865,474.622 214.641,476.001 214.383,477.46 214.353,477.632 214.328,477.801 214.307,477.967 214.29,478.129 
			214.277,478.289 214.269,478.446 214.265,478.599 214.265,478.749 214.269,478.896 214.277,479.04 214.289,479.181 
			214.305,479.318 214.326,479.452 214.35,479.583 214.379,479.711 214.411,479.836 214.447,479.957 214.487,480.074 
			214.531,480.189 214.579,480.3 214.631,480.408 214.686,480.512 214.745,480.613 214.809,480.71 214.875,480.804 214.946,480.894 
			215.02,480.982 215.097,481.065 215.179,481.145 215.264,481.221 215.352,481.294 215.444,481.364 215.539,481.429 
			207.836,476.982 207.741,476.917 207.65,476.847 207.561,476.774 207.476,476.698 207.395,476.618 207.317,476.535 
			207.243,476.447 207.172,476.357 207.106,476.263 207.043,476.166 206.984,476.064 206.928,475.96 206.877,475.853 
			206.829,475.742 206.785,475.627 206.745,475.509 206.708,475.388 206.676,475.264 206.648,475.136 206.623,475.005 
			206.603,474.871 206.587,474.734 206.575,474.593 206.566,474.449 206.562,474.302 206.562,474.152 206.566,473.998 
			206.575,473.842 206.587,473.682 206.604,473.52 206.626,473.354 206.651,473.185 206.681,473.013 206.938,471.554 
			207.162,470.175 207.356,468.873 207.523,467.645 207.668,466.486 207.795,465.394 207.908,464.365 208.009,463.395 
			208.104,462.48 208.197,461.618 208.29,460.805 208.388,460.037 208.495,459.311 208.614,458.623 208.751,457.97 208.907,457.349 
			209.088,456.754 209.297,456.184 209.539,455.635 209.816,455.103 210.133,454.584 210.339,454.294 		"/>
		<polygon class="st49" points="227.038,445.291 227.07,445.25 227.153,445.131 227.227,445.009 227.294,444.884 227.355,444.757 
			227.412,444.627 227.465,444.495 227.516,444.361 227.566,444.225 227.616,444.088 227.666,443.948 227.72,443.808 
			227.776,443.666 227.838,443.523 227.906,443.38 227.98,443.235 228.063,443.09 228.154,442.945 228.257,442.8 228.371,442.655 
			228.498,442.51 228.64,442.365 228.688,442.32 236.391,446.767 236.342,446.812 236.201,446.957 236.074,447.102 235.96,447.247 
			235.857,447.392 235.765,447.537 235.682,447.682 235.608,447.827 235.541,447.97 235.479,448.113 235.422,448.255 
			235.369,448.396 235.318,448.535 235.268,448.672 235.219,448.808 235.168,448.942 235.114,449.074 235.058,449.204 
			234.997,449.331 234.929,449.456 234.855,449.578 234.773,449.697 234.74,449.738 		"/>
		<path class="st54" d="M236.676,439.669l0.234,0.059l0.205,0.099l3.155,1.644c0.035,0.016,0.069,0.034,0.102,0.053l0.019,0.01
			l-0.012-0.006c0.087,0.052,0.166,0.116,0.237,0.192l-6.456,3.714l-0.155,0.089l-3.222-1.974c0.038-0.291,0.051-0.366,0.144-0.619
			l0.035-0.092l0.037-0.093l0.04-0.093l0.044-0.094l0.049-0.094l0.054-0.095l0.06-0.095l0.067-0.095l0.075-0.095l0.083-0.095
			l0.092-0.095l0.102-0.094l0.113-0.094l0.124-0.093l0.137-0.092l0.15-0.092l0.662-0.378l0.608-0.331l0.556-0.285l0.507-0.24
			l0.46-0.195l0.416-0.151l0.375-0.108l0.336-0.065l0.299-0.023L236.676,439.669z"/>
		<path class="st54" d="M230.785,443.55c0.038-0.291,0.051-0.366,0.144-0.619l0.035-0.092l0.037-0.093l0.04-0.093l0.044-0.094
			l0.049-0.094l0.054-0.095l0.06-0.095l0.067-0.095l0.075-0.095l0.083-0.095l0.092-0.095l0.102-0.094l0.113-0.094l0.124-0.093
			l0.137-0.092l0.15-0.092l0.662-0.378l0.608-0.331l0.556-0.285l0.507-0.24l0.46-0.195l0.416-0.151l0.375-0.108l0.336-0.065
			l0.299-0.023l0.266,0.018l0.234,0.059l0.205,0.099l3.277,1.707l-0.205-0.099l-0.234-0.059l-0.266-0.018l-0.299,0.023l-0.336,0.065
			l-0.375,0.108l-0.416,0.152l-0.46,0.195l-0.507,0.24l-0.556,0.285l-0.608,0.331l-0.662,0.378l-0.15,0.092l-0.137,0.092
			l-0.124,0.093l-0.113,0.094l-0.102,0.094l-0.092,0.095l-0.083,0.095l-0.075,0.095l-0.067,0.095l-0.06,0.095l-0.054,0.095
			l-0.049,0.094l-0.044,0.094c-0.197,0.458-0.223,0.626-0.311,1.164L230.785,443.55z"/>
		<path class="st45" d="M234.084,444.968c0.085-0.608,0.357-1.233,1.384-1.831c3.054-1.778,4.44-2.164,5.15-1.417l-6.456,3.714
			l-0.155,0.089L234.084,444.968z"/>
	</g>
</g>
<g>
	<path class="st58" d="M68.941,613.574h4.532l15.778,27.33c0.54,0.94,0.217,2.139-0.724,2.679c-0.939,0.54-2.139,0.216-2.679-0.724
		L68.941,613.574L68.941,613.574z M44.674,642.86c-0.54,0.94-1.74,1.264-2.679,0.724c-0.94-0.54-1.264-1.74-0.724-2.679
		l15.779-27.331l4.533,0.001L44.674,642.86L44.674,642.86z M63.297,613.574h3.927v28.308c0,1.084-0.879,1.963-1.963,1.963
		c-1.084,0-1.963-0.88-1.964-1.963V613.574z"/>
	<polygon class="st59" points="64.499,595.589 59.803,598.3 62.525,603.014 62.526,610.964 68.014,610.963 68.013,601.676 	"/>
	<path class="st60" d="M48.08,604.77l-5.345-9.258c-0.363-0.628-0.145-1.428,0.484-1.79l25.607-14.784l6.654,11.525l-25.607,14.784
		C49.247,605.607,48.442,605.396,48.08,604.77z"/>
	<path class="st61" d="M68.134,575.12l15.956-9.212c0.628-0.363,1.429-0.143,1.791,0.484l8.992,15.574
		c0.36,0.624,0.145,1.428-0.479,1.788l-15.956,9.212c-0.624,0.36-1.426,0.147-1.788-0.479l-8.992-15.574
		C67.296,576.287,67.508,575.482,68.134,575.12z"/>
	
		<rect x="42.337" y="588.679" transform="matrix(0.866 -0.5 0.5 0.866 -287.5938 108.0219)" class="st61" width="30.887" height="4.009"/>
	
		<rect x="69.08" y="573.231" transform="matrix(0.866 -0.5 0.5 0.866 -277.6176 117.047)" class="st62" width="21.041" height="6.654"/>
	<path class="st58" d="M32.727,604.517l0.718,0.192l2.922-1.687l1.762,3.052l-2.922,1.687l-5.532-1.482l-3.325-5.76
		c-0.263,0.152-0.602,0.061-0.754-0.202c-0.152-0.263-0.061-0.602,0.201-0.753l3.053-1.763c0.262-0.15,0.602-0.06,0.754,0.202
		c0.151,0.263,0.061,0.602-0.202,0.754L32.727,604.517z"/>
	<path class="st63" d="M38.466,606.659l-2.437-4.221c-0.363-0.629-0.145-1.428,0.484-1.791l6.891-3.979l3.746,6.489l-6.891,3.978
		C39.632,607.497,38.827,607.285,38.466,606.659L38.466,606.659z M32.727,604.517l-4.77,2.754c-0.27,0.156-0.193,0.47,0.071,0.54
		l7.839,2.1c0.265,0.071,0.488-0.161,0.331-0.433l-2.753-4.77C33.3,604.46,32.975,604.374,32.727,604.517z"/>
	
		<rect x="36.252" y="600.569" transform="matrix(0.866 -0.5 0.5 0.866 -295.312 101.0397)" class="st64" width="9.271" height="2.025"/>
	<path class="st58" d="M27.647,599.77l3.325,5.76l0.877-0.506l-3.326-5.76L27.647,599.77L27.647,599.77z M34.457,606.464
		l2.922-1.687l-0.506-0.877l-2.922,1.687L34.457,606.464z"/>
	<path class="st58" d="M66.225,598.58c0.651,0.127,1.256,0.384,1.787,0.741c0.06,0.721,0.631,1.292,1.352,1.352
		c0.357,0.531,0.612,1.136,0.74,1.787c-0.465,0.548-0.465,1.364,0,1.912c-0.128,0.651-0.384,1.256-0.741,1.788
		c-0.72,0.06-1.292,0.631-1.351,1.351c-0.532,0.357-1.137,0.614-1.788,0.742c-0.549-0.465-1.364-0.465-1.912,0
		c-0.65-0.128-1.256-0.385-1.787-0.741c-0.06-0.72-0.632-1.291-1.352-1.352c-0.357-0.532-0.613-1.137-0.741-1.788
		c0.465-0.549,0.465-1.364,0-1.912c0.128-0.651,0.384-1.256,0.741-1.787c0.721-0.06,1.292-0.632,1.352-1.352
		c0.531-0.357,1.136-0.613,1.787-0.741C64.862,599.045,65.676,599.045,66.225,598.58L66.225,598.58z"/>
	<path class="st63" d="M65.269,600.658c1.523,0,2.758,1.235,2.758,2.758c-0.001,1.523-1.235,2.758-2.759,2.758
		c-1.523,0-2.758-1.235-2.757-2.758C62.511,601.893,63.746,600.657,65.269,600.658L65.269,600.658z"/>
	<path class="st59" d="M73.473,613.574l-1.698-2.941c-0.376-0.65-1.065-0.984-1.766-0.984l-9.479,0
		c-0.708,0-1.404,0.328-1.782,0.983l-1.699,2.941L73.473,613.574L73.473,613.574z M86.605,636.319l2.639,4.572
		c0.544,0.938,0.225,2.139-0.713,2.682c-0.938,0.544-2.138,0.225-2.682-0.713l-2.643-4.579
		C83.087,636.859,85.432,635.506,86.605,636.319L86.605,636.319z M54.733,625.438l21.058,0l1.511,2.617h-24.08L54.733,625.438
		L54.733,625.438z M47.318,638.282l-2.643,4.578c-0.54,0.94-1.74,1.264-2.679,0.724c-0.94-0.54-1.264-1.74-0.724-2.679l2.647-4.585
		C45.09,635.506,47.435,636.859,47.318,638.282L47.318,638.282z M67.223,636.074v5.808c0,1.084-0.879,1.963-1.963,1.963
		c-1.084,0-1.964-0.879-1.964-1.963l0-5.808C63.907,637.364,66.614,637.364,67.223,636.074z"/>
</g>
</svg>
